<?xml version="1.0" encoding="UTF-8" standalone="no"?>
<svg id="chart-svg" width="450px" height="240px" viewBox="0 0 450 240"  version="1.1" xmlns="http://www.w3.org/2000/svg" xmlns:xlink="http://www.w3.org/1999/xlink" >
    <title>chart</title>
    <desc>Created with Sketch.</desc>
    <defs></defs>
        <g id="chart" fill="#FFFFFF">
            <g id="Axis">
                <g id="X-and-Y-Axis-Main" transform="translate(6.000000, 0.000000)">
                    <path d="M210.8,217.9 L0.2,217.9 L0.2,0.4 C0.2,0.1 0.4,-0.1 0.7,-0.1 C1,-0.1 1.2,0.1 1.2,0.4 L1.2,216.9 L210.9,216.9 C211.2,216.9 211.4,217.1 211.4,217.4 C211.4,217.7 211.1,217.9 210.8,217.9 L210.8,217.9 Z" ></path>
                </g>
                <g id="X-Column-Markers" transform="translate(25.000000, 217.000000)">
                    <path d="M0.5,7.4 C0.2,7.4 0,7.2 0,6.9 L0,0.4 C0,0.1 0.2,-0.1 0.5,-0.1 C0.8,-0.1 1,0.1 1,0.4 L1,6.9 C1,7.1 0.8,7.4 0.5,7.4 L0.5,7.4 Z" id="Col-1-Marker"></path>
                    <path d="M43.8,7.4 C43.5,7.4 43.3,7.2 43.3,6.9 L43.3,0.4 C43.3,0.1 43.5,-0.1 43.8,-0.1 C44.1,-0.1 44.3,0.1 44.3,0.4 L44.3,6.9 C44.3,7.1 44.1,7.4 43.8,7.4 L43.8,7.4 Z" id="Col-2-Marker"></path>
                    <path d="M86.1,7.4 C85.8,7.4 85.6,7.2 85.6,6.9 L85.6,0.4 C85.6,0.1 85.8,-0.1 86.1,-0.1 C86.4,-0.1 86.6,0.1 86.6,0.4 L86.6,6.9 C86.6,7.1 86.4,7.4 86.1,7.4 L86.1,7.4 Z" id="Col-3-Marker"></path>
                    <path d="M129.7,7.4 C129.4,7.4 129.2,7.2 129.2,6.9 L129.2,0.4 C129.2,0.1 129.4,-0.1 129.7,-0.1 C130,-0.1 130.2,0.1 130.2,0.4 L130.2,6.9 C130.2,7.1 130,7.4 129.7,7.4 L129.7,7.4 Z" id="Col-4-Marker"></path>
                    <path d="M173,7.4 C172.7,7.4 172.5,7.2 172.5,6.9 L172.5,0.4 C172.5,0.1 172.7,-0.1 173,-0.1 C173.3,-0.1 173.5,0.1 173.5,0.4 L173.5,6.9 C173.5,7.1 173.3,7.4 173,7.4 L173,7.4 Z" id="Col-5-Marker"></path>
                </g>
                <g id="Y-Axis">
                    <path d="M6.7,0.9 L0.2,0.9 C-0.1,0.9 -0.3,0.7 -0.3,0.4 C-0.3,0.1 -0.1,-0.1 0.2,-0.1 L6.7,-0.1 C7,-0.1 7.2,0.1 7.2,0.4 C7.2,0.7 6.9,0.9 6.7,0.9 L6.7,0.9 Z" id="Y-Axis-Marker-7"></path>
                    <path d="M6.7,37.4 L0.2,37.4 C-0.1,37.4 -0.3,37.2 -0.3,36.9 C-0.3,36.6 -0.1,36.4 0.2,36.4 L6.7,36.4 C7,36.4 7.2,36.6 7.2,36.9 C7.2,37.2 6.9,37.4 6.7,37.4 L6.7,37.4 Z" id="Y-Axis-Marker-6"></path>
                    <path d="M6.7,73.4 L0.2,73.4 C-0.1,73.4 -0.3,73.2 -0.3,72.9 C-0.3,72.6 -0.1,72.4 0.2,72.4 L6.7,72.4 C7,72.4 7.2,72.6 7.2,72.9 C7.2,73.2 6.9,73.4 6.7,73.4 L6.7,73.4 Z" id="Y-Axis-Marker-5"></path>
                    <path d="M6.7,109.4 L0.2,109.4 C-0.1,109.4 -0.3,109.2 -0.3,108.9 C-0.3,108.6 -0.1,108.4 0.2,108.4 L6.7,108.4 C7,108.4 7.2,108.6 7.2,108.9 C7.2,109.2 6.9,109.4 6.7,109.4 L6.7,109.4 Z" id="Y-Axis-Marker-4"></path>
                    <path d="M6.7,109.4 L0.2,109.4 C-0.1,109.4 -0.3,109.2 -0.3,108.9 C-0.3,108.6 -0.1,108.4 0.2,108.4 L6.7,108.4 C7,108.4 7.2,108.6 7.2,108.9 C7.2,109.2 6.9,109.4 6.7,109.4 L6.7,109.4 Z" id="Y-Axis-Marker-3"></path>
                    <path d="M6.7,144.9 L0.2,144.9 C-0.1,144.9 -0.3,144.7 -0.3,144.4 C-0.3,144.1 -0.1,143.9 0.2,143.9 L6.7,143.9 C7,143.9 7.2,144.1 7.2,144.4 C7.2,144.7 6.9,144.9 6.7,144.9 L6.7,144.9 Z" id="Y-Axis-Marker-2"></path>
                    <path d="M6.7,180.9 L0.2,180.9 C-0.1,180.9 -0.3,180.7 -0.3,180.4 C-0.3,180.1 -0.1,179.9 0.2,179.9 L6.7,179.9 C7,179.9 7.2,180.1 7.2,180.4 C7.2,180.7 6.9,180.9 6.7,180.9 L6.7,180.9 Z" id="Y-Axis-Marker-1"></path>
                    <g id="Y-Axis-Lines" transform="translate(3.000000, 5.000000)">
                        <g 
                            <path d="M3.7,0.8 L0.5,0.8 C0.2,0.8 0,0.6 0,0.3 C0,0 0.2,-0.2 0.5,-0.2 L3.7,-0.2 C4,-0.2 4.2,0 4.2,0.3 C4.2,0.6 3.9,0.8 3.7,0.8 L3.7,0.8 Z" ></path>
                            <path d="M3.7,7.5 L0.5,7.5 C0.2,7.5 0,7.3 0,7 C0,6.7 0.2,6.5 0.5,6.5 L3.7,6.5 C4,6.5 4.2,6.7 4.2,7 C4.2,7.3 3.9,7.5 3.7,7.5 L3.7,7.5 Z" ></path>
                            <path d="M3.7,14.1 L0.5,14.1 C0.2,14.1 0,13.9 0,13.6 C0,13.3 0.2,13.1 0.5,13.1 L3.7,13.1 C4,13.1 4.2,13.3 4.2,13.6 C4.2,13.9 3.9,14.1 3.7,14.1 L3.7,14.1 Z" ></path>
                            <path d="M3.7,20.6 L0.5,20.6 C0.2,20.6 0,20.4 0,20.1 C0,19.8 0.2,19.6 0.5,19.6 L3.7,19.6 C4,19.6 4.2,19.8 4.2,20.1 C4.2,20.4 3.9,20.6 3.7,20.6 L3.7,20.6 Z" ></path>
                            <path d="M3.7,27.3 L0.5,27.3 C0.2,27.3 0,27.1 0,26.8 C0,26.5 0.2,26.3 0.5,26.3 L3.7,26.3 C4,26.3 4.2,26.5 4.2,26.8 C4.2,27.1 3.9,27.3 3.7,27.3 L3.7,27.3 Z" ></path>
                        </g>
                        <g transform="translate(0.000000, 36.000000)">
                            <path d="M3.7,1.1 L0.5,1.1 C0.2,1.1 0,0.9 0,0.6 C0,0.3 0.2,0.1 0.5,0.1 L3.7,0.1 C4,0.1 4.2,0.3 4.2,0.6 C4.2,0.9 3.9,1.1 3.7,1.1 L3.7,1.1 Z" ></path>
                            <path d="M3.7,7.8 L0.5,7.8 C0.2,7.8 0,7.6 0,7.3 C0,7 0.2,6.8 0.5,6.8 L3.7,6.8 C4,6.8 4.2,7 4.2,7.3 C4.2,7.6 3.9,7.8 3.7,7.8 L3.7,7.8 Z" ></path>
                            <path d="M3.7,14.4 L0.5,14.4 C0.2,14.4 0,14.2 0,13.9 C0,13.6 0.2,13.4 0.5,13.4 L3.7,13.4 C4,13.4 4.2,13.6 4.2,13.9 C4.2,14.2 3.9,14.4 3.7,14.4 L3.7,14.4 Z" ></path>
                            <path d="M3.7,20.9 L0.5,20.9 C0.2,20.9 0,20.7 0,20.4 C0,20.1 0.2,19.9 0.5,19.9 L3.7,19.9 C4,19.9 4.2,20.1 4.2,20.4 C4.2,20.7 3.9,20.9 3.7,20.9 L3.7,20.9 Z" ></path>
                            <path d="M3.7,27.6 L0.5,27.6 C0.2,27.6 0,27.4 0,27.1 C0,26.8 0.2,26.6 0.5,26.6 L3.7,26.6 C4,26.6 4.2,26.8 4.2,27.1 C4.2,27.4 3.9,27.6 3.7,27.6 L3.7,27.6 Z" ></path>
                        </g>
                        <g transform="translate(0.000000, 72.000000)">
                            <path d="M3.7,1.1 L0.5,1.1 C0.2,1.1 0,0.9 0,0.6 C0,0.3 0.2,0.1 0.5,0.1 L3.7,0.1 C4,0.1 4.2,0.3 4.2,0.6 C4.2,0.9 3.9,1.1 3.7,1.1 L3.7,1.1 Z" ></path>
                            <path d="M3.7,7.9 L0.5,7.9 C0.2,7.9 0,7.7 0,7.4 C0,7.1 0.2,6.9 0.5,6.9 L3.7,6.9 C4,6.9 4.2,7.1 4.2,7.4 C4.2,7.7 3.9,7.9 3.7,7.9 L3.7,7.9 Z" ></path>
                            <path d="M3.7,14.5 L0.5,14.5 C0.2,14.5 0,14.3 0,14 C0,13.7 0.2,13.5 0.5,13.5 L3.7,13.5 C4,13.5 4.2,13.7 4.2,14 C4.2,14.3 3.9,14.5 3.7,14.5 L3.7,14.5 Z" ></path>
                            <path d="M3.7,21 L0.5,21 C0.2,21 0,20.8 0,20.5 C0,20.2 0.2,20 0.5,20 L3.7,20 C4,20 4.2,20.2 4.2,20.5 C4.2,20.8 3.9,21 3.7,21 L3.7,21 Z" ></path>
                            <path d="M3.7,27.7 L0.5,27.7 C0.2,27.7 0,27.5 0,27.2 C0,26.9 0.2,26.7 0.5,26.7 L3.7,26.7 C4,26.7 4.2,26.9 4.2,27.2 C4.2,27.5 3.9,27.7 3.7,27.7 L3.7,27.7 Z" ></path>
                        </g>
                        <g transform="translate(0.000000, 108.000000)">
                            <path d="M3.7,1 L0.5,1 C0.2,1 0,0.8 0,0.5 C0,0.2 0.2,0 0.5,0 L3.7,0 C4,0 4.2,0.2 4.2,0.5 C4.2,0.8 3.9,1 3.7,1 L3.7,1 Z" ></path>
                            <path d="M3.7,7.7 L0.5,7.7 C0.2,7.7 0,7.5 0,7.2 C0,6.9 0.2,6.7 0.5,6.7 L3.7,6.7 C4,6.7 4.2,6.9 4.2,7.2 C4.2,7.5 3.9,7.7 3.7,7.7 L3.7,7.7 Z" ></path>
                            <path d="M3.7,14.4 L0.5,14.4 C0.2,14.4 0,14.2 0,13.9 C0,13.6 0.2,13.4 0.5,13.4 L3.7,13.4 C4,13.4 4.2,13.6 4.2,13.9 C4.2,14.2 3.9,14.4 3.7,14.4 L3.7,14.4 Z" ></path>
                            <path d="M3.7,20.9 L0.5,20.9 C0.2,20.9 0,20.7 0,20.4 C0,20.1 0.2,19.9 0.5,19.9 L3.7,19.9 C4,19.9 4.2,20.1 4.2,20.4 C4.2,20.7 3.9,20.9 3.7,20.9 L3.7,20.9 Z" ></path>
                            <path d="M3.7,27.5 L0.5,27.5 C0.2,27.5 0,27.3 0,27 C0,26.7 0.2,26.5 0.5,26.5 L3.7,26.5 C4,26.5 4.2,26.7 4.2,27 C4.2,27.3 3.9,27.5 3.7,27.5 L3.7,27.5 Z" ></path>
                        </g>
                        <g transform="translate(0.000000, 144.000000)">
                            <path d="M3.7,0.8 L0.5,0.8 C0.2,0.8 0,0.6 0,0.3 C0,0 0.2,-0.2 0.5,-0.2 L3.7,-0.2 C4,-0.2 4.2,0 4.2,0.3 C4.2,0.6 3.9,0.8 3.7,0.8 L3.7,0.8 Z" ></path>
                            <path d="M3.7,7.5 L0.5,7.5 C0.2,7.5 0,7.3 0,7 C0,6.7 0.2,6.5 0.5,6.5 L3.7,6.5 C4,6.5 4.2,6.7 4.2,7 C4.2,7.3 3.9,7.5 3.7,7.5 L3.7,7.5 Z" ></path>
                            <path d="M3.7,14.1 L0.5,14.1 C0.2,14.1 0,13.9 0,13.6 C0,13.3 0.2,13.1 0.5,13.1 L3.7,13.1 C4,13.1 4.2,13.3 4.2,13.6 C4.2,13.9 3.9,14.1 3.7,14.1 L3.7,14.1 Z" ></path>
                            <path d="M3.7,20.6 L0.5,20.6 C0.2,20.6 0,20.4 0,20.1 C0,19.8 0.2,19.6 0.5,19.6 L3.7,19.6 C4,19.6 4.2,19.8 4.2,20.1 C4.2,20.4 3.9,20.6 3.7,20.6 L3.7,20.6 Z" ></path>
                            <path d="M3.7,27.3 L0.5,27.3 C0.2,27.3 0,27.1 0,26.8 C0,26.5 0.2,26.3 0.5,26.3 L3.7,26.3 C4,26.3 4.2,26.5 4.2,26.8 C4.2,27.1 3.9,27.3 3.7,27.3 L3.7,27.3 Z" ></path>
                        </g>
                        <g transform="translate(0.000000, 180.000000)">
                            <path d="M3.7,1.1 L0.5,1.1 C0.2,1.1 0,0.9 0,0.6 C0,0.3 0.2,0.1 0.5,0.1 L3.7,0.1 C4,0.1 4.2,0.3 4.2,0.6 C4.2,0.9 3.9,1.1 3.7,1.1 L3.7,1.1 Z" ></path>
                            <path d="M3.7,7.8 L0.5,7.8 C0.2,7.8 0,7.6 0,7.3 C0,7 0.2,6.8 0.5,6.8 L3.7,6.8 C4,6.8 4.2,7 4.2,7.3 C4.2,7.6 3.9,7.8 3.7,7.8 L3.7,7.8 Z" ></path>
                            <path d="M3.7,14.4 L0.5,14.4 C0.2,14.4 0,14.2 0,13.9 C0,13.6 0.2,13.4 0.5,13.4 L3.7,13.4 C4,13.4 4.2,13.6 4.2,13.9 C4.2,14.2 3.9,14.4 3.7,14.4 L3.7,14.4 Z" ></path>
                            <path d="M3.7,20.9 L0.5,20.9 C0.2,20.9 0,20.7 0,20.4 C0,20.1 0.2,19.9 0.5,19.9 L3.7,19.9 C4,19.9 4.2,20.1 4.2,20.4 C4.2,20.7 3.9,20.9 3.7,20.9 L3.7,20.9 Z" ></path>
                            <path d="M3.7,27.6 L0.5,27.6 C0.2,27.6 0,27.4 0,27.1 C0,26.8 0.2,26.6 0.5,26.6 L3.7,26.6 C4,26.6 4.2,26.8 4.2,27.1 C4.2,27.4 3.9,27.6 3.7,27.6 L3.7,27.6 Z" ></path>
                        </g>
                    </g>
                    <path d="M6.7,217.9 L0.2,217.9 C-0.1,217.9 -0.3,217.7 -0.3,217.4 C-0.3,217.1 -0.1,216.9 0.2,216.9 L6.7,216.9 C7,216.9 7.2,217.1 7.2,217.4 C7.2,217.7 6.9,217.9 6.7,217.9 L6.7,217.9 Z" ></path>
                </g>
            </g>
            <g id="Line-Chart" transform="translate(22.000000, 34.000000)">
                <g id="line-chart-points">
                    <circle id="data-point-1" cx="3.3" cy="146.3" r="3.3"></circle>
                    <circle id="data-point-2" cx="47.3" cy="110.3" r="3.3"></circle>
                    <circle id="data-point-3" cx="89.3" cy="74.3" r="3.3"></circle>
                    <circle id="data-point-4" cx="132.3" cy="39.3" r="3.3"></circle>
                    <circle id="data-point-5" cx="176.3" cy="3.3" r="3.3"></circle>
                </g>
                <path id="line-chart-line" d="M2.5,147.1 C2.2,146.8 2.3,146.3 2.6,146 L2.6,146 C2.9,145.7 3.4,145.8 3.6,146.1 L3.6,146.1 C3.9,146.4 3.8,146.9 3.5,147.2 L3.5,147.2 C3.4,147.3 3.2,147.4 3,147.4 L3,147.4 C2.8,147.3 2.6,147.3 2.5,147.1 L2.5,147.1 Z M5.6,144.5 C5.3,144.2 5.4,143.7 5.7,143.5 L5.7,143.5 C6,143.2 6.5,143.3 6.8,143.6 L6.8,143.6 C7.1,143.9 7,144.4 6.7,144.7 L6.7,144.7 C6.6,144.8 6.4,144.9 6.2,144.9 L6.2,144.9 C5.9,144.8 5.7,144.7 5.6,144.5 L5.6,144.5 Z M8.6,142 C8.3,141.7 8.4,141.2 8.7,141 L8.7,141 C9,140.7 9.5,140.8 9.8,141.1 L9.8,141.1 C10.1,141.4 10,141.9 9.7,142.1 L9.7,142.1 C9.6,142.2 9.4,142.3 9.2,142.3 L9.2,142.3 C9,142.2 8.8,142.1 8.6,142 L8.6,142 Z M11.7,139.4 C11.4,139.1 11.5,138.6 11.8,138.3 L11.8,138.3 C12.1,138 12.6,138.1 12.8,138.4 L12.8,138.4 C13.1,138.7 13,139.2 12.7,139.5 L12.7,139.5 C12.6,139.6 12.4,139.7 12.2,139.7 L12.2,139.7 C12.1,139.7 11.9,139.6 11.7,139.4 L11.7,139.4 Z M14.8,136.8 C14.5,136.5 14.6,136 14.9,135.8 L14.9,135.8 C15.2,135.5 15.7,135.6 16,135.9 L16,135.9 C16.3,136.2 16.2,136.7 15.9,137 L15.9,137 C15.8,137.1 15.6,137.2 15.4,137.2 L15.4,137.2 C15.2,137.1 14.9,137 14.8,136.8 L14.8,136.8 Z M17.9,134.3 C17.6,134 17.7,133.5 18,133.3 L18,133.3 C18.3,133 18.8,133.1 19,133.4 L19,133.4 C19.3,133.7 19.2,134.2 18.9,134.4 L18.9,134.4 C18.8,134.5 18.6,134.6 18.4,134.6 L18.4,134.6 C18.2,134.6 18,134.5 17.9,134.3 L17.9,134.3 Z M20.9,131.7 C20.6,131.4 20.7,130.9 21,130.6 L21,130.6 C21.3,130.3 21.8,130.4 22.1,130.7 L22.1,130.7 C22.4,131 22.3,131.5 22,131.8 L22,131.8 C21.9,131.9 21.7,132 21.5,132 L21.5,132 C21.3,132 21.1,131.9 20.9,131.7 L20.9,131.7 Z M24,129.2 C23.7,128.9 23.8,128.4 24.1,128.1 L24.1,128.1 C24.4,127.8 24.9,127.9 25.2,128.2 L25.2,128.2 C25.5,128.5 25.4,129 25.1,129.3 L25.1,129.3 C25,129.4 24.8,129.5 24.6,129.5 L24.6,129.5 C24.4,129.4 24.2,129.4 24,129.2 L24,129.2 Z M27.1,126.6 C26.8,126.3 26.9,125.8 27.2,125.5 L27.2,125.5 C27.5,125.2 28,125.3 28.2,125.6 L28.2,125.6 C28.5,125.9 28.4,126.4 28.1,126.7 L28.1,126.7 C27.9,126.8 27.8,126.9 27.6,126.9 L27.6,126.9 C27.5,126.9 27.2,126.8 27.1,126.6 L27.1,126.6 Z M30.2,124.1 C29.9,123.8 30,123.3 30.3,123 L30.3,123 C30.6,122.7 31.1,122.8 31.4,123.1 L31.4,123.1 C31.7,123.4 31.6,123.9 31.3,124.2 L31.3,124.2 C31.2,124.3 31,124.4 30.8,124.4 L30.8,124.4 C30.5,124.3 30.3,124.2 30.2,124.1 L30.2,124.1 Z M33.2,121.5 C32.9,121.2 33,120.7 33.3,120.4 L33.3,120.4 C33.6,120.1 34.1,120.2 34.4,120.5 L34.4,120.5 C34.7,120.8 34.6,121.3 34.3,121.6 L34.3,121.6 C34.2,121.7 34,121.8 33.8,121.8 L33.8,121.8 C33.6,121.8 33.4,121.7 33.2,121.5 L33.2,121.5 Z M36.3,119 C36,118.7 36.1,118.2 36.4,117.9 L36.4,117.9 C36.7,117.6 37.2,117.7 37.4,118 L37.4,118 C37.7,118.3 37.6,118.8 37.3,119.1 L37.3,119.1 C37.2,119.2 37,119.3 36.8,119.3 L36.8,119.3 C36.7,119.2 36.5,119.1 36.3,119 L36.3,119 Z M39.4,116.4 C39.1,116.1 39.2,115.6 39.5,115.3 L39.5,115.3 C39.8,115 40.3,115.1 40.6,115.4 L40.6,115.4 C40.9,115.7 40.8,116.2 40.5,116.5 L40.5,116.5 C40.4,116.6 40.2,116.7 40,116.7 L40,116.7 C39.8,116.7 39.5,116.6 39.4,116.4 L39.4,116.4 Z M42.5,113.8 C42.2,113.5 42.3,113 42.6,112.7 L42.6,112.7 C42.9,112.4 43.4,112.5 43.6,112.8 L43.6,112.8 C43.9,113.1 43.8,113.6 43.5,113.9 L43.5,113.9 C43.4,114 43.2,114.1 43,114.1 L43,114.1 C42.8,114.1 42.6,114 42.5,113.8 L42.5,113.8 Z M45.6,111.3 C45.3,111 45.4,110.5 45.7,110.3 L45.7,110.3 C46,110 46.5,110.1 46.8,110.4 L46.8,110.4 C47.1,110.7 47,111.2 46.7,111.4 L46.7,111.4 C46.6,111.5 46.4,111.6 46.2,111.6 L46.2,111.6 C45.9,111.5 45.7,111.5 45.6,111.3 L45.6,111.3 Z M48.6,108.7 C48.3,108.4 48.4,107.9 48.7,107.6 L48.7,107.6 C49,107.3 49.5,107.4 49.8,107.7 L49.8,107.7 C50.1,108 50,108.5 49.7,108.8 L49.7,108.8 C49.6,108.9 49.4,109 49.2,109 L49.2,109 C49,109 48.8,108.9 48.6,108.7 L48.6,108.7 Z M51.7,106.2 C51.4,105.9 51.5,105.4 51.8,105.2 L51.8,105.2 C52.1,104.9 52.6,105 52.9,105.3 L52.9,105.3 C53.2,105.6 53.1,106.1 52.8,106.4 L52.8,106.4 C52.7,106.5 52.5,106.6 52.3,106.6 L52.3,106.6 C52.1,106.4 51.9,106.3 51.7,106.2 L51.7,106.2 Z M54.8,103.6 C54.5,103.3 54.6,102.8 54.9,102.6 L54.9,102.6 C55.2,102.3 55.7,102.4 56,102.7 L56,102.7 C56.3,103 56.2,103.5 55.9,103.7 L55.9,103.7 C55.8,103.8 55.6,103.9 55.4,103.9 L55.4,103.9 C55.1,103.9 54.9,103.8 54.8,103.6 L54.8,103.6 Z M57.9,101.1 C57.6,100.8 57.7,100.3 58,100 L58,100 C58.3,99.7 58.8,99.8 59,100.1 L59,100.1 C59.3,100.4 59.2,100.9 58.9,101.1 L58.9,101.1 C58.8,101.2 58.6,101.3 58.4,101.3 L58.4,101.3 C58.2,101.3 58,101.2 57.9,101.1 L57.9,101.1 Z M60.9,98.5 C60.6,98.2 60.7,97.7 61,97.4 L61,97.4 C61.3,97.1 61.8,97.2 62.1,97.5 L62.1,97.5 C62.4,97.8 62.3,98.3 62,98.6 L62,98.6 C61.9,98.7 61.7,98.8 61.5,98.8 L61.5,98.8 C61.3,98.8 61.1,98.7 60.9,98.5 L60.9,98.5 Z M64,95.9 C63.7,95.6 63.8,95.1 64.1,94.9 L64.1,94.9 C64.4,94.6 64.9,94.7 65.2,95 L65.2,95 C65.5,95.3 65.4,95.8 65.1,96 L65.1,96 C65,96.1 64.8,96.2 64.6,96.2 L64.6,96.2 C64.4,96.2 64.2,96.1 64,95.9 L64,95.9 Z M67.1,93.4 C66.8,93.1 66.9,92.6 67.2,92.3 L67.2,92.3 C67.5,92 68,92.1 68.2,92.4 L68.2,92.4 C68.5,92.7 68.4,93.2 68.1,93.4 L68.1,93.4 C68,93.5 67.8,93.6 67.6,93.6 L67.6,93.6 C67.4,93.7 67.2,93.6 67.1,93.4 L67.1,93.4 Z M70.2,90.8 C69.9,90.5 70,90 70.3,89.7 L70.3,89.7 C70.6,89.4 71.1,89.5 71.4,89.8 L71.4,89.8 C71.7,90.1 71.6,90.6 71.3,90.9 L71.3,90.9 C71.2,91 71,91.1 70.8,91.1 L70.8,91.1 C70.5,91.1 70.3,91 70.2,90.8 L70.2,90.8 Z M73.2,88.3 C72.9,88 73,87.5 73.3,87.3 L73.3,87.3 C73.6,87 74.1,87.1 74.3,87.4 L74.3,87.4 C74.6,87.7 74.5,88.2 74.2,88.5 L74.2,88.5 C74.1,88.6 73.9,88.7 73.7,88.7 L73.7,88.7 C73.6,88.5 73.4,88.4 73.2,88.3 L73.2,88.3 Z M76.3,85.7 C76,85.4 76.1,84.9 76.4,84.7 L76.4,84.7 C76.7,84.4 77.2,84.5 77.4,84.8 L77.4,84.8 C77.7,85.1 77.6,85.6 77.3,85.8 L77.3,85.8 C77.2,85.9 77,86 76.8,86 L76.8,86 C76.7,86 76.5,85.9 76.3,85.7 L76.3,85.7 Z M79.4,83.2 C79.1,82.9 79.2,82.4 79.5,82.1 L79.5,82.1 C79.8,81.8 80.3,81.9 80.6,82.2 L80.6,82.2 C80.9,82.5 80.8,83 80.5,83.3 L80.5,83.3 C80.4,83.4 80.2,83.5 80,83.5 L80,83.5 C79.8,83.4 79.5,83.3 79.4,83.2 L79.4,83.2 Z M82.5,80.6 C82.2,80.3 82.3,79.8 82.6,79.5 L82.6,79.5 C82.9,79.2 83.4,79.3 83.6,79.6 L83.6,79.6 C83.9,79.9 83.8,80.4 83.5,80.7 L83.5,80.7 C83.4,80.8 83.2,80.9 83,80.9 L83,80.9 C82.8,80.9 82.6,80.8 82.5,80.6 L82.5,80.6 Z M85.5,78 C85.2,77.7 85.3,77.2 85.6,77 L85.6,77 C85.9,76.7 86.4,76.8 86.7,77.1 L86.7,77.1 C87,77.4 86.9,77.9 86.6,78.2 L86.6,78.2 C86.5,78.3 86.3,78.4 86.1,78.4 L86.1,78.4 C85.9,78.3 85.7,78.2 85.5,78 L85.5,78 Z M88.6,75.5 C88.3,75.2 88.4,74.7 88.7,74.4 L88.7,74.4 C89,74.1 89.5,74.2 89.7,74.5 L89.7,74.5 C90,74.8 89.9,75.3 89.6,75.5 L89.6,75.5 C89.5,75.6 89.3,75.7 89.1,75.7 L89.1,75.7 C89,75.8 88.8,75.7 88.6,75.5 L88.6,75.5 Z M91.7,72.9 C91.4,72.6 91.5,72.1 91.8,71.8 L91.8,71.8 C92.1,71.5 92.6,71.6 92.8,71.9 L92.8,71.9 C93.1,72.2 93,72.7 92.7,73 L92.7,73 C92.6,73.1 92.4,73.2 92.2,73.2 L92.2,73.2 C92.1,73.2 91.8,73.1 91.7,72.9 L91.7,72.9 Z M94.8,70.4 C94.5,70.1 94.6,69.6 94.9,69.4 L94.9,69.4 C95.2,69.1 95.7,69.2 96,69.5 L96,69.5 C96.3,69.8 96.2,70.3 95.9,70.6 L95.9,70.6 C95.8,70.7 95.6,70.8 95.4,70.8 L95.4,70.8 C95.1,70.6 94.9,70.5 94.8,70.4 L94.8,70.4 Z M97.8,67.8 C97.5,67.5 97.6,67 97.9,66.7 L97.9,66.7 C98.2,66.4 98.7,66.5 98.9,66.8 L98.9,66.8 C99.2,67.1 99.1,67.6 98.8,67.8 L98.8,67.8 C98.7,67.9 98.5,68 98.3,68 L98.3,68 C98.2,68.1 98,68 97.8,67.8 L97.8,67.8 Z M100.9,65.3 C100.6,65 100.7,64.5 101,64.2 L101,64.2 C101.3,63.9 101.8,64 102.1,64.3 L102.1,64.3 C102.4,64.6 102.3,65.1 102,65.4 L102,65.4 C101.9,65.5 101.7,65.6 101.5,65.6 L101.5,65.6 C101.3,65.5 101.1,65.4 100.9,65.3 L100.9,65.3 Z M104,62.7 C103.7,62.4 103.8,61.9 104.1,61.7 L104.1,61.7 C104.4,61.4 104.9,61.5 105.2,61.8 L105.2,61.8 C105.5,62.1 105.4,62.6 105.1,62.9 L105.1,62.9 C105,63 104.8,63.1 104.6,63.1 L104.6,63.1 C104.4,63 104.1,62.9 104,62.7 L104,62.7 Z M107.1,60.1 C106.8,59.8 106.9,59.3 107.2,59 L107.2,59 C107.5,58.7 108,58.8 108.2,59.1 L108.2,59.1 C108.5,59.4 108.4,59.9 108.1,60.1 L108.1,60.1 C108,60.2 107.8,60.3 107.6,60.3 L107.6,60.3 C107.4,60.4 107.2,60.3 107.1,60.1 L107.1,60.1 Z M110.1,57.6 C109.8,57.3 109.9,56.8 110.2,56.5 L110.2,56.5 C110.5,56.2 111,56.3 111.3,56.6 L111.3,56.6 C111.6,56.9 111.5,57.4 111.2,57.7 L111.2,57.7 C111.1,57.8 110.9,57.9 110.7,57.9 L110.7,57.9 C110.5,57.9 110.3,57.8 110.1,57.6 L110.1,57.6 Z M113.2,55 C112.9,54.7 113,54.2 113.3,54 L113.3,54 C113.6,53.7 114.1,53.8 114.3,54.1 L114.3,54.1 C114.6,54.4 114.5,54.9 114.2,55.1 L114.2,55.1 C114,55.2 113.9,55.3 113.7,55.3 L113.7,55.3 C113.6,55.3 113.4,55.2 113.2,55 L113.2,55 Z M116.3,52.5 C116,52.2 116.1,51.7 116.4,51.4 L116.4,51.4 C116.7,51.1 117.2,51.2 117.5,51.5 L117.5,51.5 C117.8,51.8 117.7,52.3 117.4,52.5 L117.4,52.5 C117.3,52.6 117.1,52.7 116.9,52.7 L116.9,52.7 C116.7,52.7 116.4,52.6 116.3,52.5 L116.3,52.5 Z M119.4,49.9 C119.1,49.6 119.2,49.1 119.5,48.8 L119.5,48.8 C119.8,48.5 120.3,48.6 120.6,48.9 L120.6,48.9 C120.9,49.2 120.8,49.7 120.5,50 L120.5,50 C120.4,50.1 120.2,50.2 120,50.2 L120,50.2 C119.7,50.2 119.5,50.1 119.4,49.9 L119.4,49.9 Z M122.5,47.4 C122.2,47.1 122.3,46.6 122.6,46.4 L122.6,46.4 C122.9,46.1 123.4,46.2 123.7,46.5 L123.7,46.5 C124,46.8 123.9,47.3 123.6,47.6 L123.6,47.6 C123.5,47.7 123.3,47.8 123.1,47.8 L123.1,47.8 C122.8,47.6 122.6,47.5 122.5,47.4 L122.5,47.4 Z M125.5,44.8 C125.2,44.5 125.3,44 125.6,43.7 L125.6,43.7 C125.9,43.4 126.4,43.5 126.7,43.8 L126.7,43.8 C127,44.1 126.9,44.6 126.6,44.8 L126.6,44.8 C126.5,44.9 126.3,45 126.1,45 L126.1,45 C125.9,45.1 125.7,45 125.5,44.8 L125.5,44.8 Z M128.6,42.2 C128.3,41.9 128.4,41.4 128.7,41.1 L128.7,41.1 C129,40.8 129.5,40.9 129.7,41.2 L129.7,41.2 C130,41.5 129.9,42 129.6,42.3 L129.6,42.3 C129.5,42.4 129.3,42.5 129.1,42.5 L129.1,42.5 C129,42.5 128.8,42.4 128.6,42.2 L128.6,42.2 Z M131.7,39.7 C131.4,39.4 131.5,38.9 131.8,38.7 L131.8,38.7 C132.1,38.4 132.6,38.5 132.9,38.8 L132.9,38.8 C133.2,39.1 133.1,39.6 132.8,39.9 L132.8,39.9 C132.7,40 132.5,40.1 132.3,40.1 L132.3,40.1 C132,40 131.8,39.9 131.7,39.7 L131.7,39.7 Z M134.8,37.1 C134.5,36.8 134.6,36.3 134.9,36.1 L134.9,36.1 C135.2,35.8 135.7,35.9 135.9,36.2 L135.9,36.2 C136.2,36.5 136.1,37 135.8,37.2 L135.8,37.2 C135.7,37.3 135.5,37.4 135.3,37.4 L135.3,37.4 C135.1,37.4 134.9,37.3 134.8,37.1 L134.8,37.1 Z M137.8,34.6 C137.5,34.3 137.6,33.8 137.9,33.5 L137.9,33.5 C138.2,33.2 138.7,33.3 138.9,33.6 L138.9,33.6 C139.2,33.9 139.1,34.4 138.8,34.7 L138.8,34.7 C138.7,34.8 138.5,34.9 138.3,34.9 L138.3,34.9 C138.2,34.8 138,34.8 137.8,34.6 L137.8,34.6 Z M140.9,32 C140.6,31.7 140.7,31.2 141,30.9 L141,30.9 C141.3,30.6 141.8,30.7 142.1,31 L142.1,31 C142.4,31.3 142.3,31.8 142,32.1 L142,32.1 C141.9,32.2 141.7,32.3 141.5,32.3 L141.5,32.3 C141.3,32.3 141.1,32.2 140.9,32 L140.9,32 Z M144,29.5 C143.7,29.2 143.8,28.7 144.1,28.5 L144.1,28.5 C144.4,28.2 144.9,28.3 145.1,28.6 L145.1,28.6 C145.4,28.9 145.3,29.4 145,29.6 L145,29.6 C144.9,29.7 144.7,29.8 144.5,29.8 L144.5,29.8 C144.3,29.7 144.1,29.6 144,29.5 L144,29.5 Z M147.1,26.9 C146.8,26.6 146.9,26.1 147.2,25.8 L147.2,25.8 C147.5,25.5 148,25.6 148.3,25.9 L148.3,25.9 C148.6,26.2 148.5,26.7 148.2,26.9 L148.2,26.9 C148.1,27 147.9,27.1 147.7,27.1 L147.7,27.1 C147.4,27.2 147.2,27.1 147.1,26.9 L147.1,26.9 Z M150.1,24.3 C149.8,24 149.9,23.5 150.2,23.2 L150.2,23.2 C150.5,22.9 151,23 151.3,23.3 L151.3,23.3 C151.6,23.6 151.5,24.1 151.2,24.4 L151.2,24.4 C151.1,24.5 150.9,24.6 150.7,24.6 L150.7,24.6 C150.5,24.6 150.3,24.5 150.1,24.3 L150.1,24.3 Z M153.2,21.8 C152.9,21.5 153,21 153.3,20.8 L153.3,20.8 C153.6,20.5 154.1,20.6 154.3,20.9 L154.3,20.9 C154.6,21.2 154.5,21.7 154.2,22 L154.2,22 C154.1,22.1 153.9,22.2 153.7,22.2 L153.7,22.2 C153.6,22.1 153.4,22 153.2,21.8 L153.2,21.8 Z M156.3,19.2 C156,18.9 156.1,18.4 156.4,18.1 L156.4,18.1 C156.7,17.8 157.2,17.9 157.5,18.2 L157.5,18.2 C157.8,18.5 157.7,19 157.4,19.2 L157.4,19.2 C157.3,19.3 157.1,19.4 156.9,19.4 L156.9,19.4 C156.7,19.5 156.4,19.4 156.3,19.2 L156.3,19.2 Z M159.4,16.7 C159.1,16.4 159.2,15.9 159.5,15.6 L159.5,15.6 C159.8,15.3 160.3,15.4 160.6,15.7 L160.6,15.7 C160.9,16 160.8,16.5 160.5,16.8 L160.5,16.8 C160.4,16.9 160.2,17 160,17 L160,17 C159.7,16.9 159.5,16.9 159.4,16.7 L159.4,16.7 Z M162.4,14.1 C162.1,13.8 162.2,13.3 162.5,13.1 L162.5,13.1 C162.8,12.8 163.3,12.9 163.5,13.2 L163.5,13.2 C163.8,13.5 163.7,14 163.4,14.3 L163.4,14.3 C163.3,14.4 163.1,14.5 162.9,14.5 L162.9,14.5 C162.8,14.4 162.6,14.3 162.4,14.1 L162.4,14.1 Z M165.5,11.6 C165.2,11.3 165.3,10.8 165.6,10.5 L165.6,10.5 C165.9,10.2 166.4,10.3 166.7,10.6 L166.7,10.6 C167,10.9 166.9,11.4 166.6,11.6 L166.6,11.6 C166.5,11.7 166.3,11.8 166.1,11.8 L166.1,11.8 C165.9,11.8 165.7,11.7 165.5,11.6 L165.5,11.6 Z M168.6,9 C168.3,8.7 168.4,8.2 168.7,7.9 L168.7,7.9 C169,7.6 169.5,7.7 169.7,8 L169.7,8 C170,8.3 169.9,8.8 169.6,9.1 L169.6,9.1 C169.5,9.2 169.3,9.3 169.1,9.3 L169.1,9.3 C169,9.3 168.7,9.2 168.6,9 L168.6,9 Z M171.7,6.4 C171.4,6.1 171.5,5.6 171.8,5.3 L171.8,5.3 C172.1,5 172.6,5.1 172.9,5.4 L172.9,5.4 C173.2,5.7 173.1,6.2 172.8,6.5 L172.8,6.5 C172.7,6.6 172.5,6.7 172.3,6.7 L172.3,6.7 C172,6.7 171.8,6.6 171.7,6.4 L171.7,6.4 Z M174.7,3.9 C174.4,3.6 174.5,3.1 174.8,2.9 L174.8,2.9 C175.1,2.6 175.6,2.7 175.9,3 L175.9,3 C176.2,3.3 176.1,3.8 175.8,4 L175.8,4 C175.7,4.1 175.5,4.2 175.3,4.2 L175.3,4.2 C175.1,4.2 174.9,4.1 174.7,3.9 L174.7,3.9 Z"></path>
            </g>
            <g id="Data-Columns" transform="translate(16.000000, 51.000000) scale(1,-1) ">
                <rect id="bar-1"   width="18" height="28" x="0" y="-166" fill="none" stroke="#FFF"></rect>
                <!-- <rect id="bar-1" transform="scale(1,-1)" width="18" height="28" x="-1" y="-138" fill="none" stroke="#FFF"></rect> -->
                <rect id="bar-2"  width="18" height="60" x="44" y="-166" fill="none" stroke="#FFF"></rect>
                <rect id="bar-3"  width="18" height="94" x="86" y="-166" fill="none" stroke="#FFF"></rect>
                <rect id="bar-4"  width="18" height="131" x="130"y="-166" fill="none" stroke="#FFF"></rect>
                <rect id="bar-5"  width="18" height="166" x="173" y="-166" fill="none" stroke="#FFF"></rect>
            </g>
        </g>
</svg>