<?xml version="1.0" encoding="UTF-8" standalone="no"?>
<svg id="devices-svg" width="450px" height="240px" viewBox="0 0 450 240"   version="1.1" xmlns="http://www.w3.org/2000/svg" xmlns:xlink="http://www.w3.org/1999/xlink">
    <title>devices</title>
    <desc>Created with Sketch.</desc>
    <defs></defs>
    
    <g id="devices"  transform="translate(0.000000, 1.000000)">
        <g id="laptop" transform="translate(74.000000, 0.000000)" >
                <g id="binary" transform="translate(20.000000, 0.000000)" style="font-size:9px; font-family:'Courier', monospace;"  >
                    <text id="binary-text" fill="#FFFFFF" >
                       <tspan x="25" y="37">01001100011011110111001001100</tspan>
                       <tspan x="25" y="48">10101101101001000000110100101</tspan>
                       <tspan x="25" y="59">11000001110011011101010110110</tspan>
                       <tspan x="25" y="70">10010000001100100011011110110</tspan>
                       <tspan x="25" y="81">11000110111101110010001000000</tspan>
                       <tspan x="25" y="92">11100110110100101110100001000</tspan>
                       <tspan x="25" y="103">00011000010110110101100101011</tspan>
                       <tspan x="25" y="114">10100001011000010000001100011</tspan>
                       <tspan x="25" y="125">01101111011011100111001101100</tspan>
                    </text>
                </g>
                <path d="M58.7,171.8 L58.7,138.3 L212.9,138.3 L212.9,21.1 L38.5,21.1 L38.5,57.2 L37.5,57.2 L37.5,20.1 L214,20.1 L214,139.3 L58.6999985,139.300003 L58.6999985,170.800003 L252.2,170.8 C256.7,170.8 260.4,166.8 260.4,161.8 L260.4,150.7 L230.9,150.7 L230.9,10.5 C230.9,5.6 227.2,1.5 222.7,1.5 L28.8,1.5 C24.3,1.5 20.6,5.5 20.6,10.5 L20.6,57.1 L19.6,57.1 L19.6,10.5 C19.6,5 23.7,0.5 28.8,0.5 L222.7,0.5 C227.8,0.5 231.9,5 231.9,10.5 L231.9,149.7 L261.4,149.7 L261.4,161.8 C261.4,167.3 257.3,171.8 252.2,171.8 L58.7,171.8 Z M144.5,154.8 L107.8,154.8 L107.8,147.7 L144.5,147.7 L144.5,154.8 L144.5,154.8 Z M108.8,153.8 L143.5,153.8 L143.5,148.7 L108.8,148.7 L108.8,153.8 L108.8,153.8 Z" id="laptop-body" fill="#FFFFFF" ></path>
            
             </g>
        </g>
        <g id="tablet" transform="translate(19.000000, 57.000000)" >
            <path d="M7.99358987,0 C3.57885209,0 0,3.57275914 0,7.99915021 L0,71.1784668 C0,72.2808701 6.95580566e-08,73.8444226 6.95580566e-08,73.8444226 C9.12630691e-08,74.396201 0.455349984,74.8435059 0.993380191,74.8435059 L14.9946289,74.8435059 C16.1830476,74.8435059 18.2705078,74.8852539 18.9604492,75.2116699 C19.6503906,75.5380859 21.2274582,76.3494384 21.7524414,76.8508301 C22.6325684,77.6914062 23.0995945,78.4634205 23.3408203,79.0031738 C23.9355348,80.3338734 23.9475098,80.253418 23.9475098,83.911377 L23.9475098,95.0307617 L23.9475098,112.443359 C23.931168,112.459532 23.9475098,112.443359 23.9475098,112.443359 C24.0870641,116.175866 23.9475098,121.408203 23.9475098,121.408203 L23.9475098,121.408203 L23.9475098,137 L27.470459,137 L32.9985352,137 L105.997152,137 C110.417003,137 114,133.423508 114,128.991886 L114,8.00811356 C114,3.58535456 110.415789,0 106.00641,0 L7.99358987,0 Z" id="tablet-body" fill="#06c7de" stroke="#FFFFFF"></path>
            <path d="M15,12.0261438 L15,74.0920427 C15,74.5205095 17.4572754,74.0920427 18.8300781,74.8537614 C19.0061201,74.9514408 19.9866279,75.1279014 20.9970703,75.7983415 C21.7621876,76.3060056 22.7375567,77.1753691 23.2104492,77.9814432 C23.2762497,78.0936042 23.7303394,79.058205 23.8122559,79.2060525 C23.9893934,79.5257606 24.1555596,79.8280086 24.2543945,80.1691873 C24.5418231,81.1613926 24.5136719,82.2692392 24.5136719,83.6464822 C24.5136719,85.7163064 24.2543945,88.8374315 24.2543945,91.8608377 L24.2543945,100.260496 C24.2543945,102.116219 24.5136719,108.687742 24.5136719,114.508054 L24.5136719,123.59741 L100,123.267974 L100,12.0261438 L15,12.0261438 Z" id="tablet-screen" fill="#06c7de" stroke="#FFFFFF"></path>

            <g id="tablet-content">
                <g id="tablet-content-1" transform="translate(25.000000, 24.000000)" fill="#FFFFFF">
                    <path d="M58.4,9.8 C56.8,9.8 55.5,8.5 55.5,6.9 C55.5,5.3 56.8,4 58.4,4 C60,4 61.3,5.3 61.3,6.9 C61.3,8.5 60,9.8 58.4,9.8 L58.4,9.8 Z M58.4,4.3 C57,4.3 55.8,5.5 55.8,6.9 C55.8,8.3 57,9.5 58.4,9.5 C59.8,9.5 61,8.3 61,6.9 C61,5.5 59.9,4.3 58.4,4.3 L58.4,4.3 Z" id="Shape"></path>
                    <path d="M59,23 C57.4,23 56.1,21.7 56.1,20.1 C56.1,18.5 57.4,17.2 59,17.2 C60.6,17.2 61.9,18.5 61.9,20.1 C61.8,21.7 60.6,23 59,23 L59,23 Z M59,17.5 C57.6,17.5 56.4,18.7 56.4,20.1 C56.4,21.5 57.6,22.7 59,22.7 C60.4,22.7 61.6,21.5 61.6,20.1 C61.6,18.7 60.4,17.5 59,17.5 L59,17.5 Z" id="Shape"></path>
                    <path d="M55.7,38.1 C54.1,38.1 52.8,36.8 52.8,35.2 C52.8,33.6 54.1,32.3 55.7,32.3 C57.3,32.3 58.6,33.6 58.6,35.2 C58.6,36.8 57.3,38.1 55.7,38.1 L55.7,38.1 Z M55.7,32.7 C54.3,32.7 53.1,33.9 53.1,35.3 C53.1,36.7 54.3,37.9 55.7,37.9 C57.1,37.9 58.3,36.7 58.3,35.3 C58.3,33.9 57.1,32.7 55.7,32.7 L55.7,32.7 Z" id="Shape"></path>
                    <path d="M17.6,34.9 C16,34.9 14.7,33.6 14.7,32 C14.7,30.4 16,29.1 17.6,29.1 C19.2,29.1 20.5,30.4 20.5,32 C20.5,33.6 19.2,34.9 17.6,34.9 L17.6,34.9 Z M17.6,29.5 C16.2,29.5 15,30.7 15,32.1 C15,33.5 16.2,34.7 17.6,34.7 C19,34.7 20.2,33.5 20.2,32.1 C20.2,30.6 19,29.5 17.6,29.5 L17.6,29.5 Z" id="Shape"></path>
                    <path d="M34.4,22.4 C32.8,22.4 31.5,21.1 31.5,19.5 C31.5,17.9 32.8,16.6 34.4,16.6 C36,16.6 37.3,17.9 37.3,19.5 C37.3,21.1 36,22.4 34.4,22.4 L34.4,22.4 Z M34.4,17 C33,17 31.8,18.2 31.8,19.6 C31.8,21 33,22.2 34.4,22.2 C35.8,22.2 37,21 37,19.6 C37,18.1 35.8,17 34.4,17 L34.4,17 Z" id="Shape"></path>
                    <path d="M6.6,14.1 C5,14.1 3.7,12.8 3.7,11.2 C3.7,9.6 5,8.3 6.6,8.3 C8.2,8.3 9.5,9.6 9.5,11.2 C9.4,12.8 8.2,14.1 6.6,14.1 L6.6,14.1 Z M6.6,8.7 C5.2,8.7 4,9.9 4,11.3 C4,12.7 5.2,13.9 6.6,13.9 C8,13.9 9.2,12.7 9.2,11.3 C9.2,9.8 8,8.7 6.6,8.7 L6.6,8.7 Z" id="Shape"></path>
                    <path id="Shape" d="M6.6,11 L6.4,11 L6.4,11 C6.3,11 6.3,10.9 6.3,10.9 C6.3,10.8 6.3,10.8 6.4,10.8 L6.6,10.7 L6.7,10.7 L6.7,10.7 C6.8,10.7 6.8,10.8 6.8,10.8 L6.8,12.1 C6.8,12.2 6.7,12.2 6.7,12.2 C6.6,12.2 6.6,12.1 6.6,12.1 L6.6,11 L6.6,11 Z"></path>
                    <path d="M33.9,20.3 C33.9,20.2 33.8,20.2 33.9,20.3 C33.9,20.1 33.9,20.1 34,20.1 L34.1,20.1 C34.2,20.2 34.3,20.2 34.5,20.2 C34.7,20.2 34.8,20.1 34.8,20 L34.8,20 C34.8,19.8 34.7,19.8 34.4,19.8 L34.3,19.8 C34.2,19.8 34.2,19.7 34.2,19.7 C34.2,19.7 34.2,19.6 34.3,19.6 L34.7,19.2 L34,19.2 C33.9,19.2 33.9,19.1 33.9,19.1 C33.9,19 34,19 34,19 L34.8,19 C34.9,19 34.9,19 34.9,19.1 C34.9,19.2 34.9,19.2 34.8,19.2 L34.4,19.6 C34.6,19.6 34.9,19.7 34.9,20 L34.9,20 C34.9,20.3 34.7,20.5 34.4,20.5 C34.2,20.5 34,20.4 33.9,20.3 L33.9,20.3 Z" id="Shape"></path>
                    <path d="M17.1,32.3 L17.6,31.9 C17.8,31.7 17.9,31.6 17.9,31.5 C17.9,31.3 17.8,31.3 17.6,31.3 C17.5,31.3 17.4,31.4 17.3,31.5 L17.2,31.5 C17.1,31.5 17.1,31.4 17.1,31.4 L17.1,31.3 C17.2,31.1 17.4,31 17.6,31 C17.9,31 18.1,31.2 18.1,31.5 L18.1,31.5 C18.1,31.7 18,31.9 17.7,32.1 L17.4,32.4 L18,32.4 C18.1,32.4 18.1,32.5 18.1,32.5 C18.1,32.6 18,32.6 18,32.6 L17.1,32.6 C17,32.6 17,32.6 17,32.5 C17,32.3 17,32.3 17.1,32.3 L17.1,32.3 Z" id="Shape"></path>
                    <path d="M55.9,35.8 L55.2,35.8 C55.1,35.8 55.1,35.7 55.1,35.7 C55.1,35.6 55.1,35.6 55.2,35.6 L55.9,34.7 C55.9,34.6 56,34.6 56.1,34.6 C56.2,34.6 56.2,34.7 56.2,34.7 L56.2,35.6 L56.3,35.6 C56.4,35.6 56.4,35.7 56.4,35.7 C56.4,35.8 56.4,35.8 56.3,35.8 L56.2,35.8 L56.2,36 C56.2,36.1 56.1,36.1 56.1,36.1 L56,36 L56,35.8 L55.9,35.8 Z M55.9,35.6 L55.9,35 L55.4,35.6 L55.9,35.6 L55.9,35.6 Z" id="Shape"></path>
                    <path d="M58.5,20.7 L58.4,20.6 C58.4,20.5 58.5,20.5 58.5,20.5 L58.6,20.5 C58.7,20.6 58.8,20.6 58.9,20.6 C59.1,20.6 59.2,20.5 59.2,20.3 L59.2,20.3 C59.2,20.1 59.1,20 58.9,20 C58.7,20 58.7,20.1 58.6,20.1 C58.6,20.1 58.5,20.1 58.5,20 L58.4,19.9 L58.4,19.3 C58.4,19.2 58.5,19.2 58.5,19.2 L59.2,19.2 C59.3,19.2 59.3,19.3 59.3,19.3 C59.3,19.4 59.2,19.4 59.2,19.4 L58.6,19.4 L58.6,19.8 L58.8,19.8 C59.1,19.8 59.3,20 59.3,20.3 L59.3,20.3 C59.3,20.6 59.1,20.8 58.7,20.8 C58.8,20.9 58.6,20.8 58.5,20.7 L58.5,20.7 Z" id="Shape"></path>
                    <path d="M58.1,7.5 C58,7.4 57.9,7.2 57.9,6.9 L57.9,6.9 C57.9,6.4 58.1,6 58.6,6 C58.8,6 58.9,6 59,6.1 L59.1,6.2 C59.1,6.3 59,6.3 59,6.3 C59,6.3 59,6.3 58.9,6.3 C58.8,6.2 58.7,6.2 58.6,6.2 C58.4,6.2 58.2,6.4 58.2,6.7 C58.3,6.6 58.4,6.5 58.6,6.5 C58.9,6.5 59.1,6.7 59.1,7 L59.1,7 C59.1,7.3 58.8,7.5 58.5,7.5 C58.3,7.7 58.2,7.6 58.1,7.5 L58.1,7.5 Z M58.8,7.1 L58.8,7.1 C58.8,6.9 58.7,6.8 58.5,6.8 C58.3,6.8 58.2,6.9 58.2,7.1 L58.2,7.1 C58.2,7.3 58.3,7.4 58.5,7.4 C58.7,7.4 58.8,7.3 58.8,7.1 L58.8,7.1 Z" id="Shape"></path>
                    <path d="M35.9,16.6 C35.9,16.5 36,16.4 36.1,16.4 L36.1,16.4 C36.2,16.4 36.3,16.5 36.3,16.6 L36.3,16.6 C36.3,16.7 36.2,16.8 36.1,16.8 L36.1,16.8 C36,16.8 35.9,16.7 35.9,16.6 L35.9,16.6 Z M36.2,15.7 C36.1,15.7 36,15.6 36,15.4 L36,15.4 C36,15.3 36.1,15.2 36.3,15.2 L36.3,15.2 C36.4,15.2 36.5,15.3 36.5,15.5 L36.5,15.5 C36.4,15.6 36.3,15.7 36.2,15.7 L36.2,15.7 L36.2,15.7 L36.2,15.7 Z M36.5,14.6 C36.4,14.6 36.3,14.4 36.4,14.3 L36.4,14.3 C36.4,14.2 36.6,14.1 36.7,14.2 L36.7,14.2 C36.8,14.2 36.9,14.4 36.8,14.5 L36.8,14.5 C36.7,14.6 36.6,14.6 36.5,14.6 L36.5,14.6 L36.5,14.6 L36.5,14.6 Z M36.9,13.6 C36.8,13.5 36.8,13.4 36.8,13.3 L36.8,13.3 C36.9,13.2 37,13.2 37.1,13.2 L37.1,13.2 C37.2,13.3 37.2,13.4 37.2,13.5 L37.2,13.5 C37.2,13.6 37.1,13.6 37,13.6 L37,13.6 L36.9,13.6 L36.9,13.6 Z M37.6,12.6 C37.5,12.5 37.5,12.4 37.6,12.3 L37.6,12.3 L37.6,12.3 L37.6,12.3 C37.7,12.2 37.8,12.2 37.9,12.3 L37.9,12.3 C38,12.4 38,12.5 37.9,12.6 L37.9,12.6 C37.9,12.7 37.8,12.7 37.7,12.7 L37.7,12.7 C37.7,12.7 37.6,12.7 37.6,12.6 L37.6,12.6 Z M38.3,11.8 C38.2,11.7 38.2,11.6 38.3,11.5 L38.3,11.5 C38.4,11.4 38.5,11.4 38.6,11.5 L38.6,11.5 C38.7,11.6 38.7,11.7 38.6,11.8 L38.6,11.8 L38.5,11.9 L38.5,11.9 C38.4,11.8 38.4,11.8 38.3,11.8 L38.3,11.8 Z M39.2,11 C39.1,10.9 39.1,10.8 39.2,10.7 L39.2,10.7 C39.3,10.6 39.4,10.6 39.5,10.7 L39.5,10.7 C39.6,10.8 39.6,10.9 39.5,11 L39.5,11 L39.4,11 L39.4,11 C39.3,11.1 39.2,11.1 39.2,11 L39.2,11 Z M40.1,10.3 C40,10.2 40.1,10.1 40.2,10 L40.2,10 C40.3,9.9 40.4,10 40.5,10.1 L40.5,10.1 C40.6,10.2 40.5,10.3 40.4,10.4 L40.4,10.4 L40.3,10.4 L40.3,10.4 C40.2,10.4 40.2,10.4 40.1,10.3 L40.1,10.3 Z M41.1,9.7 C41,9.6 41.1,9.5 41.2,9.4 L41.2,9.4 C41.3,9.3 41.4,9.4 41.5,9.5 L41.5,9.5 C41.6,9.6 41.5,9.7 41.4,9.8 L41.4,9.8 L41.3,9.8 L41.3,9.8 C41.2,9.8 41.1,9.8 41.1,9.7 L41.1,9.7 Z M42.1,9.2 C42,9.1 42.1,9 42.2,8.9 L42.2,8.9 C42.3,8.8 42.4,8.9 42.5,9 L42.5,9 C42.5,9.1 42.5,9.2 42.4,9.3 L42.4,9.3 L42.3,9.3 L42.3,9.3 C42.2,9.3 42.1,9.3 42.1,9.2 L42.1,9.2 Z M43.1,8.7 C43.1,8.6 43.1,8.5 43.2,8.4 L43.2,8.4 L43.2,8.4 L43.2,8.4 C43.3,8.4 43.4,8.4 43.5,8.5 L43.5,8.5 C43.5,8.6 43.5,8.7 43.4,8.8 L43.4,8.8 L43.3,8.8 L43.3,8.8 C43.2,8.9 43.2,8.8 43.1,8.7 L43.1,8.7 Z M44.2,8.3 C44.2,8.2 44.2,8.1 44.3,8 L44.3,8 C44.4,8 44.5,8 44.6,8.1 L44.6,8.1 C44.6,8.2 44.6,8.3 44.5,8.4 L44.5,8.4 C44.5,8.4 44.5,8.4 44.4,8.4 L44.4,8.4 C44.3,8.5 44.2,8.4 44.2,8.3 L44.2,8.3 Z M45.3,8 C45.3,7.9 45.3,7.8 45.4,7.7 L45.4,7.7 C45.5,7.7 45.6,7.7 45.7,7.8 L45.7,7.8 C45.7,7.9 45.7,8 45.6,8.1 L45.6,8.1 C45.6,8.1 45.6,8.1 45.5,8.1 L45.5,8.1 C45.4,8.1 45.3,8.1 45.3,8 L45.3,8 Z M46.4,7.7 C46.4,7.6 46.4,7.5 46.6,7.4 L46.6,7.4 C46.7,7.4 46.8,7.4 46.9,7.6 L46.9,7.6 C46.9,7.7 46.9,7.8 46.7,7.9 L46.7,7.9 L46.7,7.9 L46.7,7.9 C46.5,7.8 46.4,7.8 46.4,7.7 L46.4,7.7 Z M47.5,7.4 C47.5,7.3 47.6,7.2 47.7,7.2 L47.7,7.2 C47.8,7.2 47.9,7.3 48,7.4 L48,7.4 C48,7.5 47.9,7.6 47.8,7.7 L47.8,7.7 L47.8,7.7 L47.8,7.7 C47.6,7.6 47.5,7.5 47.5,7.4 L47.5,7.4 Z M48.6,7.2 C48.6,7.1 48.7,7 48.8,7 L48.8,7 C48.9,7 49,7.1 49,7.2 L49,7.2 C49,7.3 48.9,7.4 48.8,7.4 L48.8,7.4 L48.8,7.4 L48.8,7.4 C48.7,7.4 48.6,7.3 48.6,7.2 L48.6,7.2 Z M49.8,7.1 C49.8,7 49.9,6.9 50,6.9 L50,6.9 C50.1,6.9 50.2,7 50.2,7.1 L50.2,7.1 C50.2,7.2 50.1,7.3 50,7.3 L50,7.3 L50,7.3 L50,7.3 C49.9,7.3 49.8,7.2 49.8,7.1 L49.8,7.1 Z M50.9,7 C50.9,6.9 51,6.8 51.1,6.8 L51.1,6.8 L51.1,6.8 L51.1,6.8 C51.2,6.8 51.3,6.9 51.3,7 L51.3,7 C51.3,7.1 51.2,7.2 51.1,7.2 L51.1,7.2 L51.1,7.2 L51.1,7.2 C51,7.2 50.9,7.1 50.9,7 L50.9,7 Z M52,6.9 C52,6.8 52.1,6.7 52.2,6.7 L52.2,6.7 C52.3,6.7 52.4,6.8 52.4,6.9 L52.4,6.9 C52.4,7 52.3,7.1 52.2,7.1 L52.2,7.1 L52.2,7.1 L52.2,7.1 C52.1,7.1 52,7 52,6.9 L52,6.9 Z" id="Shape"></path>
                    <path id="Shape"></path>
                    <path d="M50.2,34.8 C50.1,34.8 50,34.7 50,34.6 L50,34.6 C50,34.5 50.1,34.4 50.2,34.4 L50.2,34.4 C50.3,34.4 50.4,34.5 50.4,34.6 L50.4,34.6 C50.4,34.7 50.3,34.8 50.2,34.8 L50.2,34.8 L50.2,34.8 L50.2,34.8 Z M49,34.7 L49,34.7 C48.9,34.7 48.8,34.6 48.8,34.5 L48.8,34.5 C48.8,34.4 48.9,34.3 49,34.3 L49,34.3 C49.1,34.3 49.2,34.4 49.2,34.5 L49.2,34.5 C49.3,34.7 49.2,34.7 49,34.7 L49,34.7 L49,34.7 L49,34.7 Z M47.9,34.6 C47.8,34.6 47.7,34.5 47.7,34.4 L47.7,34.4 C47.7,34.3 47.8,34.2 47.9,34.2 L47.9,34.2 C48,34.2 48.1,34.3 48.1,34.4 L48.1,34.4 C48.1,34.5 48,34.6 47.9,34.6 L47.9,34.6 L47.9,34.6 L47.9,34.6 Z M46.8,34.4 C46.7,34.4 46.6,34.3 46.6,34.1 L46.6,34.1 C46.6,34 46.7,33.9 46.9,33.9 L46.9,33.9 C47,33.9 47.1,34 47.1,34.2 L47.1,34.2 C47,34.3 46.9,34.4 46.8,34.4 L46.8,34.4 L46.8,34.4 L46.8,34.4 Z M45.6,34.1 C45.5,34.1 45.4,33.9 45.5,33.8 L45.5,33.8 C45.5,33.7 45.7,33.6 45.8,33.7 L45.8,33.7 C45.9,33.7 46,33.8 45.9,34 L45.9,34 C45.9,34.1 45.8,34.1 45.6,34.1 L45.6,34.1 L45.6,34.1 L45.6,34.1 Z M44.5,33.8 C44.4,33.8 44.3,33.6 44.4,33.5 L44.4,33.5 C44.4,33.4 44.6,33.3 44.7,33.4 L44.7,33.4 C44.8,33.4 44.9,33.6 44.8,33.7 L44.8,33.7 C44.8,33.7 44.7,33.8 44.5,33.8 L44.5,33.8 L44.5,33.8 L44.5,33.8 Z M43.5,33.3 C43.4,33.3 43.3,33.1 43.4,33 L43.4,33 C43.4,32.9 43.6,32.8 43.7,32.9 L43.7,32.9 C43.8,32.9 43.9,33.1 43.8,33.2 L43.8,33.2 C43.7,33.3 43.6,33.4 43.5,33.3 L43.5,33.3 C43.5,33.4 43.5,33.4 43.5,33.3 L43.5,33.3 Z M42.4,32.8 C42.3,32.7 42.3,32.6 42.3,32.5 L42.3,32.5 C42.4,32.4 42.5,32.4 42.6,32.4 L42.6,32.4 C42.7,32.5 42.7,32.6 42.7,32.7 L42.7,32.7 C42.7,32.8 42.6,32.9 42.4,32.8 L42.4,32.8 C42.5,32.9 42.5,32.9 42.4,32.8 L42.4,32.8 Z M41.4,32.3 L41.4,32.3 C41.3,32.2 41.3,32.1 41.3,32 L41.3,32 C41.4,31.9 41.5,31.9 41.6,31.9 L41.6,31.9 C41.7,32 41.7,32.1 41.7,32.2 L41.7,32.2 C41.7,32.3 41.6,32.3 41.5,32.3 L41.5,32.3 L41.4,32.3 L41.4,32.3 Z M40.5,31.6 L40.5,31.6 C40.4,31.5 40.4,31.4 40.5,31.3 L40.5,31.3 C40.6,31.2 40.7,31.2 40.8,31.3 L40.8,31.3 C40.9,31.4 40.9,31.5 40.8,31.6 L40.8,31.6 C40.8,31.7 40.7,31.7 40.6,31.7 L40.6,31.7 C40.5,31.7 40.5,31.6 40.5,31.6 L40.5,31.6 Z M39.6,30.9 C39.5,30.8 39.5,30.7 39.6,30.6 L39.6,30.6 C39.7,30.5 39.8,30.5 39.9,30.6 L39.9,30.6 C40,30.7 40,30.8 39.9,30.9 L39.9,30.9 C39.9,30.9 39.8,31 39.7,31 L39.7,31 L39.6,30.9 L39.6,30.9 Z M38.7,30.1 L38.7,30.1 C38.6,30 38.6,29.9 38.7,29.8 L38.7,29.8 C38.8,29.7 38.9,29.7 39,29.8 L39,29.8 C39.1,29.9 39.1,30 39,30.1 L39,30.1 L38.9,30.2 L38.9,30.2 C38.8,30.2 38.8,30.1 38.7,30.1 L38.7,30.1 Z M38,29.2 C37.9,29.1 37.9,29 38,28.9 L38,28.9 C38.1,28.8 38.2,28.8 38.3,28.9 L38.3,28.9 L38.3,28.9 L38.3,28.9 C38.4,29 38.4,29.1 38.3,29.2 L38.3,29.2 L38.2,29.2 L38.2,29.2 C38.1,29.3 38,29.3 38,29.2 L38,29.2 Z M37.3,28.3 L37.3,28.3 C37.2,28.2 37.3,28.1 37.4,28 L37.4,28 C37.5,27.9 37.6,28 37.7,28.1 L37.7,28.1 C37.8,28.2 37.7,28.3 37.6,28.4 L37.6,28.4 L37.5,28.4 L37.5,28.4 C37.4,28.4 37.3,28.3 37.3,28.3 L37.3,28.3 Z M36.7,27.3 L36.7,27.3 C36.6,27.2 36.7,27.1 36.8,27 L36.8,27 C36.9,26.9 37,27 37.1,27.1 L37.1,27.1 L37.1,27.1 L37.1,27.1 C37.2,27.2 37.1,27.3 37,27.4 L37,27.4 L36.9,27.4 L36.9,27.4 C36.8,27.4 36.7,27.3 36.7,27.3 L36.7,27.3 Z M36.2,26.2 L36.2,26.2 C36.2,26.1 36.2,26 36.3,25.9 L36.3,25.9 C36.4,25.9 36.5,25.9 36.6,26 L36.6,26 C36.6,26.1 36.6,26.2 36.5,26.3 L36.5,26.3 L36.4,26.3 L36.4,26.3 C36.3,26.3 36.3,26.3 36.2,26.2 L36.2,26.2 Z M35.9,25.1 C35.9,25 35.9,24.9 36.1,24.8 L36.1,24.8 C36.2,24.8 36.3,24.8 36.4,25 L36.4,25 C36.4,25.1 36.4,25.2 36.2,25.3 L36.2,25.3 C36.2,25.3 36.2,25.3 36.1,25.3 L36.1,25.3 C36,25.2 35.9,25.2 35.9,25.1 L35.9,25.1 Z M35.7,23.9 C35.7,23.8 35.8,23.7 35.9,23.7 L35.9,23.7 C36,23.7 36.1,23.8 36.1,23.9 L36.1,23.9 C36.1,24 36,24.1 35.9,24.1 L35.9,24.1 L35.9,24.1 L35.9,24.1 C35.8,24.1 35.7,24 35.7,23.9 L35.7,23.9 Z M35.6,22.8 C35.6,22.7 35.7,22.6 35.8,22.6 L35.8,22.6 C35.9,22.6 36,22.7 36,22.8 L36,22.8 L36,22.8 L36,22.8 C36,22.9 35.9,23 35.8,23 L35.8,23 C35.7,23 35.6,22.9 35.6,22.8 L35.6,22.8 Z" id="Shape"></path>
                    <path d="M57.5,31.8 C57.4,31.8 57.3,31.6 57.4,31.5 L57.4,31.5 L57.4,31.5 L57.4,31.5 C57.4,31.4 57.6,31.3 57.7,31.4 L57.7,31.4 C57.8,31.4 57.9,31.6 57.8,31.7 L57.8,31.7 C57.7,31.8 57.6,31.8 57.5,31.8 L57.5,31.8 L57.5,31.8 L57.5,31.8 Z M57.9,30.7 C57.8,30.7 57.7,30.5 57.8,30.4 L57.8,30.4 C57.8,30.3 58,30.2 58.1,30.3 L58.1,30.3 C58.2,30.3 58.3,30.5 58.2,30.6 L58.2,30.6 C58.1,30.7 58,30.7 57.9,30.7 L57.9,30.7 L57.9,30.7 L57.9,30.7 Z M58.2,29.7 C58.1,29.7 58,29.5 58.1,29.4 L58.1,29.4 C58.1,29.3 58.3,29.2 58.4,29.3 L58.4,29.3 C58.5,29.3 58.6,29.5 58.5,29.6 L58.5,29.6 C58.5,29.6 58.4,29.7 58.2,29.7 L58.2,29.7 L58.2,29.7 L58.2,29.7 Z M58.6,28.6 C58.5,28.6 58.4,28.4 58.5,28.3 L58.5,28.3 C58.5,28.2 58.7,28.1 58.8,28.2 L58.8,28.2 C58.9,28.2 59,28.4 58.9,28.5 L58.9,28.5 C58.8,28.5 58.8,28.6 58.6,28.6 L58.6,28.6 L58.6,28.6 L58.6,28.6 Z M58.9,27.5 C58.8,27.5 58.7,27.4 58.7,27.2 L58.7,27.2 C58.7,27.1 58.8,27 59,27 L59,27 C59.1,27 59.2,27.1 59.2,27.3 L59.2,27.3 C59.1,27.4 59.1,27.5 58.9,27.5 L58.9,27.5 L58.9,27.5 L58.9,27.5 Z M59.2,26.4 C59.1,26.4 59,26.3 59,26.2 L59,26.2 C59,26.1 59.1,26 59.2,26 L59.2,26 C59.3,26 59.4,26.1 59.4,26.3 L59.4,26.3 C59.4,26.3 59.3,26.4 59.2,26.4 L59.2,26.4 L59.2,26.4 L59.2,26.4 Z M59.4,25.2 C59.3,25.2 59.2,25.1 59.2,25 L59.2,25 C59.2,24.9 59.3,24.8 59.4,24.8 L59.4,24.8 C59.5,24.8 59.6,24.9 59.6,25 L59.6,25 C59.6,25.2 59.5,25.2 59.4,25.2 L59.4,25.2 L59.4,25.2 L59.4,25.2 Z M59.2,23.9 C59.2,23.8 59.3,23.7 59.4,23.7 L59.4,23.7 C59.5,23.7 59.6,23.8 59.6,23.9 L59.6,23.9 C59.6,24 59.5,24.1 59.4,24.1 L59.4,24.1 L59.4,24.1 L59.4,24.1 C59.3,24.1 59.2,24 59.2,23.9 L59.2,23.9 Z" id="Shape"></path>
                    <path d="M21.1,32 C21.1,31.9 21.2,31.8 21.3,31.8 L21.3,31.8 C21.4,31.8 21.5,31.9 21.5,32 L21.5,32 C21.5,32.1 21.4,32.2 21.3,32.2 L21.3,32.2 L21.3,32.2 L21.3,32.2 C21.2,32.2 21.1,32.1 21.1,32 L21.1,32 Z M22.2,32 C22.2,31.9 22.3,31.8 22.4,31.8 L22.4,31.8 C22.5,31.8 22.6,31.9 22.6,32 L22.6,32 C22.6,32.1 22.5,32.2 22.4,32.2 L22.4,32.2 L22.4,32.2 L22.4,32.2 C22.3,32.1 22.2,32.1 22.2,32 L22.2,32 Z M23.4,31.8 C23.4,31.7 23.5,31.6 23.6,31.6 L23.6,31.6 C23.7,31.6 23.8,31.7 23.8,31.8 L23.8,31.8 C23.8,31.9 23.7,32 23.6,32 L23.6,32 L23.6,32 L23.6,32 C23.5,32 23.4,31.9 23.4,31.8 L23.4,31.8 Z M24.5,31.6 C24.5,31.5 24.5,31.4 24.7,31.3 L24.7,31.3 C24.8,31.3 24.9,31.3 25,31.5 L25,31.5 C25,31.6 25,31.7 24.8,31.8 L24.8,31.8 C24.8,31.8 24.8,31.8 24.7,31.8 L24.7,31.8 C24.6,31.7 24.5,31.7 24.5,31.6 L24.5,31.6 Z M25.6,31.3 C25.6,31.2 25.6,31.1 25.7,31 L25.7,31 C25.8,31 25.9,31 26,31.1 L26,31.1 C26,31.2 26,31.3 25.9,31.4 L25.9,31.4 L25.9,31.4 L25.9,31.4 C25.9,31.4 25.9,31.4 25.8,31.4 L25.8,31.4 C25.7,31.4 25.6,31.4 25.6,31.3 L25.6,31.3 Z M26.7,30.9 C26.7,30.8 26.7,30.7 26.8,30.6 L26.8,30.6 C26.9,30.6 27,30.6 27.1,30.7 L27.1,30.7 C27.1,30.8 27.1,30.9 27,31 L27,31 L26.9,31 L26.9,31 C26.8,31 26.7,31 26.7,30.9 L26.7,30.9 Z M27.7,30.4 C27.6,30.3 27.7,30.2 27.8,30.1 L27.8,30.1 C27.9,30 28,30.1 28.1,30.2 L28.1,30.2 C28.2,30.3 28.1,30.4 28,30.5 L28,30.5 L27.9,30.5 L27.9,30.5 C27.8,30.5 27.7,30.5 27.7,30.4 L27.7,30.4 Z M28.7,29.9 C28.6,29.8 28.7,29.7 28.8,29.6 L28.8,29.6 C28.9,29.5 29,29.6 29.1,29.7 L29.1,29.7 C29.2,29.8 29.1,29.9 29,30 L29,30 L28.9,30 L28.9,30 C28.8,30 28.7,29.9 28.7,29.9 L28.7,29.9 Z M29.7,29.2 C29.6,29.1 29.6,29 29.7,28.9 L29.7,28.9 C29.8,28.8 29.9,28.8 30,28.9 L30,28.9 C30.1,29 30.1,29.1 30,29.2 L30,29.2 L29.9,29.2 L29.9,29.2 C29.8,29.3 29.7,29.3 29.7,29.2 L29.7,29.2 Z M30.5,28.5 C30.4,28.4 30.4,28.3 30.5,28.2 L30.5,28.2 C30.6,28.1 30.7,28.1 30.8,28.2 L30.8,28.2 C30.9,28.3 30.9,28.4 30.8,28.5 L30.8,28.5 L30.7,28.6 L30.7,28.6 C30.6,28.6 30.6,28.5 30.5,28.5 L30.5,28.5 Z M31.3,27.7 C31.2,27.6 31.2,27.5 31.3,27.4 L31.3,27.4 C31.4,27.3 31.5,27.3 31.6,27.4 L31.6,27.4 C31.7,27.5 31.7,27.6 31.6,27.7 L31.6,27.7 C31.6,27.8 31.5,27.8 31.4,27.8 L31.4,27.8 C31.4,27.7 31.4,27.7 31.3,27.7 L31.3,27.7 Z M32,26.8 C31.9,26.7 31.9,26.6 31.9,26.5 L31.9,26.5 C32,26.4 32.1,26.4 32.2,26.4 L32.2,26.4 C32.3,26.5 32.3,26.6 32.3,26.7 L32.3,26.7 C32.3,26.8 32.2,26.8 32.1,26.8 L32.1,26.8 L32,26.8 L32,26.8 Z M32.5,25.7 C32.4,25.7 32.3,25.5 32.4,25.4 L32.4,25.4 C32.4,25.3 32.6,25.2 32.7,25.3 L32.7,25.3 C32.8,25.3 32.9,25.5 32.8,25.6 L32.8,25.6 C32.8,25.7 32.7,25.8 32.5,25.7 L32.5,25.7 C32.6,25.8 32.5,25.8 32.5,25.7 L32.5,25.7 Z M32.9,24.7 C32.8,24.7 32.7,24.6 32.7,24.5 L32.7,24.5 C32.7,24.4 32.8,24.3 33,24.3 L33,24.3 C33.1,24.3 33.2,24.4 33.2,24.5 L33.2,24.5 C33.1,24.6 33,24.7 32.9,24.7 L32.9,24.7 L32.9,24.7 L32.9,24.7 Z M32.8,23.3 C32.8,23.2 32.9,23.1 33,23.1 L33,23.1 C33.1,23.1 33.2,23.2 33.2,23.3 L33.2,23.3 C33.2,23.4 33.1,23.5 33,23.5 L33,23.5 C32.9,23.5 32.8,23.4 32.8,23.3 L32.8,23.3 Z" id="Shape"></path>
                    <path d="M31.7,16.1 L31.7,16.1 C31.7,16 31.8,15.9 31.9,15.9 L31.9,15.9 C32,15.9 32.1,16 32.1,16.1 L32.1,16.1 C32.1,16.2 32,16.3 31.9,16.3 L31.9,16.3 C31.8,16.3 31.7,16.2 31.7,16.1 L31.7,16.1 Z M31.4,15.2 L31.4,15.2 C31.3,15.1 31.4,15 31.5,14.9 L31.5,14.9 C31.6,14.8 31.7,14.9 31.8,15 L31.8,15 C31.9,15.1 31.8,15.2 31.7,15.3 L31.7,15.3 L31.6,15.3 L31.6,15.3 C31.5,15.3 31.4,15.2 31.4,15.2 L31.4,15.2 Z M30.7,14.4 C30.6,14.3 30.6,14.2 30.7,14.1 L30.7,14.1 C30.8,14 30.9,14 31,14.1 L31,14.1 C31.1,14.2 31.1,14.3 31,14.4 L31,14.4 C31,14.5 30.9,14.5 30.8,14.5 L30.8,14.5 L30.7,14.4 L30.7,14.4 Z M29.7,13.8 L29.7,13.8 C29.6,13.7 29.6,13.6 29.6,13.5 L29.6,13.5 C29.7,13.4 29.8,13.4 29.9,13.4 L29.9,13.4 C30,13.5 30,13.6 30,13.7 L30,13.7 C30,13.8 29.9,13.8 29.8,13.8 L29.8,13.8 C29.8,13.8 29.8,13.8 29.7,13.8 L29.7,13.8 Z M28.7,13.3 C28.6,13.2 28.5,13.1 28.6,13 L28.6,13 C28.6,12.9 28.8,12.8 28.9,12.9 L28.9,12.9 C29,12.9 29.1,13.1 29,13.2 L29,13.2 C29,13.2 28.9,13.3 28.7,13.3 L28.7,13.3 L28.7,13.3 L28.7,13.3 Z M27.7,12.8 L27.7,12.8 C27.6,12.8 27.5,12.6 27.6,12.5 L27.6,12.5 C27.6,12.4 27.8,12.3 27.9,12.4 L27.9,12.4 C28,12.4 28.1,12.6 28,12.7 L28,12.7 C27.9,12.8 27.9,12.9 27.7,12.8 L27.7,12.8 C27.7,12.9 27.7,12.9 27.7,12.8 L27.7,12.8 Z M26.6,12.5 C26.5,12.5 26.4,12.3 26.5,12.2 L26.5,12.2 C26.5,12.1 26.7,12 26.8,12.1 L26.8,12.1 C26.9,12.1 27,12.3 26.9,12.4 L26.9,12.4 C26.9,12.4 26.8,12.5 26.6,12.5 L26.6,12.5 L26.6,12.5 L26.6,12.5 Z M25.5,12.2 C25.4,12.2 25.3,12 25.3,11.9 L25.3,11.9 C25.3,11.8 25.5,11.7 25.6,11.8 L25.6,11.8 C25.7,11.8 25.8,11.9 25.8,12.1 L25.8,12.1 C25.8,12.1 25.7,12.2 25.5,12.2 L25.5,12.2 L25.5,12.2 L25.5,12.2 Z M24.4,11.9 L24.4,11.9 L24.4,11.9 C24.3,11.9 24.2,11.8 24.2,11.6 L24.2,11.6 C24.2,11.5 24.3,11.4 24.5,11.4 L24.5,11.4 C24.6,11.4 24.7,11.5 24.7,11.7 L24.7,11.7 C24.7,11.8 24.6,11.9 24.4,11.9 L24.4,11.9 L24.4,11.9 L24.4,11.9 Z M23.3,11.6 C23.2,11.6 23.1,11.5 23.1,11.3 L23.1,11.3 C23.1,11.2 23.2,11.1 23.4,11.1 L23.4,11.1 C23.5,11.1 23.6,11.2 23.6,11.4 L23.6,11.4 C23.6,11.6 23.5,11.6 23.3,11.6 L23.3,11.6 L23.3,11.6 L23.3,11.6 Z M22.2,11.4 C22.1,11.4 22,11.3 22,11.2 L22,11.2 C22,11.1 22.1,11 22.3,11 L22.3,11 C22.4,11 22.5,11.1 22.5,11.2 L22.5,11.2 C22.4,11.3 22.4,11.4 22.2,11.4 L22.2,11.4 L22.2,11.4 L22.2,11.4 Z M21.1,11.2 L21.1,11.2 C21,11.2 20.9,11.1 20.9,11 L20.9,11 C20.9,10.9 21,10.8 21.1,10.8 L21.1,10.8 C21.2,10.8 21.3,10.9 21.3,11 L21.3,11 C21.3,11.1 21.2,11.2 21.1,11.2 L21.1,11.2 L21.1,11.2 L21.1,11.2 Z M20,11 C19.9,11 19.8,10.9 19.8,10.8 L19.8,10.8 C19.8,10.7 19.9,10.6 20,10.6 L20,10.6 C20.1,10.6 20.2,10.7 20.2,10.8 L20.2,10.8 C20.2,11 20.1,11 20,11 L20,11 L20,11 L20,11 Z M18.8,10.9 C18.7,10.9 18.6,10.8 18.6,10.7 L18.6,10.7 C18.6,10.6 18.7,10.5 18.8,10.5 L18.8,10.5 C18.9,10.5 19,10.6 19,10.7 L19,10.7 C19.1,10.8 19,10.9 18.8,10.9 L18.8,10.9 L18.8,10.9 L18.8,10.9 Z M17.7,10.7 C17.6,10.7 17.5,10.6 17.5,10.5 L17.5,10.5 C17.5,10.4 17.6,10.3 17.7,10.3 L17.7,10.3 C17.8,10.3 17.9,10.4 17.9,10.5 L17.9,10.5 C17.9,10.7 17.8,10.7 17.7,10.7 L17.7,10.7 L17.7,10.7 L17.7,10.7 Z M16.6,10.6 C16.5,10.6 16.4,10.5 16.4,10.4 L16.4,10.4 C16.4,10.3 16.5,10.2 16.6,10.2 L16.6,10.2 C16.7,10.2 16.8,10.3 16.8,10.4 L16.8,10.4 C16.8,10.6 16.7,10.6 16.6,10.6 L16.6,10.6 L16.6,10.6 L16.6,10.6 Z M15.4,10.5 C15.3,10.5 15.2,10.4 15.2,10.3 L15.2,10.3 C15.2,10.2 15.3,10.1 15.4,10.1 L15.4,10.1 C15.5,10.1 15.6,10.2 15.6,10.3 L15.6,10.3 C15.7,10.5 15.6,10.5 15.4,10.5 L15.4,10.5 L15.4,10.5 L15.4,10.5 Z M14.1,10.2 C14.1,10.1 14.2,10 14.3,10 L14.3,10 C14.4,10 14.5,10.1 14.5,10.2 L14.5,10.2 C14.5,10.3 14.4,10.4 14.3,10.4 L14.3,10.4 L14.3,10.4 L14.3,10.4 C14.2,10.5 14.1,10.3 14.1,10.2 L14.1,10.2 Z M13.2,10.4 C13.1,10.4 13,10.3 13,10.2 L13,10.2 C13,10.1 13.1,10 13.2,10 L13.2,10 C13.3,10 13.4,10.1 13.4,10.2 L13.4,10.2 C13.4,10.3 13.3,10.4 13.2,10.4 L13.2,10.4 L13.2,10.4 L13.2,10.4 Z M12,10.3 L12,10.3 C11.9,10.3 11.8,10.2 11.8,10.1 L11.8,10.1 C11.8,10 11.9,9.9 12,9.9 L12,9.9 C12.1,9.9 12.2,10 12.2,10.1 L12.2,10.1 C12.2,10.3 12.1,10.3 12,10.3 L12,10.3 L12,10.3 L12,10.3 Z M10.9,10.3 C10.8,10.3 10.7,10.2 10.7,10.1 L10.7,10.1 C10.7,10 10.8,9.9 10.9,9.9 L10.9,9.9 C11,9.9 11.1,10 11.1,10.1 L11.1,10.1 C11.1,10.2 11,10.3 10.9,10.3 L10.9,10.3 L10.9,10.3 L10.9,10.3 Z M9.7,10.3 C9.6,10.3 9.5,10.2 9.5,10.1 L9.5,10.1 C9.5,10 9.6,9.9 9.7,9.9 L9.7,9.9 C9.8,9.9 9.9,10 9.9,10.1 L9.9,10.1 C10,10.2 9.9,10.3 9.7,10.3 L9.7,10.3 L9.7,10.3 L9.7,10.3 Z" id="Shape"></path>
                    <path d="M13.2,31.1 L13.2,31.1 C13.1,31.1 13,31 13,30.9 L13,30.9 C13,30.8 13.1,30.7 13.2,30.7 L13.2,30.7 C13.3,30.7 13.4,30.8 13.4,30.9 L13.4,30.9 C13.4,31 13.3,31.1 13.2,31.1 L13.2,31.1 L13.2,31.1 L13.2,31.1 Z M12.1,30.7 C12,30.6 12,30.5 12,30.4 L12,30.4 C12.1,30.3 12.2,30.3 12.3,30.3 L12.3,30.3 C12.4,30.4 12.4,30.5 12.4,30.6 L12.4,30.6 C12.3,30.7 12.2,30.7 12.1,30.7 L12.1,30.7 L12.1,30.7 L12.1,30.7 Z M11.1,30 L11.1,30 C11,29.9 11,29.8 11.1,29.7 L11.1,29.7 C11.2,29.6 11.3,29.6 11.4,29.7 L11.4,29.7 C11.5,29.8 11.5,29.9 11.4,30 L11.4,30 C11.4,30.1 11.3,30.1 11.2,30.1 L11.2,30.1 C11.2,30.1 11.1,30 11.1,30 L11.1,30 Z M10.2,29.2 L10.2,29.2 C10.1,29.1 10.1,29 10.2,28.9 L10.2,28.9 C10.3,28.8 10.4,28.8 10.5,28.9 L10.5,28.9 C10.6,29 10.6,29.1 10.5,29.2 L10.5,29.2 L10.4,29.3 L10.4,29.3 C10.3,29.3 10.3,29.2 10.2,29.2 L10.2,29.2 Z M9.5,28.2 C9.4,28.1 9.5,28 9.6,27.9 L9.6,27.9 C9.7,27.8 9.8,27.9 9.9,28 L9.9,28 C10,28.1 9.9,28.2 9.8,28.3 L9.8,28.3 L9.7,28.3 L9.7,28.3 C9.7,28.3 9.6,28.3 9.5,28.2 L9.5,28.2 Z M9,27.2 C8.9,27.1 9,27 9.1,26.9 L9.1,26.9 C9.2,26.8 9.3,26.9 9.4,27 L9.4,27 C9.5,27.1 9.4,27.2 9.3,27.3 L9.3,27.3 L9.2,27.3 L9.2,27.3 C9.1,27.4 9,27.3 9,27.2 L9,27.2 Z M8.4,26.2 C8.4,26.1 8.4,26 8.5,25.9 L8.5,25.9 C8.6,25.9 8.7,25.9 8.8,26 L8.8,26 C8.8,26.1 8.8,26.2 8.7,26.3 L8.7,26.3 L8.6,26.3 L8.6,26.3 C8.6,26.3 8.5,26.3 8.4,26.2 L8.4,26.2 Z M8,25.1 C8,25 8,24.9 8.1,24.8 L8.1,24.8 C8.2,24.8 8.3,24.8 8.4,24.9 L8.4,24.9 C8.4,25 8.4,25.1 8.3,25.2 L8.3,25.2 L8.2,25.2 L8.2,25.2 C8.1,25.3 8,25.2 8,25.1 L8,25.1 Z M7.6,24 C7.6,23.9 7.6,23.8 7.7,23.7 L7.7,23.7 C7.8,23.7 7.9,23.7 8,23.8 L8,23.8 C8,23.9 8,24 7.9,24.1 L7.9,24.1 C7.9,24.1 7.9,24.1 7.8,24.1 L7.8,24.1 C7.8,24.2 7.7,24.1 7.6,24 L7.6,24 Z M7.3,22.9 C7.3,22.8 7.3,22.7 7.5,22.6 L7.5,22.6 C7.6,22.6 7.7,22.6 7.8,22.8 L7.8,22.8 C7.8,22.9 7.8,23 7.6,23.1 L7.6,23.1 C7.6,23.1 7.6,23.1 7.5,23.1 L7.5,23.1 C7.4,23.1 7.4,23 7.3,22.9 L7.3,22.9 Z M7.1,21.8 L7.1,21.8 C7.1,21.7 7.1,21.6 7.3,21.5 L7.3,21.5 C7.4,21.5 7.5,21.5 7.6,21.7 L7.6,21.7 L7.6,21.7 L7.6,21.7 C7.6,21.8 7.5,21.9 7.4,22 L7.4,22 L7.4,22 L7.4,22 C7.2,22 7.1,21.9 7.1,21.8 L7.1,21.8 Z M6.9,20.7 C6.9,20.6 7,20.5 7.1,20.5 L7.1,20.5 C7.2,20.5 7.3,20.6 7.3,20.7 L7.3,20.7 C7.3,20.8 7.2,20.9 7.1,20.9 L7.1,20.9 L7.1,20.9 L7.1,20.9 C7,20.9 6.9,20.8 6.9,20.7 L6.9,20.7 Z M6.7,19.5 C6.7,19.4 6.8,19.3 6.9,19.3 L6.9,19.3 C7,19.3 7.1,19.4 7.1,19.5 L7.1,19.5 C7.1,19.6 7,19.7 6.9,19.7 L6.9,19.7 L6.9,19.7 L6.9,19.7 C6.8,19.7 6.7,19.7 6.7,19.5 L6.7,19.5 Z M6.5,18.4 L6.5,18.4 C6.5,18.3 6.6,18.2 6.7,18.2 L6.7,18.2 C6.8,18.2 6.9,18.3 6.9,18.4 L6.9,18.4 C6.9,18.5 6.8,18.6 6.7,18.6 L6.7,18.6 L6.7,18.6 L6.7,18.6 L6.5,18.4 L6.5,18.4 Z M6.5,17.3 C6.5,17.2 6.6,17.1 6.7,17.1 L6.7,17.1 C6.8,17.1 6.9,17.2 6.9,17.3 L6.9,17.3 C6.9,17.4 6.8,17.5 6.7,17.5 L6.7,17.5 L6.7,17.5 L6.7,17.5 C6.6,17.5 6.5,17.4 6.5,17.3 L6.5,17.3 Z M6.4,16.1 C6.4,16 6.5,15.9 6.6,15.9 L6.6,15.9 C6.7,15.9 6.8,16 6.8,16.1 L6.8,16.1 C6.8,16.2 6.7,16.3 6.6,16.3 L6.6,16.3 L6.6,16.3 L6.6,16.3 C6.5,16.3 6.4,16.2 6.4,16.1 L6.4,16.1 Z M6.4,15 C6.4,14.9 6.5,14.8 6.6,14.8 L6.6,14.8 C6.7,14.8 6.8,14.9 6.8,15 L6.8,15 C6.8,15.1 6.7,15.2 6.6,15.2 L6.6,15.2 C6.5,15.2 6.4,15.1 6.4,15 L6.4,15 Z" id="Shape"></path>
                    <path d="M53.4,6.1 L53.4,6.1 C53.4,6 53.4,6 53.5,6 L53.6,6 L54.7,6.7 L54.7,6.7 L54.8,6.8 L54.8,6.9 C54.4,7.2 53.9,7.8 53.9,7.8 L53.8,7.9 L53.8,7.9 L53.7,7.9 L53.7,7.9 L53.4,6.1 L53.4,6.1 Z" id="Shape"></path>
                    <path d="M54.3,18 L54.3,18 C54.3,17.9 54.4,17.9 54.4,17.9 L54.5,17.9 L55.6,18.7 L55.6,18.7 L55.6,18.8 L55.6,18.9 C55.2,19.2 54.6,19.7 54.6,19.7 L54.5,19.8 L54.5,19.8 L54.4,19.8 L54.4,19.8 L54.3,18 L54.3,18 Z" id="Shape"></path>
                    <path d="M51.3,33.8 C51.3,33.8 51.3,33.7 51.3,33.8 C51.3,33.7 51.4,33.7 51.4,33.7 L51.5,33.7 L52.5,34.5 L52.5,34.5 L52.5,34.6 L52.5,34.7 C52.1,35 51.5,35.5 51.5,35.5 L51.4,35.5 L51.4,35.5 L51.3,35.5 L51.3,35.5 L51.3,33.8 L51.3,33.8 Z" id="Shape"></path>
                    <path d="M58.4,31.3 L58.4,31.3 C58.5,31.3 58.5,31.4 58.5,31.4 C58.5,31.4 58.5,31.4 58.5,31.5 L57.4,32.3 L57.4,32.3 L57.3,32.3 L57.2,32.2 C57,31.7 56.7,31 56.7,31 L56.7,30.9 L56.7,30.9 C56.7,30.9 56.7,30.8 56.8,30.8 L56.8,30.8 L58.4,31.3 L58.4,31.3 Z" id="Shape"></path>
                    <path d="M32.5,15.4 L32.5,15.4 L32.7,15.4 C32.7,15.4 32.7,15.4 32.7,15.5 L32.3,16.8 L32.3,16.8 L32.2,16.9 L32.1,16.9 C31.7,16.6 31,16.2 31,16.2 C31,16.2 30.9,16.2 30.9,16.1 L30.9,16.1 L30.9,16 L30.9,16 L32.5,15.4 L32.5,15.4 Z" id="Shape"></path>
                    <path d="M32.2,23.6 L32.2,23.6 C32.1,23.6 32.1,23.5 32.1,23.5 C32.1,23.5 32.1,23.5 32.1,23.4 L33.1,22.6 L33.1,22.6 L33.2,22.6 L33.3,22.7 C33.5,23.2 33.8,23.9 33.8,23.9 L33.8,24 L33.8,24 C33.8,24 33.8,24.1 33.7,24.1 L33.7,24.1 L32.2,23.6 L32.2,23.6 Z" id="Shape"></path>
                    <path d="M13.1,30.1 C13.1,30.1 13.1,30 13.1,30.1 C13.1,30 13.2,30 13.2,30 L13.3,30 L14.2,31 L14.2,31 L14.2,31.1 C14.2,31.2 14.1,31.2 14.1,31.2 C13.7,31.4 12.9,31.8 12.9,31.8 L12.8,31.8 L12.8,31.8 C12.8,31.8 12.7,31.8 12.7,31.7 L12.7,31.7 L13.1,30.1 L13.1,30.1 Z" id="Shape"></path>
                    <g id="Group" transform="translate(14.000000, 6.000000)">
                        <path d="M0.4,1.9 L0.4,1.9 C0.4,1.7 0.4,1.7 0.5,1.7 L0.6,1.7 C0.7,1.8 0.8,1.8 1,1.8 C1.2,1.8 1.3,1.7 1.3,1.6 L1.3,1.6 C1.3,1.4 1.2,1.4 0.9,1.4 L0.8,1.4 C0.7,1.4 0.7,1.3 0.7,1.3 C0.7,1.3 0.7,1.2 0.8,1.2 L1.2,0.8 L0.6,0.8 C0.5,0.8 0.5,0.7 0.5,0.7 C0.5,0.6 0.6,0.6 0.6,0.6 L1.4,0.6 C1.5,0.6 1.5,0.6 1.5,0.7 C1.5,0.8 1.5,0.8 1.4,0.8 L1,1.2 C1.2,1.2 1.5,1.3 1.5,1.6 L1.5,1.6 C1.5,1.9 1.3,2.1 1,2.1 C0.7,2.1 0.6,2.1 0.4,1.9 L0.4,1.9 Z" id="Shape"></path>
                        <path d="M1.8,2.3 L2.7,0.4 L2.8,0.3 C2.9,0.3 2.9,0.3 2.9,0.4 C2.9,0.4 2.9,0.4 2.9,0.5 L2,2.4 L1.9,2.5 C1.8,2.4 1.8,2.4 1.8,2.3 L1.8,2.3 L1.8,2.3 Z" id="Shape"></path>
                        <path d="M3.3,1.9 C3.2,1.9 3.2,1.9 3.3,1.9 C3.3,1.7 3.3,1.7 3.4,1.7 L3.5,1.7 C3.6,1.8 3.7,1.8 3.9,1.8 C4.1,1.8 4.2,1.7 4.2,1.6 L4.2,1.6 C4.2,1.4 4.1,1.4 3.8,1.4 L3.7,1.4 C3.6,1.4 3.6,1.3 3.6,1.3 C3.6,1.3 3.6,1.2 3.7,1.2 L4.1,0.8 L3.5,0.8 C3.4,0.8 3.4,0.7 3.4,0.7 C3.4,0.6 3.5,0.6 3.5,0.6 L4.3,0.6 C4.4,0.6 4.4,0.6 4.4,0.7 C4.4,0.8 4.4,0.8 4.3,0.8 L3.9,1.2 C4.1,1.2 4.4,1.3 4.4,1.6 L4.4,1.6 C4.4,1.9 4.2,2.1 3.9,2.1 C3.6,2.1 3.4,2.1 3.3,1.9 L3.3,1.9 Z" id="Shape"></path>
                        <path d="M4.8,2.3 C4.9,2.3 5,2.2 5,2.1 C4.9,2.1 4.9,2 4.9,1.9 L4.9,1.9 C4.9,1.8 5,1.8 5.1,1.8 C5.2,1.8 5.3,1.9 5.3,2 L5.3,2 C5.3,2.2 5.3,2.3 5.2,2.3 C5.1,2.4 5.1,2.4 5,2.4 C4.7,2.4 4.7,2.4 4.8,2.3 C4.7,2.3 4.7,2.3 4.8,2.3 L4.8,2.3 Z" id="Shape"></path>
                        <path d="M6.3,1.8 L5.6,1.8 C5.5,1.8 5.5,1.7 5.5,1.7 C5.5,1.6 5.5,1.6 5.6,1.6 L6.3,0.7 C6.3,0.6 6.4,0.6 6.5,0.6 C6.6,0.6 6.6,0.7 6.6,0.7 L6.6,1.6 L6.7,1.6 C6.8,1.6 6.8,1.7 6.8,1.7 C6.8,1.8 6.8,1.8 6.7,1.8 L6.6,1.8 L6.6,2 C6.6,2.1 6.5,2.1 6.5,2.1 L6.4,2 L6.4,1.8 L6.3,1.8 Z M6.3,1.5 L6.3,0.9 L5.8,1.5 L6.3,1.5 L6.3,1.5 Z" id="Shape"></path>
                    </g>
                    <g id="Group" transform="translate(44.000000, 4.000000)">
                        <path id="Shape" d="M-1.2,0.5 L-1.4,0.5 L-1.4,0.5 C-1.5,0.5 -1.5,0.4 -1.5,0.4 C-1.5,0.3 -1.5,0.3 -1.4,0.3 L-1.2,0.2 L-1.1,0.2 L-1.1,0.2 C-1,0.2 -1,0.3 -1,0.3 L-1,1.6 C-1,1.7 -1.1,1.7 -1.1,1.7 C-1.2,1.7 -1.2,1.6 -1.2,1.6 L-1.2,0.5 L-1.2,0.5 Z"></path>
                        <path d="M-0.5,2 L0.4,0.1 L0.5,0 C0.6,0 0.6,0 0.6,0.1 C0.6,0.1 0.6,0.1 0.6,0.2 L-0.3,2.1 L-0.4,2.2 C-0.5,2.1 -0.5,2.1 -0.5,2 L-0.5,2 L-0.5,2 Z" id="Shape"></path>
                        <path id="Shape" d="M1.2,0.5 L1,0.5 L1,0.5 C0.9,0.5 0.9,0.4 0.9,0.4 C0.9,0.3 0.9,0.3 1,0.3 L1.2,0.2 L1.3,0.2 L1.3,0.2 C1.4,0.2 1.4,0.3 1.4,0.3 L1.4,1.6 C1.4,1.7 1.3,1.7 1.3,1.7 C1.2,1.7 1.2,1.6 1.2,1.6 L1.2,0.5 L1.2,0.5 Z"></path>
                        <path id="Shape" d="M2,2 C2.1,2 2.2,1.9 2.2,1.8 C2.1,1.8 2.1,1.7 2.1,1.6 L2.1,1.6 C2.1,1.5 2.2,1.5 2.3,1.5 C2.4,1.5 2.5,1.6 2.5,1.7 L2.5,1.7 C2.5,1.9 2.5,2 2.4,2 C2.3,2.1 2.3,2.1 2.2,2.1 C2,2.2 2,2.1 2,2 C2,2.1 2,2 2,2 L2,2 Z"></path>
                        <path d="M2.8,1.4 L2.8,1.4 C2.8,1.2 2.9,1.1 3.1,1 C3,0.9 2.9,0.8 2.9,0.7 L2.9,0.7 C2.9,0.5 3.1,0.3 3.4,0.3 C3.7,0.3 3.9,0.5 3.9,0.7 L3.9,0.7 C3.9,0.9 3.8,1 3.7,1 C3.9,1.1 4,1.2 4,1.4 L4,1.4 C4,1.7 3.7,1.9 3.4,1.9 C3,1.9 2.8,1.7 2.8,1.4 L2.8,1.4 Z M3.7,1.4 L3.7,1.4 C3.7,1.3 3.6,1.2 3.4,1.2 C3.2,1.2 3.1,1.3 3.1,1.4 L3.1,1.4 C3.1,1.5 3.2,1.6 3.4,1.6 C3.6,1.6 3.7,1.5 3.7,1.4 L3.7,1.4 Z M3.6,0.7 L3.6,0.7 C3.6,0.6 3.5,0.5 3.3,0.5 C3.1,0.5 3,0.6 3,0.7 L3,0.7 C3,0.8 3.1,0.9 3.3,0.9 C3.5,0.9 3.6,0.8 3.6,0.7 L3.6,0.7 Z" id="Shape"></path>
                    </g>
                    <g id="Group" transform="translate(43.000000, 15.000000)">
                        <path d="M0.9,2 L0.2,2 C0.1,2 0.1,1.9 0.1,1.9 C0.1,1.8 0.1,1.8 0.2,1.8 L0.9,0.9 C0.9,0.8 1,0.8 1.1,0.8 C1.2,0.8 1.2,0.9 1.2,0.9 L1.2,1.8 L1.3,1.8 C1.4,1.8 1.4,1.9 1.4,1.9 C1.4,2 1.4,2 1.3,2 L1.2,2 L1.2,2.2 C1.2,2.3 1.1,2.3 1.1,2.3 L1,2.2 L1,2 L0.9,2 Z M0.9,1.7 L0.9,1.1 L0.4,1.7 L0.9,1.7 L0.9,1.7 Z" id="Shape"></path>
                        <path d="M1.7,2.4 L2.6,0.5 L2.7,0.4 C2.8,0.4 2.8,0.4 2.8,0.5 C2.8,0.5 2.8,0.5 2.8,0.6 L1.9,2.5 L1.8,2.6 C1.7,2.6 1.7,2.6 1.7,2.4 C1.7,2.5 1.7,2.5 1.7,2.4 L1.7,2.4 Z" id="Shape"></path>
                        <path d="M3.3,2.1 L3.9,1 L3.2,1 C3.1,1 3.1,0.9 3.1,0.9 C3.1,0.8 3.2,0.8 3.2,0.8 L4.1,0.8 C4.2,0.8 4.2,0.8 4.2,0.9 L4.2,1 L3.6,2.2 C3.6,2.3 3.5,2.3 3.5,2.3 C3.4,2.3 3.3,2.3 3.3,2.1 C3.3,2.2 3.3,2.1 3.3,2.1 L3.3,2.1 Z" id="Shape"></path>
                        <path id="Shape" d="M4.4,2.5 C4.5,2.5 4.6,2.4 4.6,2.3 C4.5,2.3 4.5,2.2 4.5,2.1 L4.5,2.1 C4.5,2 4.6,2 4.7,2 C4.8,2 4.9,2.1 4.9,2.2 L4.9,2.2 C4.9,2.4 4.9,2.5 4.8,2.5 C4.7,2.6 4.7,2.6 4.6,2.6 C4.4,2.6 4.4,2.6 4.4,2.5 L4.4,2.5 L4.4,2.5 Z"></path>
                        <path d="M5.2,2.2 L5.1,2.1 C5.1,2 5.2,2 5.2,2 L5.3,2 C5.4,2.1 5.5,2.1 5.6,2.1 C5.8,2.1 5.9,2 5.9,1.8 L5.9,1.8 C5.9,1.6 5.8,1.5 5.6,1.5 C5.4,1.5 5.4,1.6 5.3,1.6 C5.3,1.6 5.2,1.6 5.2,1.5 L5.1,1.4 L5.1,0.8 C5.1,0.7 5.2,0.7 5.2,0.7 L5.9,0.7 C6,0.7 6,0.8 6,0.8 C6,0.9 5.9,0.9 5.9,0.9 L5.3,0.9 L5.3,1.3 L5.5,1.3 C5.8,1.3 6,1.5 6,1.8 L6,1.8 C6,2.1 5.8,2.3 5.4,2.3 C5.5,2.3 5.4,2.3 5.2,2.2 L5.2,2.2 Z" id="Shape"></path>
                    </g>
                    <g id="Group" transform="translate(61.000000, 27.000000)">
                        <path d="M-0.2,1.2 L-0.2,1.2 C-0.2,0.7 0.1,0.4 0.5,0.4 C0.9,0.4 1.2,0.8 1.2,1.2 L1.2,1.2 C1.2,1.6 0.9,2 0.5,2 C0,2 -0.2,1.7 -0.2,1.2 L-0.2,1.2 Z M0.9,1.2 L0.9,1.2 C0.9,0.9 0.7,0.6 0.5,0.6 C0.3,0.6 0.1,0.8 0.1,1.2 L0.1,1.2 C0.1,1.5 0.3,1.8 0.5,1.8 C0.7,1.8 0.9,1.5 0.9,1.2 L0.9,1.2 Z" id="Shape"></path>
                        <path d="M1.4,2.1 L2.3,0.2 L2.4,0.1 C2.5,0.1 2.5,0.1 2.5,0.2 C2.5,0.2 2.5,0.2 2.5,0.3 L1.6,2.2 L1.5,2.3 C1.4,2.3 1.4,2.2 1.4,2.1 C1.4,2.2 1.4,2.1 1.4,2.1 L1.4,2.1 Z" id="Shape"></path>
                        <path d="M2.8,1.8 C2.8,1.8 2.8,1.7 2.8,1.8 C2.8,1.6 2.8,1.6 2.9,1.6 L3,1.6 C3.1,1.7 3.2,1.7 3.4,1.7 C3.6,1.7 3.7,1.6 3.7,1.5 L3.7,1.5 C3.7,1.3 3.6,1.3 3.3,1.3 L3.2,1.3 C3.1,1.3 3.1,1.2 3.1,1.2 C3.1,1.2 3.1,1.1 3.2,1.1 L3.6,0.7 L3,0.7 C2.9,0.7 2.9,0.6 2.9,0.6 C2.9,0.5 3,0.5 3,0.5 L3.8,0.5 C3.9,0.5 3.9,0.5 3.9,0.6 C3.9,0.7 3.9,0.7 3.8,0.7 L3.4,1.1 C3.6,1.1 3.9,1.2 3.9,1.5 L3.9,1.5 C3.9,1.8 3.7,2 3.4,2 C3.1,2 3,1.9 2.8,1.8 L2.8,1.8 Z" id="Shape"></path>
                        <path id="Shape" d="M4.3,2.2 C4.4,2.2 4.5,2.1 4.5,2 C4.4,2 4.4,1.9 4.4,1.8 L4.4,1.8 C4.4,1.7 4.5,1.7 4.6,1.7 C4.7,1.7 4.8,1.8 4.8,1.9 L4.8,1.9 C4.8,2.1 4.8,2.2 4.7,2.2 C4.6,2.3 4.6,2.3 4.5,2.3 C4.3,2.3 4.3,2.3 4.3,2.2 L4.3,2.2 L4.3,2.2 Z"></path>
                        <path id="Shape" d="M5.3,0.7 L5.1,0.7 L5.1,0.7 C5,0.7 5,0.6 5,0.6 C5,0.5 5,0.5 5.1,0.5 L5.3,0.4 L5.4,0.4 L5.4,0.4 C5.5,0.4 5.5,0.5 5.5,0.5 L5.5,1.8 C5.5,1.9 5.4,1.9 5.4,1.9 C5.3,1.9 5.3,1.8 5.3,1.8 L5.3,0.7 L5.3,0.7 Z"></path>
                    </g>
                    <g id="Group" transform="translate(39.000000, 35.000000)">
                        <path d="M-0.1,2 L0.4,1.6 C0.6,1.4 0.7,1.3 0.7,1.2 C0.7,1 0.6,1 0.4,1 C0.3,1 0.2,1.1 0.1,1.2 L-9.49240686e-15,1.2 C-0.1,1.2 -0.1,1.1 -0.1,1.1 L-0.1,1 C-9.49240686e-15,0.8 0.2,0.7 0.4,0.7 C0.7,0.7 0.9,0.9 0.9,1.2 L0.9,1.2 C0.9,1.4 0.8,1.6 0.5,1.8 L0.2,2.1 L0.8,2.1 C0.9,2.1 0.9,2.2 0.9,2.2 C0.9,2.3 0.8,2.3 0.8,2.3 L-9.49240686e-15,2.3 C-0.1,2.3 -0.1,2.3 -0.1,2.2 C-0.2,2.1 -0.1,2 -0.1,2 L-0.1,2 Z" id="Shape"></path>
                        <path d="M1.3,2.4 L2.2,0.5 L2.3,0.4 C2.4,0.4 2.4,0.4 2.4,0.5 C2.4,0.5 2.4,0.5 2.4,0.6 L1.5,2.5 L1.4,2.6 C1.3,2.5 1.3,2.5 1.3,2.4 L1.3,2.4 L1.3,2.4 Z" id="Shape"></path>
                        <path d="M2.8,2.1 L2.7,2 C2.7,1.9 2.8,1.9 2.8,1.9 L2.9,1.9 C3,2 3.1,2 3.2,2 C3.4,2 3.5,1.9 3.5,1.7 L3.5,1.7 C3.5,1.5 3.4,1.4 3.2,1.4 C3,1.4 3,1.5 2.9,1.5 C2.9,1.5 2.8,1.5 2.8,1.4 L2.7,1.3 L2.7,0.7 C2.7,0.6 2.8,0.6 2.8,0.6 L3.5,0.6 C3.6,0.6 3.6,0.7 3.6,0.7 C3.6,0.8 3.5,0.8 3.5,0.8 L2.9,0.8 L2.9,1.2 L3.1,1.2 C3.4,1.2 3.6,1.4 3.6,1.7 L3.6,1.7 C3.6,2 3.4,2.2 3,2.2 C3,2.3 2.9,2.2 2.8,2.1 L2.8,2.1 Z" id="Shape"></path>
                        <path id="Shape" d="M4.2,2.4 C4.3,2.4 4.4,2.3 4.4,2.2 C4.3,2.2 4.3,2.1 4.3,2 L4.3,2 C4.3,1.9 4.4,1.9 4.5,1.9 C4.6,1.9 4.7,2 4.7,2.1 L4.7,2.1 C4.7,2.3 4.7,2.4 4.6,2.4 C4.5,2.5 4.5,2.5 4.4,2.5 C4.2,2.6 4.2,2.5 4.2,2.4 C4.2,2.5 4.2,2.4 4.2,2.4 L4.2,2.4 Z"></path>
                        <path d="M5.1,2 L5.6,1.6 C5.8,1.4 5.9,1.3 5.9,1.2 C5.9,1 5.8,1 5.6,1 C5.5,1 5.4,1.1 5.3,1.2 L5.2,1.2 C5.1,1.2 5.1,1.1 5.1,1.1 L5.1,1 C5.2,0.8 5.4,0.7 5.6,0.7 C5.9,0.7 6.1,0.9 6.1,1.2 L6.1,1.2 C6.1,1.4 6,1.6 5.7,1.8 L5.4,2.1 L6,2.1 C6.1,2.1 6.1,2.2 6.1,2.2 C6.1,2.3 6,2.3 6,2.3 L5.1,2.3 C5,2.3 5,2.3 5,2.2 C5,2.1 5,2 5.1,2 L5.1,2 Z" id="Shape"></path>
                    </g>
                    <g id="Group" transform="translate(27.000000, 32.000000)">
                        <path d="M0.8,1.4 L0.1,1.4 C2.84217094e-14,1.4 2.84217094e-14,1.3 2.84217094e-14,1.3 C2.84217094e-14,1.2 2.84217094e-14,1.2 0.1,1.2 L0.8,0.3 C0.8,0.2 0.9,0.2 1,0.2 C1.1,0.2 1.1,0.3 1.1,0.3 L1.1,1.2 L1.2,1.2 C1.3,1.2 1.3,1.3 1.3,1.3 C1.3,1.4 1.3,1.4 1.2,1.4 L1,1.4 L1,1.6 C1,1.7 0.9,1.7 0.9,1.7 L0.8,1.6 L0.8,1.4 L0.8,1.4 Z M0.8,1.2 L0.8,0.6 L0.3,1.2 L0.8,1.2 L0.8,1.2 Z" id="Shape"></path>
                        <path d="M1.5,1.9 L2.4,-2.84217094e-14 L2.5,-0.1 C2.6,-0.1 2.6,-0.1 2.6,-2.84217094e-14 C2.6,-2.84217094e-14 2.6,-2.84217094e-14 2.6,0.1 L1.7,2 L1.6,2.1 C1.6,2.1 1.5,2 1.5,1.9 L1.5,1.9 L1.5,1.9 Z" id="Shape"></path>
                        <path d="M3.1,1.6 L3.7,0.5 L3,0.5 C2.9,0.5 2.9,0.4 2.9,0.4 C2.9,0.3 3,0.3 3,0.3 L3.9,0.3 C4,0.3 4,0.3 4,0.4 L4,0.5 L3.4,1.7 C3.4,1.8 3.3,1.8 3.3,1.8 C3.2,1.8 3.1,1.7 3.1,1.6 L3.1,1.6 L3.1,1.6 Z" id="Shape"></path>
                        <path id="Shape" d="M4.2,2 C4.3,2 4.4,1.9 4.4,1.8 C4.3,1.8 4.3,1.7 4.3,1.6 L4.3,1.6 C4.3,1.5 4.4,1.5 4.5,1.5 C4.6,1.5 4.7,1.6 4.7,1.7 L4.7,1.7 C4.7,1.9 4.7,2 4.6,2 C4.5,2.1 4.5,2.1 4.4,2.1 C4.2,2.1 4.2,2.1 4.2,2 L4.2,2 L4.2,2 Z"></path>
                        <path d="M5.1,1.5 L5.6,1.1 C5.8,0.9 5.9,0.8 5.9,0.7 C5.9,0.5 5.8,0.5 5.6,0.5 C5.5,0.5 5.4,0.6 5.3,0.7 L5.2,0.7 C5.1,0.7 5.1,0.6 5.1,0.6 L5.1,0.5 C5.2,0.3 5.4,0.2 5.6,0.2 C5.9,0.2 6.1,0.4 6.1,0.7 L6.1,0.7 C6.1,0.9 6,1.1 5.7,1.3 L5.4,1.6 L6,1.6 C6.1,1.6 6.1,1.7 6.1,1.7 C6.1,1.8 6,1.8 6,1.8 L5.1,1.8 C5,1.8 5,1.8 5,1.7 C5,1.6 5,1.5 5.1,1.5 L5.1,1.5 Z" id="Shape"></path>
                    </g>
                    <g id="Group" transform="translate(1.000000, 25.000000)">
                        <path d="M0.1,1.9 L0.6,1.5 C0.8,1.3 0.9,1.2 0.9,1.1 C0.9,0.9 0.8,0.9 0.6,0.9 C0.5,0.9 0.4,1 0.3,1.1 L0.2,1.1 C0.1,1.1 0.1,1 0.1,1 L0.1,0.9 C0.2,0.7 0.4,0.6 0.6,0.6 C0.9,0.6 1.1,0.8 1.1,1.1 L1.1,1.1 C1.1,1.3 1,1.5 0.7,1.7 L0.4,2 L1,2 C1.1,2 1.1,2.1 1.1,2.1 C1.1,2.2 1,2.2 1,2.2 L0.1,2.2 C-2.84217094e-14,2.2 -2.84217094e-14,2.2 -2.84217094e-14,2.1 C0,2 0,2 0.1,1.9 L0.1,1.9 Z" id="Shape"></path>
                        <path d="M1.5,2.3 L2.4,0.4 L2.5,0.3 C2.6,0.3 2.6,0.3 2.6,0.4 C2.6,0.4 2.6,0.4 2.6,0.5 L1.7,2.4 L1.6,2.5 C1.5,2.5 1.5,2.4 1.5,2.3 C1.5,2.4 1.5,2.3 1.5,2.3 L1.5,2.3 Z" id="Shape"></path>
                        <path d="M2.9,2 C2.9,2 2.9,1.9 2.9,2 C2.9,1.8 2.9,1.8 3,1.8 L3.1,1.8 C3.2,1.9 3.3,1.9 3.5,1.9 C3.7,1.9 3.8,1.8 3.8,1.7 L3.8,1.7 C3.8,1.5 3.7,1.5 3.4,1.5 L3.3,1.5 C3.2,1.5 3.2,1.4 3.2,1.4 C3.2,1.4 3.2,1.3 3.3,1.3 L3.7,0.9 L3.1,0.9 C3,0.9 3,0.8 3,0.8 C3,0.7 3.1,0.7 3.1,0.7 L3.9,0.7 C4,0.7 4,0.7 4,0.8 C4,0.9 4,0.9 3.9,0.9 L3.5,1.3 C3.7,1.3 4,1.4 4,1.7 L4,1.7 C4,2 3.8,2.2 3.5,2.2 C3.2,2.2 3.1,2.1 2.9,2 L2.9,2 Z" id="Shape"></path>
                        <path id="Shape" d="M4.4,2.4 C4.5,2.4 4.6,2.3 4.6,2.2 C4.5,2.2 4.5,2.1 4.5,2 L4.5,2 C4.5,1.9 4.6,1.9 4.7,1.9 C4.8,1.9 4.9,2 4.9,2.1 L4.9,2.1 C4.9,2.3 4.9,2.4 4.8,2.4 C4.7,2.5 4.7,2.5 4.6,2.5 C4.4,2.5 4.4,2.5 4.4,2.4 L4.4,2.4 L4.4,2.4 Z"></path>
                        <path id="Shape" d="M5.4,0.9 L5.2,0.9 L5.2,0.9 C5.1,0.9 5.1,0.8 5.1,0.8 C5.1,0.7 5.1,0.7 5.2,0.7 L5.4,0.6 L5.5,0.6 L5.5,0.6 C5.6,0.6 5.6,0.7 5.6,0.7 L5.6,2 C5.6,2.1 5.5,2.1 5.5,2.1 C5.4,2.1 5.4,2 5.4,2 L5.4,0.9 L5.4,0.9 Z"></path>
                    </g>
                    <path d="M0,5.8 L0,9.2 L3.2,9.2 L3.2,5.8 L0,5.8 L0,5.8 Z M2.2,7.7 C2.2,8 2,8.2 1.6,8.2 C1.4,8.2 1.2,8.1 1.1,8 L1,7.9 C1,7.8 1.1,7.8 1.1,7.8 L1.2,7.8 C1.3,7.9 1.4,7.9 1.5,7.9 C1.7,7.9 1.8,7.8 1.8,7.6 L1.8,7.6 C1.8,7.4 1.7,7.3 1.5,7.3 C1.3,7.3 1.3,7.4 1.2,7.4 C1.2,7.4 1.1,7.4 1.1,7.3 L1,7.2 L1,6.6 C1,6.5 1.1,6.5 1.1,6.5 L1.8,6.5 C1.9,6.5 1.9,6.6 1.9,6.6 C1.9,6.7 1.8,6.7 1.8,6.7 L1.2,6.7 L1.2,7.1 L1.4,7.1 C1.9,7.2 2.2,7.3 2.2,7.7 L2.2,7.7 L2.2,7.7 Z" id="Shape"></path>
                    <path d="M12.1,35.7 L12.1,39.1 L15.3,39.1 L15.3,35.7 L12.1,35.7 L12.1,35.7 Z M14.2,38.1 L13.3,38.1 C13.2,38.1 13.2,38.1 13.2,38 C13.2,37.9 13.2,37.9 13.3,37.9 L13.8,37.5 C14,37.3 14.1,37.2 14.1,37.1 C14.1,36.9 14,36.9 13.8,36.9 C13.7,36.9 13.6,37 13.5,37.1 L13.4,37.1 C13.3,37.1 13.3,37 13.3,37 L13.3,36.9 C13.4,36.7 13.6,36.6 13.8,36.6 C14.1,36.6 14.3,36.8 14.3,37.1 L14.3,37.1 C14.3,37.3 14.2,37.5 13.9,37.7 L13.6,38 L14.2,38 C14.3,38 14.3,38.1 14.3,38.1 C14.3,38 14.3,38.1 14.2,38.1 L14.2,38.1 Z" id="Shape"></path>
                    <path d="M57.8,38.4 L57.8,41.8 L61,41.8 L61,38.4 L57.8,38.4 L57.8,38.4 Z M58.9,40.3 L58.5,40.3 C58.4,40.3 58.4,40.2 58.4,40.2 C58.4,40.1 58.5,40.1 58.5,40.1 L58.9,40.1 C59,40.1 59,40.2 59,40.2 L58.9,40.3 L58.9,40.3 Z M60.4,40.8 L59.5,40.8 C59.4,40.8 59.4,40.8 59.4,40.7 C59.4,40.6 59.4,40.6 59.5,40.6 L60,40.2 C60.2,40 60.3,39.9 60.3,39.8 C60.3,39.6 60.2,39.6 60,39.6 C59.9,39.6 59.8,39.7 59.7,39.8 L59.6,39.8 C59.5,39.8 59.5,39.7 59.5,39.7 L59.5,39.6 C59.6,39.4 59.8,39.3 60,39.3 C60.3,39.3 60.5,39.5 60.5,39.8 L60.5,39.8 C60.5,40 60.4,40.2 60.1,40.4 L59.8,40.7 L60.4,40.7 C60.5,40.7 60.5,40.8 60.5,40.8 C60.5,40.8 60.5,40.8 60.4,40.8 L60.4,40.8 Z" id="Shape"></path>
                    <g id="Group" transform="translate(62.000000, 13.000000)">
                        <path d="M2,2.2 L2,1.6 L1.5,2.2 L2,2.2 Z" id="Shape"></path>
                        <path d="M-0.3,0.3 L-0.3,3.7 L2.9,3.7 L2.9,0.3 L-0.3,0.3 L-0.3,0.3 Z M0.7,2.2 L0.3,2.2 C0.2,2.2 0.2,2.1 0.2,2.1 C0.2,2 0.3,2 0.3,2 L0.7,2 C0.8,2 0.8,2.1 0.8,2.1 C0.8,2.1 0.7,2.2 0.7,2.2 L0.7,2.2 Z M2.4,2.4 L2.3,2.4 L2.3,2.6 C2.3,2.7 2.2,2.7 2.2,2.7 L2.1,2.6 L2.1,2.4 L1.4,2.4 C1.3,2.4 1.3,2.3 1.3,2.3 C1.3,2.2 1.3,2.2 1.4,2.2 L2.1,1.3 C2.1,1.2 2.2,1.2 2.3,1.2 C2.4,1.2 2.4,1.3 2.4,1.3 L2.4,2.2 L2.5,2.2 C2.6,2.2 2.6,2.3 2.6,2.3 C2.5,2.3 2.5,2.4 2.4,2.4 L2.4,2.4 Z" id="Shape"></path>
                    </g>
                    <path d="M60.1,0.1 L60.1,3.5 L63.3,3.5 L63.3,0.1 L60.1,0.1 L60.1,0.1 Z M61.5,2 L61,2 C60.9,2 60.9,1.9 60.9,1.9 C60.9,1.8 61,1.8 61,1.8 L61.4,1.8 C61.5,1.8 61.5,1.9 61.5,1.9 C61.6,1.9 61.5,2 61.5,2 L61.5,2 Z M62.5,2.4 C62.5,2.5 62.4,2.5 62.4,2.5 C62.3,2.5 62.3,2.4 62.3,2.4 L62.3,1.2 L62.1,1.2 L62.1,1.2 C62,1.2 62,1.1 62,1.1 C62,1 62,1 62.1,1 L62.3,0.9 L62.4,0.9 L62.4,0.9 C62.5,0.9 62.5,1 62.5,1 L62.5,2.4 L62.5,2.4 Z" id="Shape"></path>
                    <g id="Group" transform="translate(33.000000, 11.000000)">
                        <path d="M-0.2,-0.4 L-0.2,3 L3,3 L3,-0.4 L-0.2,-0.4 L-0.2,-0.4 Z M2.1,1.2 C2.1,1.6 1.8,2 1.4,2 C1,2 0.7,1.6 0.7,1.2 L0.7,1.2 C0.7,0.8 1,0.4 1.4,0.4 C1.8,0.4 2.1,0.8 2.1,1.2 L2.1,1.2 L2.1,1.2 Z" id="Shape"></path>
                        <path d="M1.4,0.6 C1.2,0.6 1,0.8 1,1.2 L1,1.2 C1,1.5 1.2,1.8 1.4,1.8 C1.6,1.8 1.8,1.5 1.8,1.2 L1.8,1.2 C1.8,0.9 1.7,0.6 1.4,0.6 L1.4,0.6 Z" id="Shape"></path>
                    </g>
                </g>
                <g id="tablet-content-1-2" transform="translate(24.000000, 74.000000)" fill="#FFFFFF">
                    <path d="M58.4,9.8 C56.8,9.8 55.5,8.5 55.5,6.9 C55.5,5.3 56.8,4 58.4,4 C60,4 61.3,5.3 61.3,6.9 C61.3,8.5 60,9.8 58.4,9.8 L58.4,9.8 Z M58.4,4.3 C57,4.3 55.8,5.5 55.8,6.9 C55.8,8.3 57,9.5 58.4,9.5 C59.8,9.5 61,8.3 61,6.9 C61,5.5 59.9,4.3 58.4,4.3 L58.4,4.3 Z" id="Shape"></path>
                    <path d="M59,23 C57.4,23 56.1,21.7 56.1,20.1 C56.1,18.5 57.4,17.2 59,17.2 C60.6,17.2 61.9,18.5 61.9,20.1 C61.8,21.7 60.6,23 59,23 L59,23 Z M59,17.5 C57.6,17.5 56.4,18.7 56.4,20.1 C56.4,21.5 57.6,22.7 59,22.7 C60.4,22.7 61.6,21.5 61.6,20.1 C61.6,18.7 60.4,17.5 59,17.5 L59,17.5 Z" id="Shape"></path>
                    <path d="M55.7,38.1 C54.1,38.1 52.8,36.8 52.8,35.2 C52.8,33.6 54.1,32.3 55.7,32.3 C57.3,32.3 58.6,33.6 58.6,35.2 C58.6,36.8 57.3,38.1 55.7,38.1 L55.7,38.1 Z M55.7,32.7 C54.3,32.7 53.1,33.9 53.1,35.3 C53.1,36.7 54.3,37.9 55.7,37.9 C57.1,37.9 58.3,36.7 58.3,35.3 C58.3,33.9 57.1,32.7 55.7,32.7 L55.7,32.7 Z" id="Shape"></path>
                    <path d="M17.6,34.9 C16,34.9 14.7,33.6 14.7,32 C14.7,30.4 16,29.1 17.6,29.1 C19.2,29.1 20.5,30.4 20.5,32 C20.5,33.6 19.2,34.9 17.6,34.9 L17.6,34.9 Z M17.6,29.5 C16.2,29.5 15,30.7 15,32.1 C15,33.5 16.2,34.7 17.6,34.7 C19,34.7 20.2,33.5 20.2,32.1 C20.2,30.6 19,29.5 17.6,29.5 L17.6,29.5 Z" id="Shape"></path>
                    <path d="M34.4,22.4 C32.8,22.4 31.5,21.1 31.5,19.5 C31.5,17.9 32.8,16.6 34.4,16.6 C36,16.6 37.3,17.9 37.3,19.5 C37.3,21.1 36,22.4 34.4,22.4 L34.4,22.4 Z M34.4,17 C33,17 31.8,18.2 31.8,19.6 C31.8,21 33,22.2 34.4,22.2 C35.8,22.2 37,21 37,19.6 C37,18.1 35.8,17 34.4,17 L34.4,17 Z" id="Shape"></path>
                    <path d="M6.6,14.1 C5,14.1 3.7,12.8 3.7,11.2 C3.7,9.6 5,8.3 6.6,8.3 C8.2,8.3 9.5,9.6 9.5,11.2 C9.4,12.8 8.2,14.1 6.6,14.1 L6.6,14.1 Z M6.6,8.7 C5.2,8.7 4,9.9 4,11.3 C4,12.7 5.2,13.9 6.6,13.9 C8,13.9 9.2,12.7 9.2,11.3 C9.2,9.8 8,8.7 6.6,8.7 L6.6,8.7 Z" id="Shape"></path>
                    <path id="Shape" d="M6.6,11 L6.4,11 L6.4,11 C6.3,11 6.3,10.9 6.3,10.9 C6.3,10.8 6.3,10.8 6.4,10.8 L6.6,10.7 L6.7,10.7 L6.7,10.7 C6.8,10.7 6.8,10.8 6.8,10.8 L6.8,12.1 C6.8,12.2 6.7,12.2 6.7,12.2 C6.6,12.2 6.6,12.1 6.6,12.1 L6.6,11 L6.6,11 Z"></path>
                    <path d="M33.9,20.3 C33.9,20.2 33.8,20.2 33.9,20.3 C33.9,20.1 33.9,20.1 34,20.1 L34.1,20.1 C34.2,20.2 34.3,20.2 34.5,20.2 C34.7,20.2 34.8,20.1 34.8,20 L34.8,20 C34.8,19.8 34.7,19.8 34.4,19.8 L34.3,19.8 C34.2,19.8 34.2,19.7 34.2,19.7 C34.2,19.7 34.2,19.6 34.3,19.6 L34.7,19.2 L34,19.2 C33.9,19.2 33.9,19.1 33.9,19.1 C33.9,19 34,19 34,19 L34.8,19 C34.9,19 34.9,19 34.9,19.1 C34.9,19.2 34.9,19.2 34.8,19.2 L34.4,19.6 C34.6,19.6 34.9,19.7 34.9,20 L34.9,20 C34.9,20.3 34.7,20.5 34.4,20.5 C34.2,20.5 34,20.4 33.9,20.3 L33.9,20.3 Z" id="Shape"></path>
                    <path d="M17.1,32.3 L17.6,31.9 C17.8,31.7 17.9,31.6 17.9,31.5 C17.9,31.3 17.8,31.3 17.6,31.3 C17.5,31.3 17.4,31.4 17.3,31.5 L17.2,31.5 C17.1,31.5 17.1,31.4 17.1,31.4 L17.1,31.3 C17.2,31.1 17.4,31 17.6,31 C17.9,31 18.1,31.2 18.1,31.5 L18.1,31.5 C18.1,31.7 18,31.9 17.7,32.1 L17.4,32.4 L18,32.4 C18.1,32.4 18.1,32.5 18.1,32.5 C18.1,32.6 18,32.6 18,32.6 L17.1,32.6 C17,32.6 17,32.6 17,32.5 C17,32.3 17,32.3 17.1,32.3 L17.1,32.3 Z" id="Shape"></path>
                    <path d="M55.9,35.8 L55.2,35.8 C55.1,35.8 55.1,35.7 55.1,35.7 C55.1,35.6 55.1,35.6 55.2,35.6 L55.9,34.7 C55.9,34.6 56,34.6 56.1,34.6 C56.2,34.6 56.2,34.7 56.2,34.7 L56.2,35.6 L56.3,35.6 C56.4,35.6 56.4,35.7 56.4,35.7 C56.4,35.8 56.4,35.8 56.3,35.8 L56.2,35.8 L56.2,36 C56.2,36.1 56.1,36.1 56.1,36.1 L56,36 L56,35.8 L55.9,35.8 Z M55.9,35.6 L55.9,35 L55.4,35.6 L55.9,35.6 L55.9,35.6 Z" id="Shape"></path>
                    <path d="M58.5,20.7 L58.4,20.6 C58.4,20.5 58.5,20.5 58.5,20.5 L58.6,20.5 C58.7,20.6 58.8,20.6 58.9,20.6 C59.1,20.6 59.2,20.5 59.2,20.3 L59.2,20.3 C59.2,20.1 59.1,20 58.9,20 C58.7,20 58.7,20.1 58.6,20.1 C58.6,20.1 58.5,20.1 58.5,20 L58.4,19.9 L58.4,19.3 C58.4,19.2 58.5,19.2 58.5,19.2 L59.2,19.2 C59.3,19.2 59.3,19.3 59.3,19.3 C59.3,19.4 59.2,19.4 59.2,19.4 L58.6,19.4 L58.6,19.8 L58.8,19.8 C59.1,19.8 59.3,20 59.3,20.3 L59.3,20.3 C59.3,20.6 59.1,20.8 58.7,20.8 C58.8,20.9 58.6,20.8 58.5,20.7 L58.5,20.7 Z" id="Shape"></path>
                    <path d="M58.1,7.5 C58,7.4 57.9,7.2 57.9,6.9 L57.9,6.9 C57.9,6.4 58.1,6 58.6,6 C58.8,6 58.9,6 59,6.1 L59.1,6.2 C59.1,6.3 59,6.3 59,6.3 C59,6.3 59,6.3 58.9,6.3 C58.8,6.2 58.7,6.2 58.6,6.2 C58.4,6.2 58.2,6.4 58.2,6.7 C58.3,6.6 58.4,6.5 58.6,6.5 C58.9,6.5 59.1,6.7 59.1,7 L59.1,7 C59.1,7.3 58.8,7.5 58.5,7.5 C58.3,7.7 58.2,7.6 58.1,7.5 L58.1,7.5 Z M58.8,7.1 L58.8,7.1 C58.8,6.9 58.7,6.8 58.5,6.8 C58.3,6.8 58.2,6.9 58.2,7.1 L58.2,7.1 C58.2,7.3 58.3,7.4 58.5,7.4 C58.7,7.4 58.8,7.3 58.8,7.1 L58.8,7.1 Z" id="Shape"></path>
                    <path d="M35.9,16.6 C35.9,16.5 36,16.4 36.1,16.4 L36.1,16.4 C36.2,16.4 36.3,16.5 36.3,16.6 L36.3,16.6 C36.3,16.7 36.2,16.8 36.1,16.8 L36.1,16.8 C36,16.8 35.9,16.7 35.9,16.6 L35.9,16.6 Z M36.2,15.7 C36.1,15.7 36,15.6 36,15.4 L36,15.4 C36,15.3 36.1,15.2 36.3,15.2 L36.3,15.2 C36.4,15.2 36.5,15.3 36.5,15.5 L36.5,15.5 C36.4,15.6 36.3,15.7 36.2,15.7 L36.2,15.7 L36.2,15.7 L36.2,15.7 Z M36.5,14.6 C36.4,14.6 36.3,14.4 36.4,14.3 L36.4,14.3 C36.4,14.2 36.6,14.1 36.7,14.2 L36.7,14.2 C36.8,14.2 36.9,14.4 36.8,14.5 L36.8,14.5 C36.7,14.6 36.6,14.6 36.5,14.6 L36.5,14.6 L36.5,14.6 L36.5,14.6 Z M36.9,13.6 C36.8,13.5 36.8,13.4 36.8,13.3 L36.8,13.3 C36.9,13.2 37,13.2 37.1,13.2 L37.1,13.2 C37.2,13.3 37.2,13.4 37.2,13.5 L37.2,13.5 C37.2,13.6 37.1,13.6 37,13.6 L37,13.6 L36.9,13.6 L36.9,13.6 Z M37.6,12.6 C37.5,12.5 37.5,12.4 37.6,12.3 L37.6,12.3 L37.6,12.3 L37.6,12.3 C37.7,12.2 37.8,12.2 37.9,12.3 L37.9,12.3 C38,12.4 38,12.5 37.9,12.6 L37.9,12.6 C37.9,12.7 37.8,12.7 37.7,12.7 L37.7,12.7 C37.7,12.7 37.6,12.7 37.6,12.6 L37.6,12.6 Z M38.3,11.8 C38.2,11.7 38.2,11.6 38.3,11.5 L38.3,11.5 C38.4,11.4 38.5,11.4 38.6,11.5 L38.6,11.5 C38.7,11.6 38.7,11.7 38.6,11.8 L38.6,11.8 L38.5,11.9 L38.5,11.9 C38.4,11.8 38.4,11.8 38.3,11.8 L38.3,11.8 Z M39.2,11 C39.1,10.9 39.1,10.8 39.2,10.7 L39.2,10.7 C39.3,10.6 39.4,10.6 39.5,10.7 L39.5,10.7 C39.6,10.8 39.6,10.9 39.5,11 L39.5,11 L39.4,11 L39.4,11 C39.3,11.1 39.2,11.1 39.2,11 L39.2,11 Z M40.1,10.3 C40,10.2 40.1,10.1 40.2,10 L40.2,10 C40.3,9.9 40.4,10 40.5,10.1 L40.5,10.1 C40.6,10.2 40.5,10.3 40.4,10.4 L40.4,10.4 L40.3,10.4 L40.3,10.4 C40.2,10.4 40.2,10.4 40.1,10.3 L40.1,10.3 Z M41.1,9.7 C41,9.6 41.1,9.5 41.2,9.4 L41.2,9.4 C41.3,9.3 41.4,9.4 41.5,9.5 L41.5,9.5 C41.6,9.6 41.5,9.7 41.4,9.8 L41.4,9.8 L41.3,9.8 L41.3,9.8 C41.2,9.8 41.1,9.8 41.1,9.7 L41.1,9.7 Z M42.1,9.2 C42,9.1 42.1,9 42.2,8.9 L42.2,8.9 C42.3,8.8 42.4,8.9 42.5,9 L42.5,9 C42.5,9.1 42.5,9.2 42.4,9.3 L42.4,9.3 L42.3,9.3 L42.3,9.3 C42.2,9.3 42.1,9.3 42.1,9.2 L42.1,9.2 Z M43.1,8.7 C43.1,8.6 43.1,8.5 43.2,8.4 L43.2,8.4 L43.2,8.4 L43.2,8.4 C43.3,8.4 43.4,8.4 43.5,8.5 L43.5,8.5 C43.5,8.6 43.5,8.7 43.4,8.8 L43.4,8.8 L43.3,8.8 L43.3,8.8 C43.2,8.9 43.2,8.8 43.1,8.7 L43.1,8.7 Z M44.2,8.3 C44.2,8.2 44.2,8.1 44.3,8 L44.3,8 C44.4,8 44.5,8 44.6,8.1 L44.6,8.1 C44.6,8.2 44.6,8.3 44.5,8.4 L44.5,8.4 C44.5,8.4 44.5,8.4 44.4,8.4 L44.4,8.4 C44.3,8.5 44.2,8.4 44.2,8.3 L44.2,8.3 Z M45.3,8 C45.3,7.9 45.3,7.8 45.4,7.7 L45.4,7.7 C45.5,7.7 45.6,7.7 45.7,7.8 L45.7,7.8 C45.7,7.9 45.7,8 45.6,8.1 L45.6,8.1 C45.6,8.1 45.6,8.1 45.5,8.1 L45.5,8.1 C45.4,8.1 45.3,8.1 45.3,8 L45.3,8 Z M46.4,7.7 C46.4,7.6 46.4,7.5 46.6,7.4 L46.6,7.4 C46.7,7.4 46.8,7.4 46.9,7.6 L46.9,7.6 C46.9,7.7 46.9,7.8 46.7,7.9 L46.7,7.9 L46.7,7.9 L46.7,7.9 C46.5,7.8 46.4,7.8 46.4,7.7 L46.4,7.7 Z M47.5,7.4 C47.5,7.3 47.6,7.2 47.7,7.2 L47.7,7.2 C47.8,7.2 47.9,7.3 48,7.4 L48,7.4 C48,7.5 47.9,7.6 47.8,7.7 L47.8,7.7 L47.8,7.7 L47.8,7.7 C47.6,7.6 47.5,7.5 47.5,7.4 L47.5,7.4 Z M48.6,7.2 C48.6,7.1 48.7,7 48.8,7 L48.8,7 C48.9,7 49,7.1 49,7.2 L49,7.2 C49,7.3 48.9,7.4 48.8,7.4 L48.8,7.4 L48.8,7.4 L48.8,7.4 C48.7,7.4 48.6,7.3 48.6,7.2 L48.6,7.2 Z M49.8,7.1 C49.8,7 49.9,6.9 50,6.9 L50,6.9 C50.1,6.9 50.2,7 50.2,7.1 L50.2,7.1 C50.2,7.2 50.1,7.3 50,7.3 L50,7.3 L50,7.3 L50,7.3 C49.9,7.3 49.8,7.2 49.8,7.1 L49.8,7.1 Z M50.9,7 C50.9,6.9 51,6.8 51.1,6.8 L51.1,6.8 L51.1,6.8 L51.1,6.8 C51.2,6.8 51.3,6.9 51.3,7 L51.3,7 C51.3,7.1 51.2,7.2 51.1,7.2 L51.1,7.2 L51.1,7.2 L51.1,7.2 C51,7.2 50.9,7.1 50.9,7 L50.9,7 Z M52,6.9 C52,6.8 52.1,6.7 52.2,6.7 L52.2,6.7 C52.3,6.7 52.4,6.8 52.4,6.9 L52.4,6.9 C52.4,7 52.3,7.1 52.2,7.1 L52.2,7.1 L52.2,7.1 L52.2,7.1 C52.1,7.1 52,7 52,6.9 L52,6.9 Z" id="Shape"></path>
                    <path id="Shape"></path>
                    <path d="M50.2,34.8 C50.1,34.8 50,34.7 50,34.6 L50,34.6 C50,34.5 50.1,34.4 50.2,34.4 L50.2,34.4 C50.3,34.4 50.4,34.5 50.4,34.6 L50.4,34.6 C50.4,34.7 50.3,34.8 50.2,34.8 L50.2,34.8 L50.2,34.8 L50.2,34.8 Z M49,34.7 L49,34.7 C48.9,34.7 48.8,34.6 48.8,34.5 L48.8,34.5 C48.8,34.4 48.9,34.3 49,34.3 L49,34.3 C49.1,34.3 49.2,34.4 49.2,34.5 L49.2,34.5 C49.3,34.7 49.2,34.7 49,34.7 L49,34.7 L49,34.7 L49,34.7 Z M47.9,34.6 C47.8,34.6 47.7,34.5 47.7,34.4 L47.7,34.4 C47.7,34.3 47.8,34.2 47.9,34.2 L47.9,34.2 C48,34.2 48.1,34.3 48.1,34.4 L48.1,34.4 C48.1,34.5 48,34.6 47.9,34.6 L47.9,34.6 L47.9,34.6 L47.9,34.6 Z M46.8,34.4 C46.7,34.4 46.6,34.3 46.6,34.1 L46.6,34.1 C46.6,34 46.7,33.9 46.9,33.9 L46.9,33.9 C47,33.9 47.1,34 47.1,34.2 L47.1,34.2 C47,34.3 46.9,34.4 46.8,34.4 L46.8,34.4 L46.8,34.4 L46.8,34.4 Z M45.6,34.1 C45.5,34.1 45.4,33.9 45.5,33.8 L45.5,33.8 C45.5,33.7 45.7,33.6 45.8,33.7 L45.8,33.7 C45.9,33.7 46,33.8 45.9,34 L45.9,34 C45.9,34.1 45.8,34.1 45.6,34.1 L45.6,34.1 L45.6,34.1 L45.6,34.1 Z M44.5,33.8 C44.4,33.8 44.3,33.6 44.4,33.5 L44.4,33.5 C44.4,33.4 44.6,33.3 44.7,33.4 L44.7,33.4 C44.8,33.4 44.9,33.6 44.8,33.7 L44.8,33.7 C44.8,33.7 44.7,33.8 44.5,33.8 L44.5,33.8 L44.5,33.8 L44.5,33.8 Z M43.5,33.3 C43.4,33.3 43.3,33.1 43.4,33 L43.4,33 C43.4,32.9 43.6,32.8 43.7,32.9 L43.7,32.9 C43.8,32.9 43.9,33.1 43.8,33.2 L43.8,33.2 C43.7,33.3 43.6,33.4 43.5,33.3 L43.5,33.3 C43.5,33.4 43.5,33.4 43.5,33.3 L43.5,33.3 Z M42.4,32.8 C42.3,32.7 42.3,32.6 42.3,32.5 L42.3,32.5 C42.4,32.4 42.5,32.4 42.6,32.4 L42.6,32.4 C42.7,32.5 42.7,32.6 42.7,32.7 L42.7,32.7 C42.7,32.8 42.6,32.9 42.4,32.8 L42.4,32.8 C42.5,32.9 42.5,32.9 42.4,32.8 L42.4,32.8 Z M41.4,32.3 L41.4,32.3 C41.3,32.2 41.3,32.1 41.3,32 L41.3,32 C41.4,31.9 41.5,31.9 41.6,31.9 L41.6,31.9 C41.7,32 41.7,32.1 41.7,32.2 L41.7,32.2 C41.7,32.3 41.6,32.3 41.5,32.3 L41.5,32.3 L41.4,32.3 L41.4,32.3 Z M40.5,31.6 L40.5,31.6 C40.4,31.5 40.4,31.4 40.5,31.3 L40.5,31.3 C40.6,31.2 40.7,31.2 40.8,31.3 L40.8,31.3 C40.9,31.4 40.9,31.5 40.8,31.6 L40.8,31.6 C40.8,31.7 40.7,31.7 40.6,31.7 L40.6,31.7 C40.5,31.7 40.5,31.6 40.5,31.6 L40.5,31.6 Z M39.6,30.9 C39.5,30.8 39.5,30.7 39.6,30.6 L39.6,30.6 C39.7,30.5 39.8,30.5 39.9,30.6 L39.9,30.6 C40,30.7 40,30.8 39.9,30.9 L39.9,30.9 C39.9,30.9 39.8,31 39.7,31 L39.7,31 L39.6,30.9 L39.6,30.9 Z M38.7,30.1 L38.7,30.1 C38.6,30 38.6,29.9 38.7,29.8 L38.7,29.8 C38.8,29.7 38.9,29.7 39,29.8 L39,29.8 C39.1,29.9 39.1,30 39,30.1 L39,30.1 L38.9,30.2 L38.9,30.2 C38.8,30.2 38.8,30.1 38.7,30.1 L38.7,30.1 Z M38,29.2 C37.9,29.1 37.9,29 38,28.9 L38,28.9 C38.1,28.8 38.2,28.8 38.3,28.9 L38.3,28.9 L38.3,28.9 L38.3,28.9 C38.4,29 38.4,29.1 38.3,29.2 L38.3,29.2 L38.2,29.2 L38.2,29.2 C38.1,29.3 38,29.3 38,29.2 L38,29.2 Z M37.3,28.3 L37.3,28.3 C37.2,28.2 37.3,28.1 37.4,28 L37.4,28 C37.5,27.9 37.6,28 37.7,28.1 L37.7,28.1 C37.8,28.2 37.7,28.3 37.6,28.4 L37.6,28.4 L37.5,28.4 L37.5,28.4 C37.4,28.4 37.3,28.3 37.3,28.3 L37.3,28.3 Z M36.7,27.3 L36.7,27.3 C36.6,27.2 36.7,27.1 36.8,27 L36.8,27 C36.9,26.9 37,27 37.1,27.1 L37.1,27.1 L37.1,27.1 L37.1,27.1 C37.2,27.2 37.1,27.3 37,27.4 L37,27.4 L36.9,27.4 L36.9,27.4 C36.8,27.4 36.7,27.3 36.7,27.3 L36.7,27.3 Z M36.2,26.2 L36.2,26.2 C36.2,26.1 36.2,26 36.3,25.9 L36.3,25.9 C36.4,25.9 36.5,25.9 36.6,26 L36.6,26 C36.6,26.1 36.6,26.2 36.5,26.3 L36.5,26.3 L36.4,26.3 L36.4,26.3 C36.3,26.3 36.3,26.3 36.2,26.2 L36.2,26.2 Z M35.9,25.1 C35.9,25 35.9,24.9 36.1,24.8 L36.1,24.8 C36.2,24.8 36.3,24.8 36.4,25 L36.4,25 C36.4,25.1 36.4,25.2 36.2,25.3 L36.2,25.3 C36.2,25.3 36.2,25.3 36.1,25.3 L36.1,25.3 C36,25.2 35.9,25.2 35.9,25.1 L35.9,25.1 Z M35.7,23.9 C35.7,23.8 35.8,23.7 35.9,23.7 L35.9,23.7 C36,23.7 36.1,23.8 36.1,23.9 L36.1,23.9 C36.1,24 36,24.1 35.9,24.1 L35.9,24.1 L35.9,24.1 L35.9,24.1 C35.8,24.1 35.7,24 35.7,23.9 L35.7,23.9 Z M35.6,22.8 C35.6,22.7 35.7,22.6 35.8,22.6 L35.8,22.6 C35.9,22.6 36,22.7 36,22.8 L36,22.8 L36,22.8 L36,22.8 C36,22.9 35.9,23 35.8,23 L35.8,23 C35.7,23 35.6,22.9 35.6,22.8 L35.6,22.8 Z" id="Shape"></path>
                    <path d="M57.5,31.8 C57.4,31.8 57.3,31.6 57.4,31.5 L57.4,31.5 L57.4,31.5 L57.4,31.5 C57.4,31.4 57.6,31.3 57.7,31.4 L57.7,31.4 C57.8,31.4 57.9,31.6 57.8,31.7 L57.8,31.7 C57.7,31.8 57.6,31.8 57.5,31.8 L57.5,31.8 L57.5,31.8 L57.5,31.8 Z M57.9,30.7 C57.8,30.7 57.7,30.5 57.8,30.4 L57.8,30.4 C57.8,30.3 58,30.2 58.1,30.3 L58.1,30.3 C58.2,30.3 58.3,30.5 58.2,30.6 L58.2,30.6 C58.1,30.7 58,30.7 57.9,30.7 L57.9,30.7 L57.9,30.7 L57.9,30.7 Z M58.2,29.7 C58.1,29.7 58,29.5 58.1,29.4 L58.1,29.4 C58.1,29.3 58.3,29.2 58.4,29.3 L58.4,29.3 C58.5,29.3 58.6,29.5 58.5,29.6 L58.5,29.6 C58.5,29.6 58.4,29.7 58.2,29.7 L58.2,29.7 L58.2,29.7 L58.2,29.7 Z M58.6,28.6 C58.5,28.6 58.4,28.4 58.5,28.3 L58.5,28.3 C58.5,28.2 58.7,28.1 58.8,28.2 L58.8,28.2 C58.9,28.2 59,28.4 58.9,28.5 L58.9,28.5 C58.8,28.5 58.8,28.6 58.6,28.6 L58.6,28.6 L58.6,28.6 L58.6,28.6 Z M58.9,27.5 C58.8,27.5 58.7,27.4 58.7,27.2 L58.7,27.2 C58.7,27.1 58.8,27 59,27 L59,27 C59.1,27 59.2,27.1 59.2,27.3 L59.2,27.3 C59.1,27.4 59.1,27.5 58.9,27.5 L58.9,27.5 L58.9,27.5 L58.9,27.5 Z M59.2,26.4 C59.1,26.4 59,26.3 59,26.2 L59,26.2 C59,26.1 59.1,26 59.2,26 L59.2,26 C59.3,26 59.4,26.1 59.4,26.3 L59.4,26.3 C59.4,26.3 59.3,26.4 59.2,26.4 L59.2,26.4 L59.2,26.4 L59.2,26.4 Z M59.4,25.2 C59.3,25.2 59.2,25.1 59.2,25 L59.2,25 C59.2,24.9 59.3,24.8 59.4,24.8 L59.4,24.8 C59.5,24.8 59.6,24.9 59.6,25 L59.6,25 C59.6,25.2 59.5,25.2 59.4,25.2 L59.4,25.2 L59.4,25.2 L59.4,25.2 Z M59.2,23.9 C59.2,23.8 59.3,23.7 59.4,23.7 L59.4,23.7 C59.5,23.7 59.6,23.8 59.6,23.9 L59.6,23.9 C59.6,24 59.5,24.1 59.4,24.1 L59.4,24.1 L59.4,24.1 L59.4,24.1 C59.3,24.1 59.2,24 59.2,23.9 L59.2,23.9 Z" id="Shape"></path>
                    <path d="M21.1,32 C21.1,31.9 21.2,31.8 21.3,31.8 L21.3,31.8 C21.4,31.8 21.5,31.9 21.5,32 L21.5,32 C21.5,32.1 21.4,32.2 21.3,32.2 L21.3,32.2 L21.3,32.2 L21.3,32.2 C21.2,32.2 21.1,32.1 21.1,32 L21.1,32 Z M22.2,32 C22.2,31.9 22.3,31.8 22.4,31.8 L22.4,31.8 C22.5,31.8 22.6,31.9 22.6,32 L22.6,32 C22.6,32.1 22.5,32.2 22.4,32.2 L22.4,32.2 L22.4,32.2 L22.4,32.2 C22.3,32.1 22.2,32.1 22.2,32 L22.2,32 Z M23.4,31.8 C23.4,31.7 23.5,31.6 23.6,31.6 L23.6,31.6 C23.7,31.6 23.8,31.7 23.8,31.8 L23.8,31.8 C23.8,31.9 23.7,32 23.6,32 L23.6,32 L23.6,32 L23.6,32 C23.5,32 23.4,31.9 23.4,31.8 L23.4,31.8 Z M24.5,31.6 C24.5,31.5 24.5,31.4 24.7,31.3 L24.7,31.3 C24.8,31.3 24.9,31.3 25,31.5 L25,31.5 C25,31.6 25,31.7 24.8,31.8 L24.8,31.8 C24.8,31.8 24.8,31.8 24.7,31.8 L24.7,31.8 C24.6,31.7 24.5,31.7 24.5,31.6 L24.5,31.6 Z M25.6,31.3 C25.6,31.2 25.6,31.1 25.7,31 L25.7,31 C25.8,31 25.9,31 26,31.1 L26,31.1 C26,31.2 26,31.3 25.9,31.4 L25.9,31.4 L25.9,31.4 L25.9,31.4 C25.9,31.4 25.9,31.4 25.8,31.4 L25.8,31.4 C25.7,31.4 25.6,31.4 25.6,31.3 L25.6,31.3 Z M26.7,30.9 C26.7,30.8 26.7,30.7 26.8,30.6 L26.8,30.6 C26.9,30.6 27,30.6 27.1,30.7 L27.1,30.7 C27.1,30.8 27.1,30.9 27,31 L27,31 L26.9,31 L26.9,31 C26.8,31 26.7,31 26.7,30.9 L26.7,30.9 Z M27.7,30.4 C27.6,30.3 27.7,30.2 27.8,30.1 L27.8,30.1 C27.9,30 28,30.1 28.1,30.2 L28.1,30.2 C28.2,30.3 28.1,30.4 28,30.5 L28,30.5 L27.9,30.5 L27.9,30.5 C27.8,30.5 27.7,30.5 27.7,30.4 L27.7,30.4 Z M28.7,29.9 C28.6,29.8 28.7,29.7 28.8,29.6 L28.8,29.6 C28.9,29.5 29,29.6 29.1,29.7 L29.1,29.7 C29.2,29.8 29.1,29.9 29,30 L29,30 L28.9,30 L28.9,30 C28.8,30 28.7,29.9 28.7,29.9 L28.7,29.9 Z M29.7,29.2 C29.6,29.1 29.6,29 29.7,28.9 L29.7,28.9 C29.8,28.8 29.9,28.8 30,28.9 L30,28.9 C30.1,29 30.1,29.1 30,29.2 L30,29.2 L29.9,29.2 L29.9,29.2 C29.8,29.3 29.7,29.3 29.7,29.2 L29.7,29.2 Z M30.5,28.5 C30.4,28.4 30.4,28.3 30.5,28.2 L30.5,28.2 C30.6,28.1 30.7,28.1 30.8,28.2 L30.8,28.2 C30.9,28.3 30.9,28.4 30.8,28.5 L30.8,28.5 L30.7,28.6 L30.7,28.6 C30.6,28.6 30.6,28.5 30.5,28.5 L30.5,28.5 Z M31.3,27.7 C31.2,27.6 31.2,27.5 31.3,27.4 L31.3,27.4 C31.4,27.3 31.5,27.3 31.6,27.4 L31.6,27.4 C31.7,27.5 31.7,27.6 31.6,27.7 L31.6,27.7 C31.6,27.8 31.5,27.8 31.4,27.8 L31.4,27.8 C31.4,27.7 31.4,27.7 31.3,27.7 L31.3,27.7 Z M32,26.8 C31.9,26.7 31.9,26.6 31.9,26.5 L31.9,26.5 C32,26.4 32.1,26.4 32.2,26.4 L32.2,26.4 C32.3,26.5 32.3,26.6 32.3,26.7 L32.3,26.7 C32.3,26.8 32.2,26.8 32.1,26.8 L32.1,26.8 L32,26.8 L32,26.8 Z M32.5,25.7 C32.4,25.7 32.3,25.5 32.4,25.4 L32.4,25.4 C32.4,25.3 32.6,25.2 32.7,25.3 L32.7,25.3 C32.8,25.3 32.9,25.5 32.8,25.6 L32.8,25.6 C32.8,25.7 32.7,25.8 32.5,25.7 L32.5,25.7 C32.6,25.8 32.5,25.8 32.5,25.7 L32.5,25.7 Z M32.9,24.7 C32.8,24.7 32.7,24.6 32.7,24.5 L32.7,24.5 C32.7,24.4 32.8,24.3 33,24.3 L33,24.3 C33.1,24.3 33.2,24.4 33.2,24.5 L33.2,24.5 C33.1,24.6 33,24.7 32.9,24.7 L32.9,24.7 L32.9,24.7 L32.9,24.7 Z M32.8,23.3 C32.8,23.2 32.9,23.1 33,23.1 L33,23.1 C33.1,23.1 33.2,23.2 33.2,23.3 L33.2,23.3 C33.2,23.4 33.1,23.5 33,23.5 L33,23.5 C32.9,23.5 32.8,23.4 32.8,23.3 L32.8,23.3 Z" id="Shape"></path>
                    <path d="M31.7,16.1 L31.7,16.1 C31.7,16 31.8,15.9 31.9,15.9 L31.9,15.9 C32,15.9 32.1,16 32.1,16.1 L32.1,16.1 C32.1,16.2 32,16.3 31.9,16.3 L31.9,16.3 C31.8,16.3 31.7,16.2 31.7,16.1 L31.7,16.1 Z M31.4,15.2 L31.4,15.2 C31.3,15.1 31.4,15 31.5,14.9 L31.5,14.9 C31.6,14.8 31.7,14.9 31.8,15 L31.8,15 C31.9,15.1 31.8,15.2 31.7,15.3 L31.7,15.3 L31.6,15.3 L31.6,15.3 C31.5,15.3 31.4,15.2 31.4,15.2 L31.4,15.2 Z M30.7,14.4 C30.6,14.3 30.6,14.2 30.7,14.1 L30.7,14.1 C30.8,14 30.9,14 31,14.1 L31,14.1 C31.1,14.2 31.1,14.3 31,14.4 L31,14.4 C31,14.5 30.9,14.5 30.8,14.5 L30.8,14.5 L30.7,14.4 L30.7,14.4 Z M29.7,13.8 L29.7,13.8 C29.6,13.7 29.6,13.6 29.6,13.5 L29.6,13.5 C29.7,13.4 29.8,13.4 29.9,13.4 L29.9,13.4 C30,13.5 30,13.6 30,13.7 L30,13.7 C30,13.8 29.9,13.8 29.8,13.8 L29.8,13.8 C29.8,13.8 29.8,13.8 29.7,13.8 L29.7,13.8 Z M28.7,13.3 C28.6,13.2 28.5,13.1 28.6,13 L28.6,13 C28.6,12.9 28.8,12.8 28.9,12.9 L28.9,12.9 C29,12.9 29.1,13.1 29,13.2 L29,13.2 C29,13.2 28.9,13.3 28.7,13.3 L28.7,13.3 L28.7,13.3 L28.7,13.3 Z M27.7,12.8 L27.7,12.8 C27.6,12.8 27.5,12.6 27.6,12.5 L27.6,12.5 C27.6,12.4 27.8,12.3 27.9,12.4 L27.9,12.4 C28,12.4 28.1,12.6 28,12.7 L28,12.7 C27.9,12.8 27.9,12.9 27.7,12.8 L27.7,12.8 C27.7,12.9 27.7,12.9 27.7,12.8 L27.7,12.8 Z M26.6,12.5 C26.5,12.5 26.4,12.3 26.5,12.2 L26.5,12.2 C26.5,12.1 26.7,12 26.8,12.1 L26.8,12.1 C26.9,12.1 27,12.3 26.9,12.4 L26.9,12.4 C26.9,12.4 26.8,12.5 26.6,12.5 L26.6,12.5 L26.6,12.5 L26.6,12.5 Z M25.5,12.2 C25.4,12.2 25.3,12 25.3,11.9 L25.3,11.9 C25.3,11.8 25.5,11.7 25.6,11.8 L25.6,11.8 C25.7,11.8 25.8,11.9 25.8,12.1 L25.8,12.1 C25.8,12.1 25.7,12.2 25.5,12.2 L25.5,12.2 L25.5,12.2 L25.5,12.2 Z M24.4,11.9 L24.4,11.9 L24.4,11.9 C24.3,11.9 24.2,11.8 24.2,11.6 L24.2,11.6 C24.2,11.5 24.3,11.4 24.5,11.4 L24.5,11.4 C24.6,11.4 24.7,11.5 24.7,11.7 L24.7,11.7 C24.7,11.8 24.6,11.9 24.4,11.9 L24.4,11.9 L24.4,11.9 L24.4,11.9 Z M23.3,11.6 C23.2,11.6 23.1,11.5 23.1,11.3 L23.1,11.3 C23.1,11.2 23.2,11.1 23.4,11.1 L23.4,11.1 C23.5,11.1 23.6,11.2 23.6,11.4 L23.6,11.4 C23.6,11.6 23.5,11.6 23.3,11.6 L23.3,11.6 L23.3,11.6 L23.3,11.6 Z M22.2,11.4 C22.1,11.4 22,11.3 22,11.2 L22,11.2 C22,11.1 22.1,11 22.3,11 L22.3,11 C22.4,11 22.5,11.1 22.5,11.2 L22.5,11.2 C22.4,11.3 22.4,11.4 22.2,11.4 L22.2,11.4 L22.2,11.4 L22.2,11.4 Z M21.1,11.2 L21.1,11.2 C21,11.2 20.9,11.1 20.9,11 L20.9,11 C20.9,10.9 21,10.8 21.1,10.8 L21.1,10.8 C21.2,10.8 21.3,10.9 21.3,11 L21.3,11 C21.3,11.1 21.2,11.2 21.1,11.2 L21.1,11.2 L21.1,11.2 L21.1,11.2 Z M20,11 C19.9,11 19.8,10.9 19.8,10.8 L19.8,10.8 C19.8,10.7 19.9,10.6 20,10.6 L20,10.6 C20.1,10.6 20.2,10.7 20.2,10.8 L20.2,10.8 C20.2,11 20.1,11 20,11 L20,11 L20,11 L20,11 Z M18.8,10.9 C18.7,10.9 18.6,10.8 18.6,10.7 L18.6,10.7 C18.6,10.6 18.7,10.5 18.8,10.5 L18.8,10.5 C18.9,10.5 19,10.6 19,10.7 L19,10.7 C19.1,10.8 19,10.9 18.8,10.9 L18.8,10.9 L18.8,10.9 L18.8,10.9 Z M17.7,10.7 C17.6,10.7 17.5,10.6 17.5,10.5 L17.5,10.5 C17.5,10.4 17.6,10.3 17.7,10.3 L17.7,10.3 C17.8,10.3 17.9,10.4 17.9,10.5 L17.9,10.5 C17.9,10.7 17.8,10.7 17.7,10.7 L17.7,10.7 L17.7,10.7 L17.7,10.7 Z M16.6,10.6 C16.5,10.6 16.4,10.5 16.4,10.4 L16.4,10.4 C16.4,10.3 16.5,10.2 16.6,10.2 L16.6,10.2 C16.7,10.2 16.8,10.3 16.8,10.4 L16.8,10.4 C16.8,10.6 16.7,10.6 16.6,10.6 L16.6,10.6 L16.6,10.6 L16.6,10.6 Z M15.4,10.5 C15.3,10.5 15.2,10.4 15.2,10.3 L15.2,10.3 C15.2,10.2 15.3,10.1 15.4,10.1 L15.4,10.1 C15.5,10.1 15.6,10.2 15.6,10.3 L15.6,10.3 C15.7,10.5 15.6,10.5 15.4,10.5 L15.4,10.5 L15.4,10.5 L15.4,10.5 Z M14.1,10.2 C14.1,10.1 14.2,10 14.3,10 L14.3,10 C14.4,10 14.5,10.1 14.5,10.2 L14.5,10.2 C14.5,10.3 14.4,10.4 14.3,10.4 L14.3,10.4 L14.3,10.4 L14.3,10.4 C14.2,10.5 14.1,10.3 14.1,10.2 L14.1,10.2 Z M13.2,10.4 C13.1,10.4 13,10.3 13,10.2 L13,10.2 C13,10.1 13.1,10 13.2,10 L13.2,10 C13.3,10 13.4,10.1 13.4,10.2 L13.4,10.2 C13.4,10.3 13.3,10.4 13.2,10.4 L13.2,10.4 L13.2,10.4 L13.2,10.4 Z M12,10.3 L12,10.3 C11.9,10.3 11.8,10.2 11.8,10.1 L11.8,10.1 C11.8,10 11.9,9.9 12,9.9 L12,9.9 C12.1,9.9 12.2,10 12.2,10.1 L12.2,10.1 C12.2,10.3 12.1,10.3 12,10.3 L12,10.3 L12,10.3 L12,10.3 Z M10.9,10.3 C10.8,10.3 10.7,10.2 10.7,10.1 L10.7,10.1 C10.7,10 10.8,9.9 10.9,9.9 L10.9,9.9 C11,9.9 11.1,10 11.1,10.1 L11.1,10.1 C11.1,10.2 11,10.3 10.9,10.3 L10.9,10.3 L10.9,10.3 L10.9,10.3 Z M9.7,10.3 C9.6,10.3 9.5,10.2 9.5,10.1 L9.5,10.1 C9.5,10 9.6,9.9 9.7,9.9 L9.7,9.9 C9.8,9.9 9.9,10 9.9,10.1 L9.9,10.1 C10,10.2 9.9,10.3 9.7,10.3 L9.7,10.3 L9.7,10.3 L9.7,10.3 Z" id="Shape"></path>
                    <path d="M13.2,31.1 L13.2,31.1 C13.1,31.1 13,31 13,30.9 L13,30.9 C13,30.8 13.1,30.7 13.2,30.7 L13.2,30.7 C13.3,30.7 13.4,30.8 13.4,30.9 L13.4,30.9 C13.4,31 13.3,31.1 13.2,31.1 L13.2,31.1 L13.2,31.1 L13.2,31.1 Z M12.1,30.7 C12,30.6 12,30.5 12,30.4 L12,30.4 C12.1,30.3 12.2,30.3 12.3,30.3 L12.3,30.3 C12.4,30.4 12.4,30.5 12.4,30.6 L12.4,30.6 C12.3,30.7 12.2,30.7 12.1,30.7 L12.1,30.7 L12.1,30.7 L12.1,30.7 Z M11.1,30 L11.1,30 C11,29.9 11,29.8 11.1,29.7 L11.1,29.7 C11.2,29.6 11.3,29.6 11.4,29.7 L11.4,29.7 C11.5,29.8 11.5,29.9 11.4,30 L11.4,30 C11.4,30.1 11.3,30.1 11.2,30.1 L11.2,30.1 C11.2,30.1 11.1,30 11.1,30 L11.1,30 Z M10.2,29.2 L10.2,29.2 C10.1,29.1 10.1,29 10.2,28.9 L10.2,28.9 C10.3,28.8 10.4,28.8 10.5,28.9 L10.5,28.9 C10.6,29 10.6,29.1 10.5,29.2 L10.5,29.2 L10.4,29.3 L10.4,29.3 C10.3,29.3 10.3,29.2 10.2,29.2 L10.2,29.2 Z M9.5,28.2 C9.4,28.1 9.5,28 9.6,27.9 L9.6,27.9 C9.7,27.8 9.8,27.9 9.9,28 L9.9,28 C10,28.1 9.9,28.2 9.8,28.3 L9.8,28.3 L9.7,28.3 L9.7,28.3 C9.7,28.3 9.6,28.3 9.5,28.2 L9.5,28.2 Z M9,27.2 C8.9,27.1 9,27 9.1,26.9 L9.1,26.9 C9.2,26.8 9.3,26.9 9.4,27 L9.4,27 C9.5,27.1 9.4,27.2 9.3,27.3 L9.3,27.3 L9.2,27.3 L9.2,27.3 C9.1,27.4 9,27.3 9,27.2 L9,27.2 Z M8.4,26.2 C8.4,26.1 8.4,26 8.5,25.9 L8.5,25.9 C8.6,25.9 8.7,25.9 8.8,26 L8.8,26 C8.8,26.1 8.8,26.2 8.7,26.3 L8.7,26.3 L8.6,26.3 L8.6,26.3 C8.6,26.3 8.5,26.3 8.4,26.2 L8.4,26.2 Z M8,25.1 C8,25 8,24.9 8.1,24.8 L8.1,24.8 C8.2,24.8 8.3,24.8 8.4,24.9 L8.4,24.9 C8.4,25 8.4,25.1 8.3,25.2 L8.3,25.2 L8.2,25.2 L8.2,25.2 C8.1,25.3 8,25.2 8,25.1 L8,25.1 Z M7.6,24 C7.6,23.9 7.6,23.8 7.7,23.7 L7.7,23.7 C7.8,23.7 7.9,23.7 8,23.8 L8,23.8 C8,23.9 8,24 7.9,24.1 L7.9,24.1 C7.9,24.1 7.9,24.1 7.8,24.1 L7.8,24.1 C7.8,24.2 7.7,24.1 7.6,24 L7.6,24 Z M7.3,22.9 C7.3,22.8 7.3,22.7 7.5,22.6 L7.5,22.6 C7.6,22.6 7.7,22.6 7.8,22.8 L7.8,22.8 C7.8,22.9 7.8,23 7.6,23.1 L7.6,23.1 C7.6,23.1 7.6,23.1 7.5,23.1 L7.5,23.1 C7.4,23.1 7.4,23 7.3,22.9 L7.3,22.9 Z M7.1,21.8 L7.1,21.8 C7.1,21.7 7.1,21.6 7.3,21.5 L7.3,21.5 C7.4,21.5 7.5,21.5 7.6,21.7 L7.6,21.7 L7.6,21.7 L7.6,21.7 C7.6,21.8 7.5,21.9 7.4,22 L7.4,22 L7.4,22 L7.4,22 C7.2,22 7.1,21.9 7.1,21.8 L7.1,21.8 Z M6.9,20.7 C6.9,20.6 7,20.5 7.1,20.5 L7.1,20.5 C7.2,20.5 7.3,20.6 7.3,20.7 L7.3,20.7 C7.3,20.8 7.2,20.9 7.1,20.9 L7.1,20.9 L7.1,20.9 L7.1,20.9 C7,20.9 6.9,20.8 6.9,20.7 L6.9,20.7 Z M6.7,19.5 C6.7,19.4 6.8,19.3 6.9,19.3 L6.9,19.3 C7,19.3 7.1,19.4 7.1,19.5 L7.1,19.5 C7.1,19.6 7,19.7 6.9,19.7 L6.9,19.7 L6.9,19.7 L6.9,19.7 C6.8,19.7 6.7,19.7 6.7,19.5 L6.7,19.5 Z M6.5,18.4 L6.5,18.4 C6.5,18.3 6.6,18.2 6.7,18.2 L6.7,18.2 C6.8,18.2 6.9,18.3 6.9,18.4 L6.9,18.4 C6.9,18.5 6.8,18.6 6.7,18.6 L6.7,18.6 L6.7,18.6 L6.7,18.6 L6.5,18.4 L6.5,18.4 Z M6.5,17.3 C6.5,17.2 6.6,17.1 6.7,17.1 L6.7,17.1 C6.8,17.1 6.9,17.2 6.9,17.3 L6.9,17.3 C6.9,17.4 6.8,17.5 6.7,17.5 L6.7,17.5 L6.7,17.5 L6.7,17.5 C6.6,17.5 6.5,17.4 6.5,17.3 L6.5,17.3 Z M6.4,16.1 C6.4,16 6.5,15.9 6.6,15.9 L6.6,15.9 C6.7,15.9 6.8,16 6.8,16.1 L6.8,16.1 C6.8,16.2 6.7,16.3 6.6,16.3 L6.6,16.3 L6.6,16.3 L6.6,16.3 C6.5,16.3 6.4,16.2 6.4,16.1 L6.4,16.1 Z M6.4,15 C6.4,14.9 6.5,14.8 6.6,14.8 L6.6,14.8 C6.7,14.8 6.8,14.9 6.8,15 L6.8,15 C6.8,15.1 6.7,15.2 6.6,15.2 L6.6,15.2 C6.5,15.2 6.4,15.1 6.4,15 L6.4,15 Z" id="Shape"></path>
                    <path d="M53.4,6.1 L53.4,6.1 C53.4,6 53.4,6 53.5,6 L53.6,6 L54.7,6.7 L54.7,6.7 L54.8,6.8 L54.8,6.9 C54.4,7.2 53.9,7.8 53.9,7.8 L53.8,7.9 L53.8,7.9 L53.7,7.9 L53.7,7.9 L53.4,6.1 L53.4,6.1 Z" id="Shape"></path>
                    <path d="M54.3,18 L54.3,18 C54.3,17.9 54.4,17.9 54.4,17.9 L54.5,17.9 L55.6,18.7 L55.6,18.7 L55.6,18.8 L55.6,18.9 C55.2,19.2 54.6,19.7 54.6,19.7 L54.5,19.8 L54.5,19.8 L54.4,19.8 L54.4,19.8 L54.3,18 L54.3,18 Z" id="Shape"></path>
                    <path d="M51.3,33.8 C51.3,33.8 51.3,33.7 51.3,33.8 C51.3,33.7 51.4,33.7 51.4,33.7 L51.5,33.7 L52.5,34.5 L52.5,34.5 L52.5,34.6 L52.5,34.7 C52.1,35 51.5,35.5 51.5,35.5 L51.4,35.5 L51.4,35.5 L51.3,35.5 L51.3,35.5 L51.3,33.8 L51.3,33.8 Z" id="Shape"></path>
                    <path d="M58.4,31.3 L58.4,31.3 C58.5,31.3 58.5,31.4 58.5,31.4 C58.5,31.4 58.5,31.4 58.5,31.5 L57.4,32.3 L57.4,32.3 L57.3,32.3 L57.2,32.2 C57,31.7 56.7,31 56.7,31 L56.7,30.9 L56.7,30.9 C56.7,30.9 56.7,30.8 56.8,30.8 L56.8,30.8 L58.4,31.3 L58.4,31.3 Z" id="Shape"></path>
                    <path d="M32.5,15.4 L32.5,15.4 L32.7,15.4 C32.7,15.4 32.7,15.4 32.7,15.5 L32.3,16.8 L32.3,16.8 L32.2,16.9 L32.1,16.9 C31.7,16.6 31,16.2 31,16.2 C31,16.2 30.9,16.2 30.9,16.1 L30.9,16.1 L30.9,16 L30.9,16 L32.5,15.4 L32.5,15.4 Z" id="Shape"></path>
                    <path d="M32.2,23.6 L32.2,23.6 C32.1,23.6 32.1,23.5 32.1,23.5 C32.1,23.5 32.1,23.5 32.1,23.4 L33.1,22.6 L33.1,22.6 L33.2,22.6 L33.3,22.7 C33.5,23.2 33.8,23.9 33.8,23.9 L33.8,24 L33.8,24 C33.8,24 33.8,24.1 33.7,24.1 L33.7,24.1 L32.2,23.6 L32.2,23.6 Z" id="Shape"></path>
                    <path d="M13.1,30.1 C13.1,30.1 13.1,30 13.1,30.1 C13.1,30 13.2,30 13.2,30 L13.3,30 L14.2,31 L14.2,31 L14.2,31.1 C14.2,31.2 14.1,31.2 14.1,31.2 C13.7,31.4 12.9,31.8 12.9,31.8 L12.8,31.8 L12.8,31.8 C12.8,31.8 12.7,31.8 12.7,31.7 L12.7,31.7 L13.1,30.1 L13.1,30.1 Z" id="Shape"></path>
                    <g id="Group" transform="translate(14.000000, 6.000000)">
                        <path d="M0.4,1.9 L0.4,1.9 C0.4,1.7 0.4,1.7 0.5,1.7 L0.6,1.7 C0.7,1.8 0.8,1.8 1,1.8 C1.2,1.8 1.3,1.7 1.3,1.6 L1.3,1.6 C1.3,1.4 1.2,1.4 0.9,1.4 L0.8,1.4 C0.7,1.4 0.7,1.3 0.7,1.3 C0.7,1.3 0.7,1.2 0.8,1.2 L1.2,0.8 L0.6,0.8 C0.5,0.8 0.5,0.7 0.5,0.7 C0.5,0.6 0.6,0.6 0.6,0.6 L1.4,0.6 C1.5,0.6 1.5,0.6 1.5,0.7 C1.5,0.8 1.5,0.8 1.4,0.8 L1,1.2 C1.2,1.2 1.5,1.3 1.5,1.6 L1.5,1.6 C1.5,1.9 1.3,2.1 1,2.1 C0.7,2.1 0.6,2.1 0.4,1.9 L0.4,1.9 Z" id="Shape"></path>
                        <path d="M1.8,2.3 L2.7,0.4 L2.8,0.3 C2.9,0.3 2.9,0.3 2.9,0.4 C2.9,0.4 2.9,0.4 2.9,0.5 L2,2.4 L1.9,2.5 C1.8,2.4 1.8,2.4 1.8,2.3 L1.8,2.3 L1.8,2.3 Z" id="Shape"></path>
                        <path d="M3.3,1.9 C3.2,1.9 3.2,1.9 3.3,1.9 C3.3,1.7 3.3,1.7 3.4,1.7 L3.5,1.7 C3.6,1.8 3.7,1.8 3.9,1.8 C4.1,1.8 4.2,1.7 4.2,1.6 L4.2,1.6 C4.2,1.4 4.1,1.4 3.8,1.4 L3.7,1.4 C3.6,1.4 3.6,1.3 3.6,1.3 C3.6,1.3 3.6,1.2 3.7,1.2 L4.1,0.8 L3.5,0.8 C3.4,0.8 3.4,0.7 3.4,0.7 C3.4,0.6 3.5,0.6 3.5,0.6 L4.3,0.6 C4.4,0.6 4.4,0.6 4.4,0.7 C4.4,0.8 4.4,0.8 4.3,0.8 L3.9,1.2 C4.1,1.2 4.4,1.3 4.4,1.6 L4.4,1.6 C4.4,1.9 4.2,2.1 3.9,2.1 C3.6,2.1 3.4,2.1 3.3,1.9 L3.3,1.9 Z" id="Shape"></path>
                        <path d="M4.8,2.3 C4.9,2.3 5,2.2 5,2.1 C4.9,2.1 4.9,2 4.9,1.9 L4.9,1.9 C4.9,1.8 5,1.8 5.1,1.8 C5.2,1.8 5.3,1.9 5.3,2 L5.3,2 C5.3,2.2 5.3,2.3 5.2,2.3 C5.1,2.4 5.1,2.4 5,2.4 C4.7,2.4 4.7,2.4 4.8,2.3 C4.7,2.3 4.7,2.3 4.8,2.3 L4.8,2.3 Z" id="Shape"></path>
                        <path d="M6.3,1.8 L5.6,1.8 C5.5,1.8 5.5,1.7 5.5,1.7 C5.5,1.6 5.5,1.6 5.6,1.6 L6.3,0.7 C6.3,0.6 6.4,0.6 6.5,0.6 C6.6,0.6 6.6,0.7 6.6,0.7 L6.6,1.6 L6.7,1.6 C6.8,1.6 6.8,1.7 6.8,1.7 C6.8,1.8 6.8,1.8 6.7,1.8 L6.6,1.8 L6.6,2 C6.6,2.1 6.5,2.1 6.5,2.1 L6.4,2 L6.4,1.8 L6.3,1.8 Z M6.3,1.5 L6.3,0.9 L5.8,1.5 L6.3,1.5 L6.3,1.5 Z" id="Shape"></path>
                    </g>
                    <g id="Group" transform="translate(44.000000, 4.000000)">
                        <path id="Shape" d="M-1.2,0.5 L-1.4,0.5 L-1.4,0.5 C-1.5,0.5 -1.5,0.4 -1.5,0.4 C-1.5,0.3 -1.5,0.3 -1.4,0.3 L-1.2,0.2 L-1.1,0.2 L-1.1,0.2 C-1,0.2 -1,0.3 -1,0.3 L-1,1.6 C-1,1.7 -1.1,1.7 -1.1,1.7 C-1.2,1.7 -1.2,1.6 -1.2,1.6 L-1.2,0.5 L-1.2,0.5 Z"></path>
                        <path d="M-0.5,2 L0.4,0.1 L0.5,0 C0.6,0 0.6,0 0.6,0.1 C0.6,0.1 0.6,0.1 0.6,0.2 L-0.3,2.1 L-0.4,2.2 C-0.5,2.1 -0.5,2.1 -0.5,2 L-0.5,2 L-0.5,2 Z" id="Shape"></path>
                        <path id="Shape" d="M1.2,0.5 L1,0.5 L1,0.5 C0.9,0.5 0.9,0.4 0.9,0.4 C0.9,0.3 0.9,0.3 1,0.3 L1.2,0.2 L1.3,0.2 L1.3,0.2 C1.4,0.2 1.4,0.3 1.4,0.3 L1.4,1.6 C1.4,1.7 1.3,1.7 1.3,1.7 C1.2,1.7 1.2,1.6 1.2,1.6 L1.2,0.5 L1.2,0.5 Z"></path>
                        <path id="Shape" d="M2,2 C2.1,2 2.2,1.9 2.2,1.8 C2.1,1.8 2.1,1.7 2.1,1.6 L2.1,1.6 C2.1,1.5 2.2,1.5 2.3,1.5 C2.4,1.5 2.5,1.6 2.5,1.7 L2.5,1.7 C2.5,1.9 2.5,2 2.4,2 C2.3,2.1 2.3,2.1 2.2,2.1 C2,2.2 2,2.1 2,2 C2,2.1 2,2 2,2 L2,2 Z"></path>
                        <path d="M2.8,1.4 L2.8,1.4 C2.8,1.2 2.9,1.1 3.1,1 C3,0.9 2.9,0.8 2.9,0.7 L2.9,0.7 C2.9,0.5 3.1,0.3 3.4,0.3 C3.7,0.3 3.9,0.5 3.9,0.7 L3.9,0.7 C3.9,0.9 3.8,1 3.7,1 C3.9,1.1 4,1.2 4,1.4 L4,1.4 C4,1.7 3.7,1.9 3.4,1.9 C3,1.9 2.8,1.7 2.8,1.4 L2.8,1.4 Z M3.7,1.4 L3.7,1.4 C3.7,1.3 3.6,1.2 3.4,1.2 C3.2,1.2 3.1,1.3 3.1,1.4 L3.1,1.4 C3.1,1.5 3.2,1.6 3.4,1.6 C3.6,1.6 3.7,1.5 3.7,1.4 L3.7,1.4 Z M3.6,0.7 L3.6,0.7 C3.6,0.6 3.5,0.5 3.3,0.5 C3.1,0.5 3,0.6 3,0.7 L3,0.7 C3,0.8 3.1,0.9 3.3,0.9 C3.5,0.9 3.6,0.8 3.6,0.7 L3.6,0.7 Z" id="Shape"></path>
                    </g>
                    <g id="Group" transform="translate(43.000000, 15.000000)">
                        <path d="M0.9,2 L0.2,2 C0.1,2 0.1,1.9 0.1,1.9 C0.1,1.8 0.1,1.8 0.2,1.8 L0.9,0.9 C0.9,0.8 1,0.8 1.1,0.8 C1.2,0.8 1.2,0.9 1.2,0.9 L1.2,1.8 L1.3,1.8 C1.4,1.8 1.4,1.9 1.4,1.9 C1.4,2 1.4,2 1.3,2 L1.2,2 L1.2,2.2 C1.2,2.3 1.1,2.3 1.1,2.3 L1,2.2 L1,2 L0.9,2 Z M0.9,1.7 L0.9,1.1 L0.4,1.7 L0.9,1.7 L0.9,1.7 Z" id="Shape"></path>
                        <path d="M1.7,2.4 L2.6,0.5 L2.7,0.4 C2.8,0.4 2.8,0.4 2.8,0.5 C2.8,0.5 2.8,0.5 2.8,0.6 L1.9,2.5 L1.8,2.6 C1.7,2.6 1.7,2.6 1.7,2.4 C1.7,2.5 1.7,2.5 1.7,2.4 L1.7,2.4 Z" id="Shape"></path>
                        <path d="M3.3,2.1 L3.9,1 L3.2,1 C3.1,1 3.1,0.9 3.1,0.9 C3.1,0.8 3.2,0.8 3.2,0.8 L4.1,0.8 C4.2,0.8 4.2,0.8 4.2,0.9 L4.2,1 L3.6,2.2 C3.6,2.3 3.5,2.3 3.5,2.3 C3.4,2.3 3.3,2.3 3.3,2.1 C3.3,2.2 3.3,2.1 3.3,2.1 L3.3,2.1 Z" id="Shape"></path>
                        <path id="Shape" d="M4.4,2.5 C4.5,2.5 4.6,2.4 4.6,2.3 C4.5,2.3 4.5,2.2 4.5,2.1 L4.5,2.1 C4.5,2 4.6,2 4.7,2 C4.8,2 4.9,2.1 4.9,2.2 L4.9,2.2 C4.9,2.4 4.9,2.5 4.8,2.5 C4.7,2.6 4.7,2.6 4.6,2.6 C4.4,2.6 4.4,2.6 4.4,2.5 L4.4,2.5 L4.4,2.5 Z"></path>
                        <path d="M5.2,2.2 L5.1,2.1 C5.1,2 5.2,2 5.2,2 L5.3,2 C5.4,2.1 5.5,2.1 5.6,2.1 C5.8,2.1 5.9,2 5.9,1.8 L5.9,1.8 C5.9,1.6 5.8,1.5 5.6,1.5 C5.4,1.5 5.4,1.6 5.3,1.6 C5.3,1.6 5.2,1.6 5.2,1.5 L5.1,1.4 L5.1,0.8 C5.1,0.7 5.2,0.7 5.2,0.7 L5.9,0.7 C6,0.7 6,0.8 6,0.8 C6,0.9 5.9,0.9 5.9,0.9 L5.3,0.9 L5.3,1.3 L5.5,1.3 C5.8,1.3 6,1.5 6,1.8 L6,1.8 C6,2.1 5.8,2.3 5.4,2.3 C5.5,2.3 5.4,2.3 5.2,2.2 L5.2,2.2 Z" id="Shape"></path>
                    </g>
                    <g id="Group" transform="translate(61.000000, 27.000000)">
                        <path d="M-0.2,1.2 L-0.2,1.2 C-0.2,0.7 0.1,0.4 0.5,0.4 C0.9,0.4 1.2,0.8 1.2,1.2 L1.2,1.2 C1.2,1.6 0.9,2 0.5,2 C0,2 -0.2,1.7 -0.2,1.2 L-0.2,1.2 Z M0.9,1.2 L0.9,1.2 C0.9,0.9 0.7,0.6 0.5,0.6 C0.3,0.6 0.1,0.8 0.1,1.2 L0.1,1.2 C0.1,1.5 0.3,1.8 0.5,1.8 C0.7,1.8 0.9,1.5 0.9,1.2 L0.9,1.2 Z" id="Shape"></path>
                        <path d="M1.4,2.1 L2.3,0.2 L2.4,0.1 C2.5,0.1 2.5,0.1 2.5,0.2 C2.5,0.2 2.5,0.2 2.5,0.3 L1.6,2.2 L1.5,2.3 C1.4,2.3 1.4,2.2 1.4,2.1 C1.4,2.2 1.4,2.1 1.4,2.1 L1.4,2.1 Z" id="Shape"></path>
                        <path d="M2.8,1.8 C2.8,1.8 2.8,1.7 2.8,1.8 C2.8,1.6 2.8,1.6 2.9,1.6 L3,1.6 C3.1,1.7 3.2,1.7 3.4,1.7 C3.6,1.7 3.7,1.6 3.7,1.5 L3.7,1.5 C3.7,1.3 3.6,1.3 3.3,1.3 L3.2,1.3 C3.1,1.3 3.1,1.2 3.1,1.2 C3.1,1.2 3.1,1.1 3.2,1.1 L3.6,0.7 L3,0.7 C2.9,0.7 2.9,0.6 2.9,0.6 C2.9,0.5 3,0.5 3,0.5 L3.8,0.5 C3.9,0.5 3.9,0.5 3.9,0.6 C3.9,0.7 3.9,0.7 3.8,0.7 L3.4,1.1 C3.6,1.1 3.9,1.2 3.9,1.5 L3.9,1.5 C3.9,1.8 3.7,2 3.4,2 C3.1,2 3,1.9 2.8,1.8 L2.8,1.8 Z" id="Shape"></path>
                        <path id="Shape" d="M4.3,2.2 C4.4,2.2 4.5,2.1 4.5,2 C4.4,2 4.4,1.9 4.4,1.8 L4.4,1.8 C4.4,1.7 4.5,1.7 4.6,1.7 C4.7,1.7 4.8,1.8 4.8,1.9 L4.8,1.9 C4.8,2.1 4.8,2.2 4.7,2.2 C4.6,2.3 4.6,2.3 4.5,2.3 C4.3,2.3 4.3,2.3 4.3,2.2 L4.3,2.2 L4.3,2.2 Z"></path>
                        <path id="Shape" d="M5.3,0.7 L5.1,0.7 L5.1,0.7 C5,0.7 5,0.6 5,0.6 C5,0.5 5,0.5 5.1,0.5 L5.3,0.4 L5.4,0.4 L5.4,0.4 C5.5,0.4 5.5,0.5 5.5,0.5 L5.5,1.8 C5.5,1.9 5.4,1.9 5.4,1.9 C5.3,1.9 5.3,1.8 5.3,1.8 L5.3,0.7 L5.3,0.7 Z"></path>
                    </g>
                    <g id="Group" transform="translate(39.000000, 35.000000)">
                        <path d="M-0.1,2 L0.4,1.6 C0.6,1.4 0.7,1.3 0.7,1.2 C0.7,1 0.6,1 0.4,1 C0.3,1 0.2,1.1 0.1,1.2 L-9.49240686e-15,1.2 C-0.1,1.2 -0.1,1.1 -0.1,1.1 L-0.1,1 C-9.49240686e-15,0.8 0.2,0.7 0.4,0.7 C0.7,0.7 0.9,0.9 0.9,1.2 L0.9,1.2 C0.9,1.4 0.8,1.6 0.5,1.8 L0.2,2.1 L0.8,2.1 C0.9,2.1 0.9,2.2 0.9,2.2 C0.9,2.3 0.8,2.3 0.8,2.3 L-9.49240686e-15,2.3 C-0.1,2.3 -0.1,2.3 -0.1,2.2 C-0.2,2.1 -0.1,2 -0.1,2 L-0.1,2 Z" id="Shape"></path>
                        <path d="M1.3,2.4 L2.2,0.5 L2.3,0.4 C2.4,0.4 2.4,0.4 2.4,0.5 C2.4,0.5 2.4,0.5 2.4,0.6 L1.5,2.5 L1.4,2.6 C1.3,2.5 1.3,2.5 1.3,2.4 L1.3,2.4 L1.3,2.4 Z" id="Shape"></path>
                        <path d="M2.8,2.1 L2.7,2 C2.7,1.9 2.8,1.9 2.8,1.9 L2.9,1.9 C3,2 3.1,2 3.2,2 C3.4,2 3.5,1.9 3.5,1.7 L3.5,1.7 C3.5,1.5 3.4,1.4 3.2,1.4 C3,1.4 3,1.5 2.9,1.5 C2.9,1.5 2.8,1.5 2.8,1.4 L2.7,1.3 L2.7,0.7 C2.7,0.6 2.8,0.6 2.8,0.6 L3.5,0.6 C3.6,0.6 3.6,0.7 3.6,0.7 C3.6,0.8 3.5,0.8 3.5,0.8 L2.9,0.8 L2.9,1.2 L3.1,1.2 C3.4,1.2 3.6,1.4 3.6,1.7 L3.6,1.7 C3.6,2 3.4,2.2 3,2.2 C3,2.3 2.9,2.2 2.8,2.1 L2.8,2.1 Z" id="Shape"></path>
                        <path id="Shape" d="M4.2,2.4 C4.3,2.4 4.4,2.3 4.4,2.2 C4.3,2.2 4.3,2.1 4.3,2 L4.3,2 C4.3,1.9 4.4,1.9 4.5,1.9 C4.6,1.9 4.7,2 4.7,2.1 L4.7,2.1 C4.7,2.3 4.7,2.4 4.6,2.4 C4.5,2.5 4.5,2.5 4.4,2.5 C4.2,2.6 4.2,2.5 4.2,2.4 C4.2,2.5 4.2,2.4 4.2,2.4 L4.2,2.4 Z"></path>
                        <path d="M5.1,2 L5.6,1.6 C5.8,1.4 5.9,1.3 5.9,1.2 C5.9,1 5.8,1 5.6,1 C5.5,1 5.4,1.1 5.3,1.2 L5.2,1.2 C5.1,1.2 5.1,1.1 5.1,1.1 L5.1,1 C5.2,0.8 5.4,0.7 5.6,0.7 C5.9,0.7 6.1,0.9 6.1,1.2 L6.1,1.2 C6.1,1.4 6,1.6 5.7,1.8 L5.4,2.1 L6,2.1 C6.1,2.1 6.1,2.2 6.1,2.2 C6.1,2.3 6,2.3 6,2.3 L5.1,2.3 C5,2.3 5,2.3 5,2.2 C5,2.1 5,2 5.1,2 L5.1,2 Z" id="Shape"></path>
                    </g>
                    <g id="Group" transform="translate(27.000000, 32.000000)">
                        <path d="M0.8,1.4 L0.1,1.4 C2.84217094e-14,1.4 2.84217094e-14,1.3 2.84217094e-14,1.3 C2.84217094e-14,1.2 2.84217094e-14,1.2 0.1,1.2 L0.8,0.3 C0.8,0.2 0.9,0.2 1,0.2 C1.1,0.2 1.1,0.3 1.1,0.3 L1.1,1.2 L1.2,1.2 C1.3,1.2 1.3,1.3 1.3,1.3 C1.3,1.4 1.3,1.4 1.2,1.4 L1,1.4 L1,1.6 C1,1.7 0.9,1.7 0.9,1.7 L0.8,1.6 L0.8,1.4 L0.8,1.4 Z M0.8,1.2 L0.8,0.6 L0.3,1.2 L0.8,1.2 L0.8,1.2 Z" id="Shape"></path>
                        <path d="M1.5,1.9 L2.4,-2.84217094e-14 L2.5,-0.1 C2.6,-0.1 2.6,-0.1 2.6,-2.84217094e-14 C2.6,-2.84217094e-14 2.6,-2.84217094e-14 2.6,0.1 L1.7,2 L1.6,2.1 C1.6,2.1 1.5,2 1.5,1.9 L1.5,1.9 L1.5,1.9 Z" id="Shape"></path>
                        <path d="M3.1,1.6 L3.7,0.5 L3,0.5 C2.9,0.5 2.9,0.4 2.9,0.4 C2.9,0.3 3,0.3 3,0.3 L3.9,0.3 C4,0.3 4,0.3 4,0.4 L4,0.5 L3.4,1.7 C3.4,1.8 3.3,1.8 3.3,1.8 C3.2,1.8 3.1,1.7 3.1,1.6 L3.1,1.6 L3.1,1.6 Z" id="Shape"></path>
                        <path id="Shape" d="M4.2,2 C4.3,2 4.4,1.9 4.4,1.8 C4.3,1.8 4.3,1.7 4.3,1.6 L4.3,1.6 C4.3,1.5 4.4,1.5 4.5,1.5 C4.6,1.5 4.7,1.6 4.7,1.7 L4.7,1.7 C4.7,1.9 4.7,2 4.6,2 C4.5,2.1 4.5,2.1 4.4,2.1 C4.2,2.1 4.2,2.1 4.2,2 L4.2,2 L4.2,2 Z"></path>
                        <path d="M5.1,1.5 L5.6,1.1 C5.8,0.9 5.9,0.8 5.9,0.7 C5.9,0.5 5.8,0.5 5.6,0.5 C5.5,0.5 5.4,0.6 5.3,0.7 L5.2,0.7 C5.1,0.7 5.1,0.6 5.1,0.6 L5.1,0.5 C5.2,0.3 5.4,0.2 5.6,0.2 C5.9,0.2 6.1,0.4 6.1,0.7 L6.1,0.7 C6.1,0.9 6,1.1 5.7,1.3 L5.4,1.6 L6,1.6 C6.1,1.6 6.1,1.7 6.1,1.7 C6.1,1.8 6,1.8 6,1.8 L5.1,1.8 C5,1.8 5,1.8 5,1.7 C5,1.6 5,1.5 5.1,1.5 L5.1,1.5 Z" id="Shape"></path>
                    </g>
                    <g id="Group" transform="translate(1.000000, 25.000000)">
                        <path d="M0.1,1.9 L0.6,1.5 C0.8,1.3 0.9,1.2 0.9,1.1 C0.9,0.9 0.8,0.9 0.6,0.9 C0.5,0.9 0.4,1 0.3,1.1 L0.2,1.1 C0.1,1.1 0.1,1 0.1,1 L0.1,0.9 C0.2,0.7 0.4,0.6 0.6,0.6 C0.9,0.6 1.1,0.8 1.1,1.1 L1.1,1.1 C1.1,1.3 1,1.5 0.7,1.7 L0.4,2 L1,2 C1.1,2 1.1,2.1 1.1,2.1 C1.1,2.2 1,2.2 1,2.2 L0.1,2.2 C-2.84217094e-14,2.2 -2.84217094e-14,2.2 -2.84217094e-14,2.1 C0,2 0,2 0.1,1.9 L0.1,1.9 Z" id="Shape"></path>
                        <path d="M1.5,2.3 L2.4,0.4 L2.5,0.3 C2.6,0.3 2.6,0.3 2.6,0.4 C2.6,0.4 2.6,0.4 2.6,0.5 L1.7,2.4 L1.6,2.5 C1.5,2.5 1.5,2.4 1.5,2.3 C1.5,2.4 1.5,2.3 1.5,2.3 L1.5,2.3 Z" id="Shape"></path>
                        <path d="M2.9,2 C2.9,2 2.9,1.9 2.9,2 C2.9,1.8 2.9,1.8 3,1.8 L3.1,1.8 C3.2,1.9 3.3,1.9 3.5,1.9 C3.7,1.9 3.8,1.8 3.8,1.7 L3.8,1.7 C3.8,1.5 3.7,1.5 3.4,1.5 L3.3,1.5 C3.2,1.5 3.2,1.4 3.2,1.4 C3.2,1.4 3.2,1.3 3.3,1.3 L3.7,0.9 L3.1,0.9 C3,0.9 3,0.8 3,0.8 C3,0.7 3.1,0.7 3.1,0.7 L3.9,0.7 C4,0.7 4,0.7 4,0.8 C4,0.9 4,0.9 3.9,0.9 L3.5,1.3 C3.7,1.3 4,1.4 4,1.7 L4,1.7 C4,2 3.8,2.2 3.5,2.2 C3.2,2.2 3.1,2.1 2.9,2 L2.9,2 Z" id="Shape"></path>
                        <path id="Shape" d="M4.4,2.4 C4.5,2.4 4.6,2.3 4.6,2.2 C4.5,2.2 4.5,2.1 4.5,2 L4.5,2 C4.5,1.9 4.6,1.9 4.7,1.9 C4.8,1.9 4.9,2 4.9,2.1 L4.9,2.1 C4.9,2.3 4.9,2.4 4.8,2.4 C4.7,2.5 4.7,2.5 4.6,2.5 C4.4,2.5 4.4,2.5 4.4,2.4 L4.4,2.4 L4.4,2.4 Z"></path>
                        <path id="Shape" d="M5.4,0.9 L5.2,0.9 L5.2,0.9 C5.1,0.9 5.1,0.8 5.1,0.8 C5.1,0.7 5.1,0.7 5.2,0.7 L5.4,0.6 L5.5,0.6 L5.5,0.6 C5.6,0.6 5.6,0.7 5.6,0.7 L5.6,2 C5.6,2.1 5.5,2.1 5.5,2.1 C5.4,2.1 5.4,2 5.4,2 L5.4,0.9 L5.4,0.9 Z"></path>
                    </g>
                    <path d="M0,5.8 L0,9.2 L3.2,9.2 L3.2,5.8 L0,5.8 L0,5.8 Z M2.2,7.7 C2.2,8 2,8.2 1.6,8.2 C1.4,8.2 1.2,8.1 1.1,8 L1,7.9 C1,7.8 1.1,7.8 1.1,7.8 L1.2,7.8 C1.3,7.9 1.4,7.9 1.5,7.9 C1.7,7.9 1.8,7.8 1.8,7.6 L1.8,7.6 C1.8,7.4 1.7,7.3 1.5,7.3 C1.3,7.3 1.3,7.4 1.2,7.4 C1.2,7.4 1.1,7.4 1.1,7.3 L1,7.2 L1,6.6 C1,6.5 1.1,6.5 1.1,6.5 L1.8,6.5 C1.9,6.5 1.9,6.6 1.9,6.6 C1.9,6.7 1.8,6.7 1.8,6.7 L1.2,6.7 L1.2,7.1 L1.4,7.1 C1.9,7.2 2.2,7.3 2.2,7.7 L2.2,7.7 L2.2,7.7 Z" id="Shape"></path>
                    <path d="M12.1,35.7 L12.1,39.1 L15.3,39.1 L15.3,35.7 L12.1,35.7 L12.1,35.7 Z M14.2,38.1 L13.3,38.1 C13.2,38.1 13.2,38.1 13.2,38 C13.2,37.9 13.2,37.9 13.3,37.9 L13.8,37.5 C14,37.3 14.1,37.2 14.1,37.1 C14.1,36.9 14,36.9 13.8,36.9 C13.7,36.9 13.6,37 13.5,37.1 L13.4,37.1 C13.3,37.1 13.3,37 13.3,37 L13.3,36.9 C13.4,36.7 13.6,36.6 13.8,36.6 C14.1,36.6 14.3,36.8 14.3,37.1 L14.3,37.1 C14.3,37.3 14.2,37.5 13.9,37.7 L13.6,38 L14.2,38 C14.3,38 14.3,38.1 14.3,38.1 C14.3,38 14.3,38.1 14.2,38.1 L14.2,38.1 Z" id="Shape"></path>
                    <path d="M57.8,38.4 L57.8,41.8 L61,41.8 L61,38.4 L57.8,38.4 L57.8,38.4 Z M58.9,40.3 L58.5,40.3 C58.4,40.3 58.4,40.2 58.4,40.2 C58.4,40.1 58.5,40.1 58.5,40.1 L58.9,40.1 C59,40.1 59,40.2 59,40.2 L58.9,40.3 L58.9,40.3 Z M60.4,40.8 L59.5,40.8 C59.4,40.8 59.4,40.8 59.4,40.7 C59.4,40.6 59.4,40.6 59.5,40.6 L60,40.2 C60.2,40 60.3,39.9 60.3,39.8 C60.3,39.6 60.2,39.6 60,39.6 C59.9,39.6 59.8,39.7 59.7,39.8 L59.6,39.8 C59.5,39.8 59.5,39.7 59.5,39.7 L59.5,39.6 C59.6,39.4 59.8,39.3 60,39.3 C60.3,39.3 60.5,39.5 60.5,39.8 L60.5,39.8 C60.5,40 60.4,40.2 60.1,40.4 L59.8,40.7 L60.4,40.7 C60.5,40.7 60.5,40.8 60.5,40.8 C60.5,40.8 60.5,40.8 60.4,40.8 L60.4,40.8 Z" id="Shape"></path>
                    <g id="Group" transform="translate(62.000000, 13.000000)">
                        <path d="M2,2.2 L2,1.6 L1.5,2.2 L2,2.2 Z" id="Shape"></path>
                        <path d="M-0.3,0.3 L-0.3,3.7 L2.9,3.7 L2.9,0.3 L-0.3,0.3 L-0.3,0.3 Z M0.7,2.2 L0.3,2.2 C0.2,2.2 0.2,2.1 0.2,2.1 C0.2,2 0.3,2 0.3,2 L0.7,2 C0.8,2 0.8,2.1 0.8,2.1 C0.8,2.1 0.7,2.2 0.7,2.2 L0.7,2.2 Z M2.4,2.4 L2.3,2.4 L2.3,2.6 C2.3,2.7 2.2,2.7 2.2,2.7 L2.1,2.6 L2.1,2.4 L1.4,2.4 C1.3,2.4 1.3,2.3 1.3,2.3 C1.3,2.2 1.3,2.2 1.4,2.2 L2.1,1.3 C2.1,1.2 2.2,1.2 2.3,1.2 C2.4,1.2 2.4,1.3 2.4,1.3 L2.4,2.2 L2.5,2.2 C2.6,2.2 2.6,2.3 2.6,2.3 C2.5,2.3 2.5,2.4 2.4,2.4 L2.4,2.4 Z" id="Shape"></path>
                    </g>
                    <path d="M60.1,0.1 L60.1,3.5 L63.3,3.5 L63.3,0.1 L60.1,0.1 L60.1,0.1 Z M61.5,2 L61,2 C60.9,2 60.9,1.9 60.9,1.9 C60.9,1.8 61,1.8 61,1.8 L61.4,1.8 C61.5,1.8 61.5,1.9 61.5,1.9 C61.6,1.9 61.5,2 61.5,2 L61.5,2 Z M62.5,2.4 C62.5,2.5 62.4,2.5 62.4,2.5 C62.3,2.5 62.3,2.4 62.3,2.4 L62.3,1.2 L62.1,1.2 L62.1,1.2 C62,1.2 62,1.1 62,1.1 C62,1 62,1 62.1,1 L62.3,0.9 L62.4,0.9 L62.4,0.9 C62.5,0.9 62.5,1 62.5,1 L62.5,2.4 L62.5,2.4 Z" id="Shape"></path>
                    <g id="Group" transform="translate(33.000000, 11.000000)">
                        <path d="M-0.2,-0.4 L-0.2,3 L3,3 L3,-0.4 L-0.2,-0.4 L-0.2,-0.4 Z M2.1,1.2 C2.1,1.6 1.8,2 1.4,2 C1,2 0.7,1.6 0.7,1.2 L0.7,1.2 C0.7,0.8 1,0.4 1.4,0.4 C1.8,0.4 2.1,0.8 2.1,1.2 L2.1,1.2 L2.1,1.2 Z" id="Shape"></path>
                        <path d="M1.4,0.6 C1.2,0.6 1,0.8 1,1.2 L1,1.2 C1,1.5 1.2,1.8 1.4,1.8 C1.6,1.8 1.8,1.5 1.8,1.2 L1.8,1.2 C1.8,0.9 1.7,0.6 1.4,0.6 L1.4,0.6 Z" id="Shape"></path>
                    </g>
                </g>
            </g>
            
            <circle id="tablet-button" fill="none" stroke="#FFFFFF" cx="57" cy="130" r="3"></circle>
        </g>
        <g id="phone" transform="translate(0.000000, 131.000000)" >
            <rect id="phone-body" fill="#06c7de" stroke="#FFFFFF" x="0" y="0" width="44" height="81" rx="8"></rect>
            <rect id="phone-screen" fill="#06c7de" stroke="#FFFFFF" x="3" y="13" width="38" height="55"></rect>
            <circle id="phone-button" fill="#06c7de" stroke="#FFFFFF" cx="22.5" cy="73.5" r="3"></circle>
            <rect id="phone-ear-piece" stroke="#FFFFFF"  fill="#06c7de"    x="17" y="6" width="10" height="2" rx="8"></rect>
            <g id="phone-content" transform="translate(15.000000, 31.000000)" fill="#06c7de">
                <circle id="Oval" cx="7.5" cy="4.5" r="1.5"></circle>
                <path d="M10.5,7.4 L10.5,7.4 L10.7,7 C10.9,6.7 11,6.4 11.1,6 C11.2,5.7 11.2,5.3 11.2,5 C11.2,2.8 9.4,1 7.2,1 C5,1 3.2,2.8 3.2,5 C3.2,5.7 3.4,6.4 3.7,7 L3.9,7.4 L4,7.6 C5,7.1 6.1,6.8 7.3,6.8 C8.6,6.7 9.6,7 10.5,7.4 L10.5,7.4 Z M5.3,4.5 C5.3,3.4 6.2,2.5 7.3,2.5 C8.4,2.5 9.3,3.4 9.3,4.5 C9.3,5.6 8.4,6.5 7.3,6.5 C6.2,6.5 5.3,5.6 5.3,4.5 L5.3,4.5 Z" id="Shape"></path>
                <path d="M11.6,14.1 C11.6,16.5 9.7,18.4 7.3,18.4 C4.9,18.4 3,16.5 3,14.1 C3,12.6 3.8,11.3 5,10.5 L3.9,8.3 C1.9,9.5 0.6,11.7 0.6,14.1 C0.6,17.9 3.7,20.9 7.4,20.9 C11.2,20.9 14.2,17.8 14.2,14.1 C14.2,11.5 12.8,9.3 10.7,8.1 L9.5,10.4 C10.8,11.2 11.6,12.5 11.6,14.1 L11.6,14.1 Z" id="Shape"></path>
                <path d="M8.9,10.7 C8.4,10.5 7.9,10.3 7.3,10.3 C6.7,10.3 6.1,10.5 5.6,10.7 L7.2,14 L8.9,10.7 L8.9,10.7 Z" id="Shape"></path>
                <path d="M7.3,9.8 C8,9.8 8.6,10 9.1,10.2 L10.3,7.9 C9.4,7.5 8.5,7.3 7.4,7.3 C6.3,7.3 5.2,7.6 4.3,8.1 L5.4,10.3 C6,9.9 6.7,9.8 7.3,9.8 L7.3,9.8 Z" id="Shape"></path>
                <path d="M5.2,10.9 C4.2,11.6 3.5,12.7 3.5,14.1 C3.5,16.2 5.2,17.9 7.3,17.9 C9.4,17.9 11.1,16.2 11.1,14.1 C11.1,12.8 10.4,11.6 9.4,10.9 L7.3,15.1 L5.2,10.9 L5.2,10.9 Z" id="Shape"></path>
                <path d="M9.3,4.5 C9.3,3.4 8.4,2.5 7.3,2.5 C6.2,2.5 5.3,3.4 5.3,4.5 C5.3,5.6 6.2,6.5 7.3,6.5 C8.4,6.5 9.3,5.6 9.3,4.5 L9.3,4.5 Z M7.3,6 C6.5,6 5.8,5.3 5.8,4.5 C5.8,3.7 6.5,3 7.3,3 C8.1,3 8.8,3.7 8.8,4.5 C8.8,5.3 8.1,6 7.3,6 L7.3,6 Z" id="Shape" fill="#FFFFFF"></path>
                <path d="M7.3,15.1 L9.4,10.9 C9.3,10.8 9.1,10.7 9,10.7 L7.4,14 L5.8,10.7 C5.6,10.8 5.5,10.8 5.4,10.9 L7.3,15.1 L7.3,15.1 Z" id="Shape" fill="#FFFFFF"></path>
                <path d="M4,7.4 L4,7.4 L3.8,7 C3.4,6.4 3.3,5.7 3.3,5 C3.3,2.8 5.1,1 7.3,1 C9.5,1 11.3,2.8 11.3,5 C11.3,5.3 11.3,5.7 11.2,6 C11.1,6.3 11,6.7 10.8,7 L10.6,7.4 L10.6,7.5 C10.8,7.6 10.9,7.6 11,7.7 L11.2,7.2 C11.4,6.9 11.5,6.5 11.6,6.1 C11.7,5.7 11.7,5.3 11.7,5 C11.7,2.5 9.7,0.5 7.2,0.5 C4.7,0.5 2.7,2.5 2.7,5 C2.7,5.8 2.9,6.5 3.3,7.2 L3.6,7.8 C3.7,7.7 3.9,7.6 4,7.6 L4,7.4 L4,7.4 Z" id="Shape" fill="#FFFFFF"></path>
                <path d="M9.2,10.2 C9.4,10.3 9.5,10.4 9.6,10.4 L10.8,8.1 C10.7,8 10.5,7.9 10.4,7.9 L9.2,10.2 L9.2,10.2 Z" id="Shape" fill="#FFFFFF"></path>
                <path d="M5.4,10.2 L4.3,8 C4.2,8.1 4,8.2 3.9,8.2 L5,10.4 C5.1,10.4 5.3,10.3 5.4,10.2 L5.4,10.2 Z" id="Shape" fill="#FFFFFF"></path>
                <path d="M11.1,14.1 C11.1,16.2 9.4,17.9 7.3,17.9 C5.2,17.9 3.5,16.2 3.5,14.1 C3.5,12.8 4.2,11.6 5.2,10.9 L5,10.5 C3.8,11.3 3,12.6 3,14.1 C3,16.5 4.9,18.4 7.3,18.4 C9.7,18.4 11.6,16.5 11.6,14.1 C11.6,12.6 10.8,11.2 9.6,10.5 L9.4,10.9 C10.4,11.6 11.1,12.7 11.1,14.1 L11.1,14.1 Z" id="Shape" fill="#FFFFFF"></path>
                <path d="M5.7,10.7 L5.5,10.3 C5.3,10.4 5.2,10.4 5.1,10.5 L5.3,10.9 C5.4,10.8 5.5,10.8 5.7,10.7 L5.7,10.7 Z" id="Shape" fill="#FFFFFF"></path>
                <path d="M9.4,10.9 L9.6,10.5 C9.5,10.4 9.3,10.3 9.2,10.3 L9,10.7 C9.1,10.7 9.2,10.8 9.4,10.9 L9.4,10.9 Z" id="Shape" fill="#FFFFFF"></path>
                <path d="M11,7.7 L10.8,8.1 C12.9,9.3 14.3,11.5 14.3,14.1 C14.3,17.9 11.2,20.9 7.5,20.9 C3.7,20.9 0.7,17.8 0.7,14.1 C0.7,11.6 2,9.5 4,8.3 L3.8,7.9 C1.7,9.2 0.2,11.5 0.2,14.2 C0.2,18.2 3.5,21.5 7.5,21.5 C11.5,21.5 14.8,18.2 14.8,14.2 C14.8,11.3 13.3,8.9 11,7.7 L11,7.7 Z" id="Shape" fill="#FFFFFF"></path>
                <path d="M10.3,7.9 C10.5,8 10.6,8 10.7,8.1 L10.9,7.7 C10.8,7.6 10.6,7.5 10.5,7.5 L10.3,7.9 L10.3,7.9 Z" id="Shape" fill="#FFFFFF"></path>
                <path d="M4.3,8 L4.1,7.6 C4,7.7 3.8,7.8 3.7,7.8 L3.9,8.2 C4,8.2 4.2,8.1 4.3,8 L4.3,8 Z" id="Shape" fill="#FFFFFF"></path>
            </g>
        </g>
        

</svg>