<svg id="gears-svg" width="450px" height="240px" viewBox="0 0 450 240" version="1.1" xmlns="http://www.w3.org/2000/svg" xmlns:xlink="http://www.w3.org/1999/xlink">
    <g id="gears" fill="#FFFFFF">
        <path id="gear-major" d="M167.383,149.333 C165.471,149.333 163.804,147.907 163.506,146.014 L162.329,138.505 C160.924,138.329 159.506,138.081 158.106,137.768 L156.664,137.419 C155.292,137.063 153.922,136.636 152.576,136.144 L148.099,142.287 C146.907,143.926 144.266,144.353 142.613,143.147 L128.904,133.154 C128.058,132.538 127.502,131.626 127.34,130.587 C127.178,129.55 127.429,128.513 128.047,127.668 L132.525,121.522 C131.653,120.401 130.826,119.225 130.06,118.016 L129.416,116.967 C128.609,115.595 127.914,114.281 127.295,112.957 L119.783,114.134 C117.631,114.467 115.626,112.956 115.298,110.865 L112.672,94.104 C112.51,93.068 112.761,92.031 113.381,91.183 C113.999,90.334 114.908,89.778 115.944,89.616 L123.455,88.439 C123.634,87.016 123.882,85.597 124.195,84.212 L124.454,83.128 C124.86,81.547 125.306,80.092 125.815,78.686 L119.671,74.209 C118.824,73.59 118.268,72.68 118.106,71.642 C117.945,70.605 118.196,69.569 118.814,68.723 L128.804,55.013 C130.004,53.37 132.64,52.949 134.292,54.153 L140.435,58.634 C141.569,57.752 142.749,56.924 143.949,56.167 L145.191,55.408 C146.415,54.686 147.691,54.014 148.999,53.404 L147.823,45.893 C147.661,44.859 147.912,43.822 148.53,42.974 C149.149,42.124 150.059,41.567 151.095,41.405 L167.856,38.781 C169.998,38.448 172.015,39.961 172.342,42.053 L173.519,49.564 C174.945,49.745 176.364,49.994 177.746,50.303 L178.888,50.575 C180.46,50.982 181.897,51.423 183.272,51.923 L187.751,45.78 C188.944,44.138 191.584,43.716 193.237,44.92 L206.947,54.916 C207.794,55.536 208.352,56.446 208.514,57.481 C208.676,58.516 208.424,59.553 207.805,60.402 L203.326,66.545 C204.2,67.669 205.027,68.847 205.791,70.054 L206.448,71.129 C207.245,72.478 207.935,73.783 208.553,75.108 L216.065,73.932 C218.229,73.594 220.225,75.116 220.553,77.205 L223.179,93.966 C223.512,96.103 222.045,98.115 219.905,98.451 L212.394,99.628 C212.216,101.047 211.969,102.465 211.657,103.851 L211.368,105.052 C210.973,106.586 210.535,108.007 210.035,109.379 L216.18,113.863 C217.027,114.479 217.582,115.389 217.744,116.426 C217.906,117.465 217.656,118.502 217.037,119.347 L207.043,133.054 C206.321,134.047 205.122,134.639 203.838,134.639 C202.999,134.639 202.21,134.389 201.557,133.914 L195.413,129.435 C194.297,130.303 193.117,131.131 191.903,131.902 L190.823,132.563 C189.465,133.361 188.161,134.05 186.85,134.663 L188.027,142.174 C188.188,143.208 187.937,144.245 187.318,145.093 C186.7,145.943 185.789,146.498 184.753,146.66 L167.994,149.286 C167.789,149.318 167.585,149.333 167.383,149.333 L167.383,149.333 Z M152.019,134.279 L152.571,134.488 C154.042,135.048 155.547,135.528 157.044,135.916 L158.45,136.255 C159.986,136.6 161.549,136.862 163.091,137.033 L163.678,137.098 L165.038,145.775 C165.236,147.04 166.438,147.963 167.754,147.754 L184.513,145.128 C185.139,145.031 185.69,144.694 186.066,144.18 C186.44,143.667 186.592,143.039 186.494,142.413 L185.136,133.74 L185.675,133.496 C187.118,132.845 188.543,132.104 190.027,131.234 L191.084,130.586 C192.41,129.744 193.702,128.823 194.91,127.856 L195.373,127.486 L202.47,132.66 C202.855,132.94 203.329,133.089 203.838,133.089 C204.628,133.089 205.358,132.734 205.789,132.141 L215.785,118.433 C216.159,117.921 216.31,117.294 216.213,116.667 C216.115,116.039 215.779,115.489 215.267,115.117 L208.17,109.936 L208.379,109.384 C208.945,107.894 209.433,106.351 209.866,104.669 L210.144,103.507 C210.487,101.988 210.748,100.426 210.923,98.866 L210.99,98.279 L219.666,96.919 C220.96,96.716 221.849,95.499 221.646,94.205 L219.021,77.445 C218.821,76.18 217.615,75.249 216.304,75.464 L207.628,76.822 L207.385,76.283 C206.728,74.824 205.988,73.399 205.119,71.927 L204.474,70.873 C203.639,69.557 202.72,68.266 201.748,67.047 L201.379,66.585 L206.551,59.488 C206.927,58.974 207.079,58.346 206.981,57.721 C206.883,57.095 206.546,56.544 206.032,56.17 L192.324,46.173 C191.342,45.459 189.715,45.718 189.004,46.693 L183.83,53.788 L183.276,53.579 C181.788,53.015 180.23,52.524 178.514,52.08 L177.397,51.814 C175.89,51.476 174.324,51.213 172.756,51.034 L172.17,50.967 L170.81,42.292 C170.613,41.027 169.4,40.106 168.095,40.313 L151.334,42.938 C150.709,43.036 150.158,43.372 149.784,43.887 C149.408,44.4 149.257,45.029 149.355,45.654 L150.713,54.327 L150.174,54.571 C148.73,55.222 147.322,55.951 145.989,56.738 L144.767,57.484 C143.46,58.31 142.167,59.229 140.936,60.212 L140.474,60.581 L133.377,55.407 C132.396,54.689 130.77,54.948 130.058,55.928 L120.066,69.637 C119.692,70.148 119.541,70.775 119.639,71.403 C119.737,72.03 120.074,72.581 120.585,72.957 L127.681,78.128 L127.472,78.68 C126.895,80.202 126.401,81.78 125.959,83.5 L125.705,84.561 C125.364,86.073 125.101,87.638 124.925,89.201 L124.858,89.788 L116.183,91.148 C115.558,91.245 115.007,91.583 114.633,92.096 C114.259,92.611 114.106,93.238 114.204,93.865 L116.83,110.625 C117.028,111.891 118.237,112.815 119.543,112.601 L128.218,111.243 L128.462,111.782 C129.118,113.237 129.864,114.671 130.744,116.167 L131.376,117.196 C132.211,118.516 133.13,119.805 134.103,121.019 L134.472,121.481 L129.3,128.581 C128.925,129.093 128.774,129.72 128.872,130.348 C128.971,130.976 129.306,131.528 129.818,131.9 L143.526,141.894 C144.508,142.61 146.136,142.351 146.845,141.374 L152.019,134.279 L152.019,134.279 Z M167.913,117.327 C156.56,117.327 146.67,108.863 144.912,97.637 C142.926,84.949 151.632,73.01 164.321,71.021 C165.519,70.834 166.737,70.738 167.941,70.738 C179.292,70.738 189.18,79.203 190.938,90.427 C192.926,103.117 184.22,115.058 171.531,117.046 C170.333,117.233 169.117,117.327 167.913,117.327 L167.913,117.327 Z M167.941,72.289 C166.817,72.289 165.68,72.378 164.561,72.554 C152.717,74.409 144.59,85.553 146.445,97.397 C148.086,107.876 157.315,115.777 167.913,115.777 C169.037,115.777 170.172,115.689 171.291,115.513 C183.135,113.658 191.262,102.512 189.406,90.667 C187.764,80.19 178.537,72.289 167.941,72.289 L167.941,72.289 Z" ></path>
        <path id="gear-minor" d="M78.165,116.202 L64.046,116.202 C62.173,116.202 60.649,114.677 60.649,112.804 L60.649,106.576 C59.534,106.252 58.429,105.874 57.352,105.447 L56.21,104.977 C55.151,104.516 54.104,104.002 53.087,103.442 L48.682,107.847 C47.452,109.079 45.113,109.081 43.877,107.848 L33.893,97.865 C33.252,97.225 32.899,96.371 32.899,95.462 C32.899,94.554 33.252,93.7 33.893,93.061 L38.297,88.653 C37.74,87.638 37.225,86.589 36.765,85.526 L36.37,84.58 C35.897,83.388 35.502,82.243 35.166,81.089 L28.935,81.089 C27.062,81.089 25.537,79.566 25.537,77.695 L25.537,63.575 C25.537,61.7 27.062,60.175 28.935,60.175 L35.166,60.175 C35.489,59.067 35.867,57.96 36.294,56.877 L36.649,56.017 C37.175,54.794 37.716,53.678 38.297,52.615 L33.893,48.208 C33.251,47.566 32.898,46.714 32.898,45.807 C32.898,44.901 33.251,44.047 33.891,43.405 L43.876,33.419 C45.108,32.184 47.449,32.184 48.682,33.419 L53.087,37.824 C54.101,37.267 55.152,36.752 56.216,36.29 L57.339,35.827 C58.417,35.4 59.525,35.018 60.649,34.691 L60.649,28.462 C60.649,26.589 62.173,25.064 64.046,25.064 L78.165,25.064 C80.04,25.064 81.564,26.589 81.564,28.462 L81.564,34.691 C82.686,35.018 83.793,35.398 84.864,35.822 L85.768,36.192 C86.985,36.719 88.088,37.255 89.126,37.824 L93.531,33.419 C94.764,32.187 97.102,32.184 98.337,33.419 L108.322,43.404 C108.965,44.049 109.318,44.901 109.318,45.807 C109.318,46.712 108.964,47.566 108.322,48.208 L103.916,52.613 C104.476,53.631 104.989,54.682 105.449,55.743 L105.852,56.712 C106.323,57.898 106.715,59.035 107.047,60.175 L113.278,60.175 C115.152,60.175 116.677,61.7 116.677,63.575 L116.677,77.695 C116.677,79.566 115.152,81.089 113.278,81.089 L107.048,81.089 C106.724,82.201 106.347,83.306 105.92,84.386 L105.528,85.34 C105.019,86.518 104.489,87.607 103.916,88.653 L108.322,93.061 C108.962,93.7 109.315,94.554 109.315,95.462 C109.315,96.371 108.962,97.225 108.322,97.865 L98.337,107.847 C97.105,109.079 94.767,109.082 93.531,107.847 L89.126,103.442 C88.112,103.999 87.062,104.514 85.999,104.977 L85.021,105.383 C83.827,105.854 82.692,106.246 81.564,106.575 L81.564,112.804 C81.564,114.677 80.04,116.202 78.165,116.202 L78.165,116.202 Z M52.823,101.513 L53.338,101.805 C54.469,102.452 55.64,103.038 56.818,103.55 L57.924,104.005 C59.13,104.484 60.376,104.899 61.628,105.241 L62.199,105.397 L62.199,112.804 C62.199,113.823 63.027,114.652 64.046,114.652 L78.165,114.652 C79.184,114.652 80.014,113.823 80.014,112.804 L80.014,105.398 L80.584,105.241 C81.848,104.894 83.109,104.472 84.44,103.946 L85.392,103.551 C86.575,103.036 87.751,102.446 88.875,101.805 L89.39,101.513 L94.627,106.751 C95.284,107.408 96.584,107.409 97.241,106.751 L107.225,96.769 C107.574,96.421 107.765,95.957 107.765,95.462 C107.765,94.969 107.574,94.505 107.225,94.157 L101.986,88.916 L102.278,88.401 C102.939,87.246 103.535,86.045 104.103,84.728 L104.48,83.812 C104.957,82.605 105.372,81.357 105.713,80.11 L105.869,79.539 L113.278,79.539 C114.297,79.539 115.127,78.712 115.127,77.695 L115.127,63.575 C115.127,62.556 114.297,61.726 113.278,61.726 L105.869,61.726 L105.713,61.155 C105.363,59.877 104.939,58.614 104.415,57.295 L104.021,56.347 C103.511,55.168 102.924,53.993 102.278,52.865 L101.986,52.35 L107.225,47.112 C107.575,46.762 107.768,46.299 107.768,45.807 C107.768,45.315 107.575,44.85 107.224,44.499 L97.241,34.516 C96.587,33.86 95.288,33.858 94.627,34.516 L89.39,39.753 L88.875,39.461 C87.735,38.81 86.52,38.207 85.166,37.621 L84.284,37.261 C83.094,36.788 81.846,36.372 80.583,36.025 L80.014,35.868 L80.014,28.462 C80.014,27.443 79.184,26.614 78.165,26.614 L64.046,26.614 C63.027,26.614 62.199,27.443 62.199,28.462 L62.199,35.868 L61.63,36.025 C60.365,36.372 59.118,36.788 57.922,37.264 L56.822,37.718 C55.638,38.231 54.461,38.819 53.338,39.461 L52.823,39.753 L47.586,34.516 C46.928,33.858 45.629,33.858 44.972,34.516 L34.989,44.5 C34.641,44.85 34.448,45.313 34.448,45.807 C34.448,46.301 34.641,46.764 34.989,47.112 L40.226,52.35 L39.934,52.863 C39.27,54.032 38.662,55.262 38.076,56.62 L37.731,57.457 C37.257,58.663 36.841,59.91 36.5,61.155 L36.344,61.726 L28.935,61.726 C27.916,61.726 27.088,62.556 27.088,63.575 L27.088,77.695 C27.088,78.712 27.916,79.539 28.935,79.539 L36.343,79.539 L36.5,80.108 C36.854,81.401 37.281,82.673 37.807,83.995 L38.193,84.92 C38.705,86.103 39.292,87.278 39.934,88.401 L40.226,88.915 L34.989,94.157 C34.641,94.505 34.45,94.969 34.45,95.462 C34.45,95.957 34.641,96.421 34.989,96.769 L44.972,106.751 C45.629,107.408 46.933,107.408 47.584,106.752 L52.823,101.513 L52.823,101.513 Z M71.107,90.149 C60.346,90.149 51.591,81.394 51.591,70.632 C51.591,59.872 60.346,51.117 71.107,51.117 C81.869,51.117 90.624,59.872 90.624,70.632 C90.624,81.394 81.869,90.149 71.107,90.149 L71.107,90.149 Z M71.107,52.668 C61.201,52.668 53.141,60.726 53.141,70.632 C53.141,80.538 61.201,88.598 71.107,88.598 C81.013,88.598 89.073,80.538 89.073,70.632 C89.073,60.726 81.013,52.668 71.107,52.668 L71.107,52.668 Z"></path>
        <path id="dotted-path-minor" d="M69.313,141.683 C68.662,141.668 68.15,141.141 68.182,140.49 C68.197,139.854 68.724,139.342 69.375,139.357 C70.011,139.373 70.508,139.916 70.491,140.552 C70.476,141.187 69.964,141.683 69.345,141.683 L69.313,141.683 L69.313,141.683 Z M74.384,140.473 C74.337,139.839 74.817,139.295 75.468,139.248 C76.104,139.203 76.663,139.698 76.693,140.334 C76.74,140.985 76.243,141.529 75.607,141.574 L75.53,141.574 C74.926,141.574 74.414,141.094 74.384,140.473 L74.384,140.473 Z M63.018,141.249 C62.382,141.187 61.917,140.598 61.995,139.962 C62.072,139.327 62.646,138.877 63.282,138.94 C63.918,139.017 64.383,139.591 64.305,140.227 C64.243,140.831 63.747,141.265 63.158,141.265 C63.111,141.265 63.064,141.265 63.018,141.249 L63.018,141.249 Z M56.799,140.272 C56.18,140.148 55.761,139.529 55.885,138.893 C56.024,138.272 56.63,137.869 57.266,137.993 C57.9,138.117 58.305,138.737 58.18,139.357 C58.056,139.916 57.575,140.287 57.033,140.287 C56.955,140.287 56.878,140.287 56.799,140.272 L56.799,140.272 Z M50.691,138.737 C50.07,138.552 49.73,137.901 49.901,137.295 C50.085,136.676 50.738,136.318 51.357,136.505 C51.978,136.691 52.319,137.342 52.133,137.961 C51.978,138.458 51.529,138.784 51.017,138.784 C50.908,138.784 50.799,138.768 50.691,138.737 L50.691,138.737 Z M44.737,136.659 C44.148,136.411 43.853,135.745 44.086,135.155 C44.333,134.551 45.001,134.256 45.605,134.504 C46.194,134.738 46.489,135.419 46.256,136.008 C46.07,136.473 45.637,136.738 45.17,136.738 C45.031,136.738 44.877,136.721 44.737,136.659 L44.737,136.659 Z M98.433,135.016 C98.169,134.427 98.433,133.744 99.022,133.481 C99.611,133.217 100.293,133.481 100.557,134.07 C100.82,134.659 100.557,135.342 99.968,135.605 C99.812,135.683 99.657,135.714 99.502,135.714 C99.052,135.714 98.619,135.451 98.433,135.016 L98.433,135.016 Z M39,134.055 C38.426,133.776 38.193,133.063 38.488,132.504 C38.767,131.93 39.48,131.699 40.039,131.992 L40.054,131.992 C40.613,132.271 40.844,132.984 40.566,133.543 C40.349,133.946 39.945,134.194 39.527,134.194 C39.341,134.194 39.154,134.147 39,134.055 L39,134.055 Z M33.511,130.969 C32.952,130.628 32.798,129.9 33.139,129.356 C33.479,128.814 34.192,128.643 34.736,128.985 C35.278,129.326 35.449,130.039 35.109,130.581 C34.89,130.939 34.503,131.14 34.115,131.14 C33.914,131.14 33.697,131.078 33.511,130.969 L33.511,130.969 Z M28.316,127.388 C27.789,127 27.696,126.272 28.084,125.76 C28.472,125.248 29.2,125.154 29.712,125.542 C30.224,125.914 30.333,126.643 29.945,127.17 C29.712,127.465 29.356,127.619 29.014,127.619 C28.766,127.619 28.519,127.542 28.316,127.388 L28.316,127.388 Z M23.448,123.372 C22.983,122.937 22.936,122.209 23.37,121.728 C23.805,121.263 24.533,121.216 25.013,121.65 C25.495,122.085 25.525,122.813 25.092,123.293 C24.874,123.542 24.548,123.681 24.238,123.681 C23.959,123.681 23.681,123.573 23.448,123.372 L23.448,123.372 Z M18.967,118.952 C18.533,118.472 18.564,117.744 19.029,117.309 C19.509,116.875 20.237,116.89 20.672,117.371 C21.107,117.836 21.092,118.564 20.61,118.999 C20.393,119.216 20.098,119.309 19.819,119.309 C19.509,119.309 19.199,119.185 18.967,118.952 L18.967,118.952 Z M14.889,114.146 L14.889,114.146 C14.502,113.634 14.594,112.906 15.106,112.502 C15.618,112.114 16.346,112.208 16.734,112.72 C17.121,113.215 17.029,113.944 16.532,114.347 C16.316,114.518 16.067,114.596 15.819,114.596 C15.463,114.596 15.121,114.44 14.889,114.146 L14.889,114.146 Z M11.26,108.998 C10.904,108.456 11.058,107.742 11.602,107.385 C12.144,107.044 12.872,107.199 13.215,107.742 C13.555,108.284 13.401,108.998 12.857,109.338 C12.671,109.463 12.455,109.525 12.238,109.525 C11.85,109.525 11.478,109.338 11.26,108.998 L11.26,108.998 Z M8.098,103.556 C8.098,103.556 8.098,103.556 8.081,103.556 C7.788,102.982 8.004,102.269 8.578,101.973 C9.152,101.68 9.85,101.896 10.159,102.47 L10.144,102.47 C10.454,103.044 10.221,103.742 9.664,104.036 C9.493,104.13 9.306,104.176 9.12,104.176 C8.702,104.176 8.299,103.943 8.098,103.556 L8.098,103.556 Z M5.415,97.833 C5.182,97.244 5.462,96.563 6.051,96.315 C6.64,96.082 7.323,96.362 7.57,96.951 C7.818,97.54 7.539,98.221 6.935,98.469 C6.795,98.532 6.64,98.563 6.501,98.563 C6.036,98.563 5.601,98.283 5.415,97.833 L5.415,97.833 Z M3.26,91.911 C3.074,91.306 3.415,90.655 4.036,90.453 C4.64,90.267 5.291,90.609 5.492,91.229 C5.678,91.833 5.338,92.485 4.717,92.687 C4.609,92.717 4.5,92.732 4.376,92.732 C3.88,92.732 3.43,92.407 3.26,91.911 L3.26,91.911 Z M1.648,85.833 C1.508,85.197 1.911,84.577 2.547,84.437 C3.166,84.298 3.787,84.701 3.927,85.337 C4.066,85.958 3.663,86.577 3.042,86.716 C2.95,86.733 2.873,86.748 2.794,86.748 C2.252,86.748 1.772,86.375 1.648,85.833 L1.648,85.833 Z M0.592,79.615 C0.515,78.98 0.965,78.39 1.601,78.312 C2.237,78.235 2.811,78.685 2.888,79.321 C2.98,79.957 2.515,80.546 1.879,80.623 C1.834,80.638 1.787,80.638 1.74,80.638 C1.166,80.638 0.671,80.204 0.592,79.615 L0.592,79.615 Z M0.08,73.335 L0.08,73.335 C0.05,72.699 0.547,72.157 1.198,72.125 C1.834,72.11 2.376,72.607 2.406,73.243 L2.391,73.243 C2.423,73.894 1.926,74.436 1.275,74.451 L1.228,74.451 C0.624,74.451 0.097,73.956 0.08,73.335 L0.08,73.335 Z M1.228,68.266 C0.577,68.234 0.08,67.677 0.112,67.041 C0.143,66.39 0.701,65.893 1.337,65.94 C1.973,65.97 2.468,66.514 2.438,67.148 C2.406,67.769 1.896,68.266 1.275,68.266 L1.228,68.266 L1.228,68.266 Z M1.693,62.079 C1.059,61.985 0.624,61.396 0.701,60.761 C0.794,60.125 1.384,59.676 2.019,59.768 C2.654,59.862 3.104,60.451 3.012,61.087 C2.935,61.659 2.423,62.094 1.849,62.094 C1.802,62.094 1.755,62.079 1.693,62.079 L1.693,62.079 Z M2.717,55.969 C2.097,55.814 1.71,55.193 1.849,54.574 C1.988,53.938 2.624,53.551 3.244,53.705 C3.864,53.844 4.267,54.465 4.113,55.086 C3.989,55.628 3.507,56.001 2.98,56.001 C2.888,56.001 2.811,55.985 2.717,55.969 L2.717,55.969 Z M4.282,49.968 C3.678,49.767 3.338,49.1 3.539,48.496 C3.74,47.89 4.391,47.55 5.012,47.751 C5.616,47.953 5.957,48.604 5.756,49.224 C5.586,49.704 5.136,50.03 4.64,50.03 C4.531,50.03 4.407,50 4.282,49.968 L4.282,49.968 Z M6.376,44.123 C5.787,43.875 5.507,43.193 5.772,42.603 C6.019,42.014 6.702,41.735 7.291,41.984 C7.88,42.247 8.159,42.93 7.912,43.519 C7.71,43.952 7.291,44.216 6.841,44.216 C6.687,44.216 6.531,44.185 6.376,44.123 L6.376,44.123 Z M8.981,38.495 C8.424,38.199 8.206,37.486 8.516,36.929 C8.811,36.355 9.525,36.154 10.082,36.448 C10.656,36.758 10.857,37.456 10.563,38.03 C10.345,38.418 9.942,38.634 9.54,38.634 C9.353,38.634 9.167,38.587 8.981,38.495 L8.981,38.495 Z M12.082,33.13 C11.54,32.773 11.401,32.059 11.741,31.517 C12.097,30.974 12.827,30.834 13.354,31.192 C13.896,31.533 14.035,32.261 13.695,32.804 C13.463,33.13 13.09,33.316 12.718,33.316 C12.501,33.316 12.283,33.254 12.082,33.13 L12.082,33.13 Z M15.633,28.044 C15.136,27.656 15.044,26.913 15.447,26.416 C15.851,25.904 16.579,25.827 17.091,26.23 C17.586,26.633 17.665,27.362 17.277,27.858 C17.044,28.153 16.703,28.307 16.361,28.307 C16.098,28.307 15.851,28.215 15.633,28.044 L15.633,28.044 Z M19.633,23.3 C19.168,22.865 19.137,22.12 19.586,21.655 C20.036,21.191 20.766,21.175 21.231,21.625 C21.696,22.058 21.711,22.803 21.278,23.268 C21.045,23.501 20.734,23.625 20.424,23.625 C20.145,23.625 19.85,23.516 19.633,23.3 L19.633,23.3 Z M24.022,18.927 C23.604,18.447 23.649,17.717 24.131,17.284 C24.611,16.864 25.339,16.911 25.774,17.391 C26.193,17.873 26.146,18.616 25.665,19.036 C25.448,19.222 25.169,19.33 24.889,19.33 C24.58,19.33 24.255,19.19 24.022,18.927 L24.022,18.927 Z M28.782,14.958 C28.41,14.446 28.519,13.716 29.03,13.329 C29.557,12.958 30.286,13.065 30.658,13.577 C31.046,14.104 30.937,14.834 30.41,15.205 C30.209,15.361 29.96,15.438 29.727,15.438 C29.371,15.438 29.014,15.267 28.782,14.958 L28.782,14.958 Z M110.387,14.198 L110.387,14.198 C109.86,13.825 109.719,13.097 110.092,12.57 C110.464,12.042 111.193,11.919 111.705,12.29 L111.72,12.29 C112.231,12.663 112.372,13.376 112,13.903 C111.767,14.228 111.411,14.399 111.053,14.399 C110.822,14.399 110.588,14.337 110.387,14.198 L110.387,14.198 Z M33.883,11.422 C33.541,10.879 33.728,10.165 34.271,9.825 C34.813,9.499 35.542,9.67 35.867,10.213 C36.209,10.771 36.023,11.484 35.479,11.825 C35.278,11.934 35.077,11.98 34.875,11.98 C34.488,11.98 34.1,11.778 33.883,11.422 L33.883,11.422 Z M105.239,10.926 L105.224,10.926 C104.665,10.615 104.479,9.902 104.804,9.345 C105.115,8.786 105.828,8.6 106.387,8.91 C106.945,9.236 107.13,9.949 106.821,10.491 C106.603,10.879 106.2,11.082 105.798,11.082 C105.611,11.082 105.41,11.035 105.239,10.926 L105.239,10.926 Z M39.263,8.352 C38.985,7.778 39.216,7.081 39.79,6.801 C40.379,6.522 41.078,6.756 41.356,7.328 C41.636,7.902 41.403,8.615 40.829,8.895 C40.659,8.972 40.488,9.019 40.302,9.019 C39.884,9.019 39.465,8.771 39.263,8.352 L39.263,8.352 Z M99.812,8.135 L99.812,8.135 C99.223,7.872 98.975,7.174 99.238,6.6 C99.502,6.011 100.2,5.762 100.789,6.026 C101.363,6.289 101.626,6.987 101.363,7.576 C101.161,7.996 100.726,8.244 100.293,8.244 C100.137,8.244 99.968,8.212 99.812,8.135 L99.812,8.135 Z M44.907,5.777 C44.675,5.188 44.969,4.507 45.575,4.274 C46.164,4.042 46.845,4.351 47.078,4.941 C47.295,5.546 47.001,6.212 46.412,6.445 C46.271,6.507 46.132,6.522 45.993,6.522 C45.528,6.522 45.078,6.244 44.907,5.777 L44.907,5.777 Z M94.169,5.84 C93.563,5.623 93.237,4.957 93.455,4.351 C93.672,3.747 94.338,3.436 94.944,3.655 C95.548,3.856 95.858,4.522 95.657,5.126 C95.486,5.608 95.036,5.902 94.556,5.902 C94.417,5.902 94.293,5.886 94.169,5.84 L94.169,5.84 Z M50.753,3.717 C50.567,3.096 50.923,2.46 51.544,2.274 C52.164,2.104 52.799,2.46 52.985,3.081 C53.156,3.7 52.799,4.336 52.18,4.522 L52.18,4.507 C52.086,4.537 51.962,4.554 51.869,4.554 C51.357,4.554 50.893,4.227 50.753,3.717 L50.753,3.717 Z M88.339,4.057 L88.339,4.057 C87.718,3.886 87.345,3.267 87.501,2.646 C87.656,2.01 88.292,1.638 88.911,1.809 C89.547,1.963 89.92,2.599 89.749,3.22 C89.624,3.747 89.144,4.087 88.632,4.087 C88.523,4.087 88.431,4.087 88.339,4.057 L88.339,4.057 Z M56.754,2.181 C56.63,1.545 57.048,0.941 57.684,0.817 C58.305,0.693 58.909,1.111 59.033,1.747 C59.157,2.367 58.738,2.987 58.118,3.111 C58.041,3.126 57.962,3.126 57.9,3.126 C57.343,3.126 56.861,2.738 56.754,2.181 L56.754,2.181 Z M82.368,2.801 L82.384,2.801 C81.749,2.693 81.314,2.087 81.422,1.468 C81.516,0.832 82.12,0.397 82.756,0.506 C83.392,0.616 83.81,1.205 83.717,1.841 C83.608,2.413 83.128,2.817 82.57,2.817 C82.508,2.817 82.445,2.801 82.368,2.801 L82.368,2.801 Z M62.877,1.188 C62.8,0.553 63.265,-0.02 63.918,-0.083 C64.552,-0.145 65.111,0.32 65.188,0.956 C65.25,1.592 64.785,2.166 64.134,2.228 L64.025,2.228 C63.436,2.228 62.925,1.778 62.877,1.188 L62.877,1.188 Z M76.322,2.072 L76.322,2.072 C75.686,2.025 75.205,1.468 75.251,0.832 C75.299,0.181 75.856,-0.301 76.492,-0.254 C77.143,-0.192 77.624,0.367 77.577,1.003 C77.531,1.607 77.019,2.072 76.414,2.072 L76.322,2.072 L76.322,2.072 Z M69.049,0.738 C69.049,0.087 69.561,-0.44 70.197,-0.44 C70.833,-0.455 71.375,0.057 71.375,0.708 C71.39,1.344 70.879,1.871 70.227,1.886 C70.227,1.886 70.227,1.886 70.212,1.886 C69.576,1.886 69.049,1.374 69.049,0.738 L69.049,0.738 Z"></path>
        <path id="dotted-path-major" d="M167.757,171.996 L167.757,171.996 C167.121,171.996 166.594,171.469 166.594,170.833 C166.594,170.197 167.121,169.67 167.757,169.67 C168.408,169.67 168.92,170.197 168.92,170.833 C168.92,171.484 168.408,171.996 167.757,171.996 L167.757,171.996 Z M172.796,170.694 C172.75,170.058 173.231,169.501 173.866,169.454 C174.502,169.392 175.06,169.872 175.122,170.523 C175.169,171.159 174.688,171.718 174.037,171.764 L173.959,171.764 C173.354,171.764 172.843,171.298 172.796,170.694 L172.796,170.694 Z M161.478,171.748 L161.478,171.748 C160.842,171.686 160.361,171.129 160.407,170.493 C160.454,169.857 161.012,169.377 161.663,169.422 C162.299,169.469 162.78,170.028 162.733,170.679 C162.686,171.283 162.174,171.748 161.57,171.748 L161.478,171.748 L161.478,171.748 Z M178.967,170.075 C178.86,169.439 179.292,168.85 179.928,168.756 C180.564,168.647 181.169,169.081 181.262,169.717 C181.355,170.353 180.922,170.942 180.286,171.051 C180.224,171.051 180.161,171.066 180.115,171.066 C179.541,171.066 179.061,170.647 178.967,170.075 L178.967,170.075 Z M155.229,171.004 L155.229,171.004 C154.593,170.895 154.158,170.306 154.267,169.67 C154.36,169.034 154.965,168.601 155.601,168.694 C156.236,168.803 156.67,169.392 156.563,170.028 C156.469,170.602 155.972,171.019 155.415,171.019 C155.353,171.019 155.291,171.004 155.229,171.004 L155.229,171.004 Z M185.062,168.972 C184.921,168.353 185.309,167.717 185.929,167.578 C186.55,167.422 187.169,167.809 187.325,168.445 C187.48,169.066 187.092,169.687 186.456,169.841 C186.379,169.857 186.287,169.872 186.193,169.872 C185.666,169.872 185.186,169.516 185.062,168.972 L185.062,168.972 Z M149.057,169.764 L149.057,169.764 C148.438,169.608 148.05,168.989 148.204,168.353 C148.36,167.732 148.98,167.345 149.616,167.5 C150.236,167.655 150.624,168.276 150.468,168.912 C150.344,169.439 149.864,169.794 149.337,169.794 C149.243,169.794 149.151,169.779 149.057,169.764 L149.057,169.764 Z M191.063,167.391 C190.86,166.787 191.202,166.12 191.806,165.933 C192.41,165.732 193.078,166.074 193.264,166.678 C193.466,167.299 193.14,167.95 192.519,168.152 C192.41,168.182 192.286,168.197 192.163,168.197 C191.666,168.197 191.217,167.888 191.063,167.391 L191.063,167.391 Z M143.011,168.043 L143.011,168.043 C142.405,167.841 142.064,167.19 142.266,166.569 C142.467,165.965 143.118,165.64 143.739,165.826 C144.343,166.027 144.685,166.693 144.484,167.299 C144.313,167.794 143.863,168.105 143.366,168.105 C143.259,168.105 143.135,168.089 143.011,168.043 L143.011,168.043 Z M196.907,165.344 C196.659,164.755 196.937,164.074 197.543,163.825 C198.132,163.577 198.815,163.856 199.062,164.461 C199.295,165.05 199.016,165.732 198.428,165.98 C198.287,166.042 198.132,166.057 197.993,166.057 C197.528,166.057 197.093,165.794 196.907,165.344 L196.907,165.344 Z M137.102,165.856 C136.513,165.593 136.235,164.911 136.483,164.321 C136.731,163.732 137.413,163.453 138.002,163.701 C138.591,163.95 138.886,164.631 138.638,165.22 C138.436,165.67 138.002,165.933 137.552,165.933 C137.413,165.933 137.258,165.903 137.102,165.856 L137.102,165.856 Z M202.583,162.849 C202.287,162.26 202.505,161.562 203.079,161.282 C203.651,160.988 204.349,161.204 204.645,161.778 C204.939,162.352 204.707,163.065 204.133,163.344 C203.962,163.438 203.792,163.468 203.606,163.468 C203.187,163.468 202.784,163.252 202.583,162.849 L202.583,162.849 Z M131.397,163.19 C130.838,162.894 130.606,162.198 130.9,161.624 C131.195,161.05 131.893,160.832 132.467,161.127 C133.04,161.422 133.258,162.119 132.962,162.693 C132.761,163.097 132.358,163.329 131.939,163.329 C131.754,163.329 131.568,163.282 131.397,163.19 L131.397,163.19 Z M208.025,159.902 C207.699,159.343 207.87,158.63 208.412,158.305 C208.954,157.964 209.669,158.135 210.01,158.677 C210.35,159.236 210.179,159.949 209.622,160.275 C209.436,160.399 209.219,160.444 209.016,160.444 C208.629,160.444 208.241,160.26 208.025,159.902 L208.025,159.902 Z M125.923,160.104 C125.381,159.763 125.21,159.05 125.552,158.491 C125.877,157.949 126.606,157.778 127.148,158.118 C127.691,158.461 127.861,159.174 127.52,159.716 C127.304,160.073 126.916,160.275 126.529,160.275 C126.327,160.275 126.109,160.213 125.923,160.104 L125.923,160.104 Z M213.235,156.538 C212.862,156.011 212.971,155.282 213.498,154.91 C214.01,154.522 214.738,154.646 215.111,155.173 C215.499,155.685 215.374,156.413 214.863,156.786 C214.646,156.94 214.413,157.018 214.18,157.018 C213.824,157.018 213.466,156.848 213.235,156.538 L213.235,156.538 Z M120.697,156.585 L120.697,156.585 C120.185,156.197 120.078,155.467 120.45,154.957 C120.821,154.428 121.551,154.321 122.078,154.708 C122.59,155.079 122.698,155.809 122.327,156.336 C122.109,156.647 121.753,156.801 121.395,156.801 C121.147,156.801 120.915,156.739 120.697,156.585 L120.697,156.585 Z M218.165,152.77 C217.747,152.289 217.793,151.545 218.289,151.126 C218.786,150.708 219.514,150.77 219.932,151.265 C220.352,151.747 220.29,152.49 219.793,152.894 C219.576,153.079 219.313,153.173 219.049,153.173 C218.724,153.173 218.382,153.034 218.165,152.77 L218.165,152.77 Z M115.782,152.676 C115.782,152.676 115.782,152.676 115.782,152.661 C115.287,152.243 115.24,151.514 115.658,151.034 C116.078,150.537 116.806,150.49 117.287,150.909 C117.783,151.327 117.829,152.057 117.427,152.552 C117.194,152.816 116.868,152.957 116.542,152.957 C116.264,152.957 116,152.863 115.782,152.676 L115.782,152.676 Z M222.77,148.63 C222.32,148.181 222.32,147.436 222.787,146.986 L222.77,146.986 C223.236,146.536 223.965,146.536 224.429,146.986 C224.879,147.451 224.879,148.181 224.429,148.63 C224.429,148.63 224.429,148.63 224.414,148.63 C224.196,148.862 223.902,148.971 223.607,148.971 C223.297,148.971 223.003,148.862 222.77,148.63 L222.77,148.63 Z M111.177,148.382 C110.728,147.932 110.728,147.187 111.177,146.738 C111.627,146.288 112.372,146.288 112.82,146.738 C113.27,147.204 113.27,147.932 112.82,148.382 C112.589,148.614 112.294,148.723 112,148.723 C111.705,148.723 111.394,148.614 111.177,148.382 L111.177,148.382 Z M227.066,144.148 C226.569,143.73 226.522,143.001 226.941,142.506 C227.344,142.024 228.089,141.962 228.569,142.381 C229.066,142.799 229.111,143.529 228.709,144.024 C228.477,144.288 228.151,144.429 227.809,144.429 C227.546,144.429 227.282,144.335 227.066,144.148 L227.066,144.148 Z M106.913,143.746 C106.496,143.266 106.558,142.521 107.053,142.118 C107.534,141.698 108.278,141.761 108.697,142.242 C109.1,142.737 109.053,143.467 108.556,143.885 C108.34,144.071 108.076,144.164 107.798,144.164 C107.472,144.164 107.147,144.024 106.913,143.746 L106.913,143.746 Z M230.972,139.342 C230.46,138.97 230.336,138.242 230.724,137.715 C231.096,137.203 231.825,137.079 232.337,137.466 C232.865,137.839 232.973,138.567 232.6,139.094 C232.368,139.404 232.011,139.559 231.655,139.559 C231.422,139.559 231.19,139.497 230.972,139.342 L230.972,139.342 Z M103.037,138.799 C102.665,138.272 102.774,137.559 103.301,137.171 C103.812,136.798 104.541,136.923 104.928,137.434 C105.301,137.961 105.177,138.691 104.665,139.064 C104.449,139.203 104.215,139.28 103.984,139.28 C103.626,139.28 103.27,139.109 103.037,138.799 L103.037,138.799 Z M234.508,134.241 C233.966,133.9 233.795,133.187 234.12,132.643 C234.461,132.101 235.174,131.93 235.733,132.271 C236.275,132.597 236.446,133.31 236.105,133.868 C235.887,134.226 235.5,134.412 235.112,134.412 C234.911,134.412 234.694,134.365 234.508,134.241 L234.508,134.241 Z M237.624,128.876 C237.05,128.581 236.834,127.883 237.112,127.31 C237.408,126.737 238.121,126.519 238.695,126.814 C239.252,127.108 239.485,127.806 239.19,128.379 C238.988,128.782 238.571,129.015 238.151,129.015 C237.982,129.015 237.795,128.969 237.624,128.876 L237.624,128.876 Z M240.307,123.293 C239.719,123.046 239.438,122.364 239.686,121.775 C239.935,121.186 240.618,120.89 241.207,121.139 C241.796,121.387 242.074,122.068 241.826,122.659 C241.656,123.108 241.222,123.387 240.757,123.387 C240.601,123.387 240.462,123.355 240.307,123.293 L240.307,123.293 Z M242.556,117.495 C241.935,117.309 241.609,116.641 241.811,116.037 C242.012,115.418 242.663,115.091 243.269,115.294 C243.888,115.495 244.214,116.146 244.013,116.75 C243.858,117.247 243.408,117.557 242.912,117.557 C242.787,117.557 242.663,117.541 242.556,117.495 L242.556,117.495 Z M244.323,111.557 C243.687,111.417 243.315,110.781 243.454,110.161 C243.61,109.541 244.246,109.154 244.865,109.293 C245.486,109.447 245.873,110.068 245.719,110.704 C245.595,111.231 245.113,111.587 244.586,111.587 C244.509,111.587 244.415,111.587 244.323,111.557 L244.323,111.557 Z M245.61,105.494 C244.974,105.4 244.539,104.796 244.649,104.176 C244.741,103.54 245.347,103.106 245.983,103.198 C246.602,103.292 247.037,103.896 246.943,104.532 C246.85,105.106 246.353,105.509 245.796,105.509 C245.734,105.509 245.672,105.509 245.61,105.494 L245.61,105.494 Z M246.432,99.354 C245.78,99.307 245.315,98.75 245.362,98.097 C245.409,97.462 245.966,96.981 246.602,97.028 C247.253,97.09 247.735,97.647 247.687,98.283 C247.687,98.283 247.687,98.283 247.673,98.283 C247.625,98.889 247.114,99.354 246.525,99.354 L246.432,99.354 L246.432,99.354 Z M245.595,92.004 C245.595,91.353 246.122,90.841 246.758,90.841 C247.392,90.841 247.921,91.353 247.921,92.004 C247.921,92.64 247.409,93.167 246.758,93.167 C246.122,93.167 245.595,92.64 245.595,92.004 L245.595,92.004 Z M245.409,86.53 C245.362,85.895 245.842,85.337 246.478,85.305 C247.129,85.243 247.687,85.74 247.718,86.375 C247.765,87.011 247.285,87.569 246.649,87.616 L246.555,87.616 C245.951,87.616 245.454,87.151 245.409,86.53 L245.409,86.53 Z M244.741,80.469 C244.649,79.833 245.083,79.244 245.719,79.15 C246.353,79.057 246.943,79.49 247.052,80.126 C247.145,80.762 246.696,81.351 246.06,81.445 C246.013,81.46 245.951,81.46 245.904,81.46 C245.332,81.46 244.835,81.041 244.741,80.469 L244.741,80.469 Z M243.61,74.468 C243.471,73.847 243.858,73.211 244.478,73.072 C245.113,72.932 245.734,73.32 245.873,73.941 C245.873,73.941 245.873,73.941 245.873,73.956 C246.013,74.575 245.625,75.196 245.004,75.335 C244.912,75.367 244.835,75.367 244.741,75.367 C244.214,75.367 243.734,75.01 243.61,74.468 L243.61,74.468 Z M241.997,68.575 L241.997,68.575 C241.811,67.955 242.152,67.304 242.757,67.118 C243.377,66.916 244.028,67.257 244.214,67.878 C244.415,68.482 244.075,69.133 243.454,69.335 C243.346,69.366 243.222,69.382 243.113,69.382 C242.618,69.382 242.152,69.071 241.997,68.575 L241.997,68.575 Z M239.935,62.822 L239.935,62.839 C239.686,62.233 239.982,61.552 240.571,61.318 C241.16,61.07 241.843,61.365 242.089,61.954 C242.323,62.559 242.044,63.226 241.438,63.475 C241.299,63.52 241.16,63.552 241.005,63.552 C240.555,63.552 240.121,63.288 239.935,62.822 L239.935,62.822 Z M237.423,57.272 L237.423,57.272 C237.129,56.699 237.361,56.001 237.935,55.705 C238.508,55.427 239.206,55.66 239.5,56.232 C239.78,56.806 239.547,57.504 238.973,57.799 C238.802,57.877 238.633,57.907 238.462,57.907 C238.027,57.907 237.624,57.675 237.423,57.272 L237.423,57.272 Z M234.478,51.923 C234.135,51.379 234.322,50.666 234.865,50.325 C235.407,50 236.136,50.171 236.461,50.728 C236.803,51.272 236.617,51.985 236.074,52.326 C235.872,52.435 235.671,52.48 235.469,52.48 C235.067,52.48 234.694,52.294 234.478,51.923 L234.478,51.923 Z M231.112,46.821 L231.112,46.821 C230.741,46.31 230.848,45.581 231.377,45.209 C231.904,44.821 232.632,44.945 233.004,45.472 C233.375,45.999 233.253,46.728 232.741,47.1 C232.523,47.239 232.291,47.317 232.058,47.317 C231.702,47.317 231.345,47.147 231.112,46.821 L231.112,46.821 Z M227.359,41.999 L227.359,42.014 C226.957,41.519 227.019,40.774 227.5,40.371 C227.995,39.952 228.724,40.014 229.143,40.51 C229.561,40.992 229.499,41.735 229.004,42.138 C228.786,42.324 228.522,42.418 228.259,42.418 C227.933,42.418 227.592,42.277 227.359,41.999 L227.359,41.999 Z M223.251,37.486 L223.251,37.486 C222.802,37.022 222.802,36.293 223.267,35.843 C223.716,35.394 224.46,35.394 224.909,35.859 C225.359,36.308 225.359,37.053 224.894,37.503 C224.678,37.72 224.382,37.829 224.089,37.829 C223.778,37.829 223.483,37.72 223.251,37.486 L223.251,37.486 Z M218.801,33.316 L218.801,33.316 C218.304,32.882 218.258,32.153 218.677,31.672 C219.095,31.177 219.84,31.13 220.32,31.548 C220.801,31.967 220.864,32.711 220.444,33.192 C220.212,33.456 219.887,33.595 219.561,33.595 C219.281,33.595 219.018,33.503 218.801,33.316 L218.801,33.316 Z M214.025,29.485 C213.514,29.114 213.405,28.385 213.792,27.858 C214.165,27.346 214.893,27.238 215.405,27.609 L215.421,27.609 C215.932,27.997 216.041,28.727 215.653,29.239 C215.436,29.547 215.079,29.719 214.723,29.719 C214.475,29.719 214.242,29.641 214.025,29.485 L214.025,29.485 Z M208.971,26.059 L208.986,26.059 C208.427,25.718 208.258,24.99 208.598,24.446 C208.939,23.904 209.669,23.733 210.211,24.075 C210.753,24.416 210.924,25.144 210.583,25.688 C210.35,26.028 209.978,26.23 209.59,26.23 C209.374,26.23 209.172,26.168 208.971,26.059 L208.971,26.059 Z M126.109,25.144 C125.783,24.602 125.955,23.874 126.512,23.548 C127.055,23.221 127.769,23.392 128.109,23.936 C128.435,24.493 128.265,25.206 127.706,25.532 C127.52,25.656 127.319,25.703 127.103,25.703 C126.715,25.703 126.327,25.501 126.109,25.144 L126.109,25.144 Z M203.668,23.02 L203.668,23.02 C203.094,22.726 202.876,22.028 203.171,21.454 C203.467,20.88 204.163,20.663 204.737,20.957 C205.311,21.253 205.527,21.951 205.234,22.525 C205.032,22.927 204.63,23.16 204.195,23.16 C204.024,23.16 203.838,23.114 203.668,23.02 L203.668,23.02 Z M131.489,22.058 C131.195,21.486 131.427,20.788 132.001,20.508 C132.575,20.214 133.273,20.447 133.568,21.019 C133.862,21.593 133.63,22.291 133.056,22.587 C132.885,22.664 132.699,22.711 132.529,22.711 C132.11,22.711 131.692,22.462 131.489,22.058 L131.489,22.058 Z M198.132,20.43 C197.543,20.167 197.265,19.501 197.511,18.896 C197.76,18.306 198.458,18.027 199.047,18.291 C199.047,18.291 199.047,18.291 199.047,18.276 C199.636,18.539 199.916,19.205 199.668,19.811 C199.481,20.244 199.047,20.524 198.597,20.524 C198.443,20.524 198.287,20.492 198.132,20.43 L198.132,20.43 Z M137.087,19.407 C136.839,18.818 137.134,18.136 137.723,17.903 C138.327,17.655 138.995,17.95 139.242,18.539 C139.49,19.128 139.196,19.811 138.607,20.059 C138.466,20.105 138.312,20.137 138.173,20.137 C137.708,20.137 137.273,19.873 137.087,19.407 L137.087,19.407 Z M192.41,18.276 C191.806,18.074 191.48,17.407 191.682,16.802 C191.883,16.183 192.534,15.856 193.155,16.059 C193.759,16.26 194.085,16.927 193.883,17.531 C193.729,18.027 193.279,18.323 192.783,18.323 C192.658,18.323 192.534,18.306 192.41,18.276 L192.41,18.276 Z M142.886,17.222 C142.685,16.601 143.026,15.95 143.647,15.764 C144.251,15.562 144.902,15.903 145.103,16.508 C145.305,17.128 144.964,17.779 144.343,17.965 C144.236,18.012 144.112,18.027 143.987,18.027 C143.491,18.027 143.041,17.717 142.886,17.222 L142.886,17.222 Z M186.55,16.571 C185.929,16.43 185.542,15.795 185.696,15.175 C185.852,14.554 186.471,14.166 187.107,14.322 C187.728,14.477 188.116,15.097 187.961,15.733 C187.82,16.26 187.356,16.616 186.829,16.616 C186.736,16.616 186.642,16.601 186.55,16.571 L186.55,16.571 Z M148.84,15.485 C148.686,14.864 149.074,14.228 149.708,14.089 C150.329,13.95 150.965,14.337 151.104,14.958 C151.243,15.577 150.856,16.213 150.236,16.353 C150.143,16.368 150.05,16.384 149.973,16.384 C149.445,16.384 148.965,16.027 148.84,15.485 L148.84,15.485 Z M180.564,15.361 C179.928,15.252 179.51,14.648 179.603,14.012 C179.712,13.391 180.316,12.958 180.937,13.065 C181.573,13.159 182.006,13.763 181.898,14.399 C181.805,14.958 181.309,15.376 180.751,15.376 C180.689,15.376 180.627,15.361 180.564,15.361 L180.564,15.361 Z M154.903,14.228 C154.809,13.592 155.244,13.003 155.88,12.911 C156.516,12.802 157.105,13.236 157.214,13.872 C157.306,14.508 156.872,15.113 156.236,15.205 C156.175,15.205 156.113,15.222 156.051,15.222 C155.492,15.222 154.995,14.802 154.903,14.228 L154.903,14.228 Z M174.502,14.601 C173.866,14.554 173.386,13.997 173.448,13.345 C173.494,12.709 174.067,12.228 174.703,12.29 C175.339,12.337 175.82,12.911 175.758,13.547 C175.711,14.151 175.2,14.616 174.611,14.616 C174.579,14.616 174.548,14.601 174.502,14.601 L174.502,14.601 Z M161.059,13.453 C161.012,12.817 161.493,12.26 162.129,12.213 C162.78,12.166 163.337,12.647 163.384,13.283 C163.416,13.934 162.95,14.477 162.299,14.523 C162.268,14.539 162.253,14.539 162.221,14.539 C161.617,14.539 161.105,14.074 161.059,13.453 L161.059,13.453 Z M168.408,14.337 C167.757,14.322 167.246,13.795 167.246,13.159 C167.261,12.523 167.772,11.996 168.424,12.011 C169.059,12.011 169.586,12.538 169.571,13.174 C169.571,13.81 169.044,14.337 168.408,14.337 L168.408,14.337 Z" ></path>
        <path id="arrow-minor" d="M113.294,8.115 C113.294,8.115 113.404,7.956 113.487,7.874 C113.679,7.683 113.963,7.726 114.122,7.838 C114.233,7.916 114.29,8.044 114.338,8.189 L116.403,15.038 C116.408,15.053 116.411,15.068 116.414,15.084 C116.463,15.358 116.377,15.546 116.297,15.655 C116.131,15.879 115.881,15.92 115.833,15.926 C113.169,16.043 108.834,16.278 108.834,16.278 C108.583,16.281 108.376,16.291 108.222,16.183 C108.043,16.058 107.986,15.868 107.992,15.732 C107.995,15.656 108.02,15.583 108.064,15.521 L113.294,8.115"  ></path>
        <path id="arrow-major" d="M131.561,26.619 C131.561,26.619 131.687,26.765 131.746,26.866 C131.884,27.099 131.772,27.362 131.625,27.49 C131.523,27.578 131.385,27.602 131.231,27.612 L124.085,27.931 C124.07,27.931 124.054,27.931 124.038,27.93 C123.76,27.909 123.6,27.78 123.514,27.675 C123.337,27.459 123.358,27.207 123.364,27.159 C123.907,24.548 124.745,20.289 124.745,20.289 C124.803,20.044 124.845,19.841 124.987,19.718 C125.153,19.576 125.351,19.567 125.481,19.606 C125.554,19.628 125.619,19.67 125.668,19.728 L131.561,26.619" ></path>
    </g>
</svg>