<?xml version="1.0" encoding="UTF-8" standalone="no"?>
<svg width="248px" height="172px" viewBox="0 0 248 172" version="1.1" xmlns="http://www.w3.org/2000/svg" xmlns:xlink="http://www.w3.org/1999/xlink" xmlns:sketch="http://www.bohemiancoding.com/sketch/ns">
    <!-- Generator: Sketch 3.1.1 (8761) - http://www.bohemiancoding.com/sketch -->
    <title>redux</title>
    <desc>Created with Sketch.</desc>
    <defs></defs>
    <g id="Page-1" stroke="none" stroke-width="1" fill="none" fill-rule="evenodd" sketch:type="MSPage">
        <g id="redux" sketch:type="MSLayerGroup" transform="translate(1.000000, 1.000000)">
            <path d="M166.4,148.3 C164.5,148.3 162.8,146.9 162.5,145 L161.3,137.5 C159.9,137.3 158.5,137.1 157.1,136.8 L155.7,136.5 C154.3,136.1 153,135.7 151.6,135.2 L147.1,141.3 C145.9,142.9 143.3,143.4 141.6,142.2 L127.9,132.2 C127.1,131.6 126.5,130.7 126.3,129.6 C126.1,128.6 126.4,127.5 127,126.7 L131.5,120.6 C130.6,119.5 129.8,118.3 129,117.1 L128.4,116.1 C127.6,114.7 126.9,113.4 126.3,112.1 L118.8,113.3 C116.6,113.6 114.6,112.1 114.3,110 L111.7,93.2 C111.5,92.2 111.8,91.1 112.4,90.3 C113,89.5 113.9,88.9 115,88.7 L122.5,87.5 C122.7,86.1 122.9,84.7 123.2,83.3 L123.5,82.2 C123.9,80.6 124.4,79.2 124.9,77.8 L118.8,73.3 C118,72.7 117.4,71.8 117.2,70.7 C117,69.6 117.3,68.6 117.9,67.8 L127.9,54.1 C129.1,52.5 131.7,52 133.4,53.2 L139.5,57.7 C140.6,56.8 141.8,56 143,55.2 L144.2,54.4 C145.4,53.7 146.7,53 148,52.4 L146.8,44.9 C146.6,43.9 146.9,42.8 147.5,42 C148.1,41.2 149,40.6 150.1,40.4 L166.9,37.8 C169,37.5 171.1,39 171.4,41.1 L172.6,48.6 C174,48.8 175.4,49 176.8,49.3 L177.9,49.6 C179.5,50 180.9,50.4 182.3,50.9 L186.8,44.8 C188,43.2 190.6,42.7 192.3,43.9 L206,53.9 C206.8,54.5 207.4,55.4 207.6,56.5 C207.8,57.5 207.5,58.6 206.9,59.4 L202.4,65.5 C203.3,66.6 204.1,67.8 204.9,69 L205.6,70.1 C206.4,71.4 207.1,72.8 207.7,74.1 L215.2,72.9 C217.4,72.6 219.4,74.1 219.7,76.2 L222.3,93 C222.6,95.1 221.2,97.1 219,97.5 L211.5,98.7 C211.3,100.1 211.1,101.5 210.8,102.9 L210.5,104.1 C210.1,105.6 209.7,107.1 209.2,108.4 L215.3,112.9 C216.1,113.5 216.7,114.4 216.9,115.5 C217.1,116.5 216.8,117.6 216.2,118.4 L206.2,132.1 C205.5,133.1 204.3,133.7 203,133.7 L203,133.7 C202.2,133.7 201.4,133.5 200.7,133 L194.6,128.5 C193.5,129.4 192.3,130.2 191.1,131 L190,131.7 C188.6,132.5 187.3,133.2 186,133.8 L187.2,141.3 C187.4,142.3 187.1,143.4 186.5,144.2 C185.9,145 185,145.6 183.9,145.8 L167.1,148.4 C166.8,148.3 166.6,148.3 166.4,148.3 L166.4,148.3 Z M151,133.3 L151.6,133.5 C153.1,134.1 154.6,134.5 156.1,134.9 L157.5,135.2 C159,135.5 160.6,135.8 162.1,136 L162.7,136.1 L164.1,144.8 C164.3,146.1 165.5,147 166.8,146.8 L183.6,144.2 C184.2,144.1 184.8,143.8 185.2,143.3 C185.6,142.8 185.7,142.2 185.6,141.5 L184.2,132.8 L184.7,132.6 C186.1,131.9 187.6,131.2 189.1,130.3 L190.2,129.7 C191.5,128.9 192.8,127.9 194,127 L194.5,126.6 L201.6,131.8 C202,132.1 202.5,132.2 203,132.2 L203,132.2 C203.8,132.2 204.5,131.8 205,131.3 L215,117.6 C215.4,117.1 215.5,116.5 215.4,115.8 C215.3,115.2 215,114.6 214.5,114.2 L207.4,109 L207.6,108.4 C208.2,106.9 208.7,105.4 209.1,103.7 L209.4,102.5 C209.7,101 210,99.4 210.2,97.9 L210.3,97.3 L219,95.9 C220.3,95.7 221.2,94.5 221,93.2 L218.4,76.4 C218.2,75.1 217,74.2 215.7,74.4 L207,75.8 L206.8,75.3 C206.1,73.8 205.4,72.4 204.5,70.9 L203.9,69.8 C203.1,68.5 202.1,67.2 201.2,66 L200.8,65.5 L206,58.4 C206.4,57.9 206.5,57.3 206.4,56.6 C206.3,55.9 206,55.4 205.5,55 L191.8,45 C190.8,44.3 189.2,44.5 188.5,45.5 L183.3,52.6 L182.7,52.4 C181.2,51.8 179.7,51.3 177.9,50.9 L176.8,50.6 C175.3,50.3 173.7,50 172.2,49.8 L171.6,49.7 L170.2,41 C170,39.7 168.8,38.8 167.5,39 L150.7,41.6 C150.1,41.7 149.5,42 149.1,42.5 C148.7,43 148.6,43.6 148.7,44.3 L150.1,53 L149.6,53.2 C148.2,53.9 146.7,54.6 145.4,55.4 L144.2,56.1 C142.9,56.9 141.6,57.8 140.4,58.8 L139.9,59.2 L132.8,54 C131.8,53.3 130.2,53.5 129.5,54.5 L119.5,68.2 C119.1,68.7 119,69.3 119.1,70 C119.2,70.6 119.5,71.2 120,71.6 L127.1,76.8 L126.9,77.4 C126.3,78.9 125.8,80.5 125.4,82.2 L125.1,83.3 C124.8,84.8 124.5,86.4 124.3,87.9 L124.2,88.5 L115.5,89.9 C114.9,90 114.3,90.3 113.9,90.8 C113.5,91.3 113.4,91.9 113.5,92.6 L116.1,109.4 C116.3,110.7 117.5,111.6 118.8,111.4 L127.5,110 L127.7,110.5 C128.4,112 129.1,113.4 130,114.9 L130.6,115.9 C131.4,117.2 132.4,118.5 133.3,119.7 L133.7,120.2 L128.5,127.3 C128.1,127.8 128,128.4 128.1,129.1 C128.2,129.7 128.5,130.3 129,130.7 L142.7,140.7 C143.7,141.4 145.3,141.2 146,140.2 L151,133.3 L151,133.3 Z M166.9,116.3 C155.5,116.3 145.7,107.8 143.9,96.6 C141.9,83.9 150.6,72 163.3,70 C164.5,69.8 165.7,69.7 166.9,69.7 C178.3,69.7 188.1,78.2 189.9,89.4 C191.9,102.1 183.2,114 170.5,116 C169.3,116.2 168.1,116.3 166.9,116.3 L166.9,116.3 Z M166.9,71.3 C165.8,71.3 164.6,71.4 163.5,71.6 C151.7,73.5 143.5,84.6 145.4,96.4 C147,106.9 156.3,114.8 166.9,114.8 C168,114.8 169.2,114.7 170.3,114.5 C182.1,112.6 190.3,101.5 188.4,89.7 C186.8,79.2 177.5,71.3 166.9,71.3 L166.9,71.3 Z" id="Shape" fill="#00AEEF" sketch:type="MSShapeGroup"></path>
            <path d="M77.2,115.2 L63,115.2 C61.1,115.2 59.6,113.7 59.6,111.8 L59.6,105.6 C58.5,105.3 57.4,104.9 56.3,104.5 L55.2,104 C54.1,103.5 53.1,103 52.1,102.5 L47.7,106.9 C46.5,108.1 44.1,108.1 42.9,106.9 L32.9,96.9 C32.3,96.3 31.9,95.4 31.9,94.5 C31.9,93.6 32.3,92.7 32.9,92.1 L37.3,87.7 C36.7,86.7 36.2,85.6 35.8,84.6 L35.4,83.7 C34.9,82.5 34.5,81.4 34.2,80.2 L28,80.2 C26.1,80.2 24.6,78.7 24.6,76.8 L24.6,62.7 C24.6,60.8 26.1,59.3 28,59.3 L34.2,59.3 C34.5,58.2 34.9,57.1 35.3,56 L35.7,55.1 C36.2,53.9 36.8,52.8 37.3,51.7 L32.9,47.3 C32.3,46.7 31.9,45.8 31.9,44.9 C31.9,44 32.3,43.1 32.9,42.5 L42.9,32.5 C44.1,31.3 46.5,31.3 47.7,32.5 L52.1,36.9 C53.1,36.3 54.2,35.8 55.2,35.4 L56.3,34.9 C57.4,34.5 58.5,34.1 59.6,33.8 L59.6,27.6 C59.6,25.7 61.1,24.2 63,24.2 L77.1,24.2 C79,24.2 80.5,25.7 80.5,27.6 L80.5,33.8 C81.6,34.1 82.7,34.5 83.8,34.9 L84.7,35.3 C85.9,35.8 87,36.4 88.1,36.9 L92.5,32.5 C93.7,31.3 96.1,31.3 97.3,32.5 L107.3,42.5 C107.9,43.1 108.3,44 108.3,44.9 C108.3,45.8 107.9,46.7 107.3,47.3 L102.9,51.7 C103.5,52.7 104,53.8 104.4,54.8 L104.8,55.8 C105.3,57 105.7,58.1 106,59.3 L112.2,59.3 C114.1,59.3 115.6,60.8 115.6,62.7 L115.6,76.8 C115.6,78.7 114.1,80.2 112.2,80.2 L106,80.2 C105.7,81.3 105.3,82.4 104.9,83.5 L104.5,84.5 C104,85.7 103.5,86.8 102.9,87.8 L107.3,92.2 C107.9,92.8 108.3,93.7 108.3,94.6 C108.3,95.5 107.9,96.4 107.3,97 L97.3,107 C96.1,108.2 93.7,108.2 92.5,107 L88.1,102.6 C87.1,103.2 86,103.7 85,104.1 L84,104.5 C82.8,105 81.7,105.4 80.5,105.7 L80.5,111.9 C80.6,113.7 79,115.2 77.2,115.2 L77.2,115.2 Z M51.8,100.5 L52.3,100.8 C53.4,101.4 54.6,102 55.8,102.5 L56.9,103 C58.1,103.5 59.4,103.9 60.6,104.2 L61.2,104.4 L61.2,111.8 C61.2,112.8 62,113.6 63,113.6 L77.1,113.6 C78.1,113.6 78.9,112.8 78.9,111.8 L78.9,104.4 L79.5,104.2 C80.8,103.9 82,103.4 83.4,102.9 L84.4,102.5 C85.6,102 86.8,101.4 87.9,100.8 L88.4,100.5 L93.6,105.7 C94.3,106.4 95.6,106.4 96.2,105.7 L106.2,95.7 C106.5,95.4 106.7,94.9 106.7,94.4 C106.7,93.9 106.5,93.4 106.2,93.1 L101,87.9 L101.3,87.4 C102,86.2 102.6,85 103.1,83.7 L103.5,82.8 C104,81.6 104.4,80.3 104.7,79.1 L104.9,78.5 L112.3,78.5 C113.3,78.5 114.1,77.7 114.1,76.7 L114.1,62.6 C114.1,61.6 113.3,60.8 112.3,60.8 L104.9,60.8 L104.7,60.2 C104.4,58.9 103.9,57.7 103.4,56.3 L103,55.4 C102.5,54.2 101.9,53 101.3,51.9 L101,51.4 L106.2,46.2 C106.5,45.9 106.7,45.4 106.7,44.9 C106.7,44.4 106.5,43.9 106.2,43.6 L96.2,33.6 C95.5,32.9 94.2,32.9 93.6,33.6 L88.4,38.8 L87.9,38.5 C86.8,37.8 85.5,37.2 84.2,36.7 L83.3,36.3 C82.1,35.8 80.9,35.4 79.6,35.1 L79,34.9 L79,27.5 C79,26.5 78.2,25.7 77.2,25.7 L63,25.7 C62,25.7 61.2,26.5 61.2,27.5 L61.2,34.9 L60.6,35.1 C59.3,35.4 58.1,35.9 56.9,36.3 L55.8,36.8 C54.6,37.3 53.4,37.9 52.3,38.5 L51.8,38.8 L46.6,33.6 C45.9,32.9 44.6,32.9 44,33.6 L34,43.6 C33.7,43.9 33.5,44.4 33.5,44.9 C33.5,45.4 33.7,45.9 34,46.2 L39.2,51.4 L38.9,51.9 C38.2,53.1 37.6,54.3 37,55.7 L36.7,56.5 C36.2,57.7 35.8,59 35.5,60.2 L35.3,60.8 L27.9,60.8 C26.9,60.8 26.1,61.6 26.1,62.6 L26.1,76.7 C26.1,77.7 26.9,78.5 27.9,78.5 L35.3,78.5 L35.5,79.1 C35.9,80.4 36.3,81.7 36.8,83 L37.2,83.9 C37.7,85.1 38.3,86.3 38.9,87.4 L39.2,87.9 L34,93.1 C33.7,93.4 33.5,93.9 33.5,94.4 C33.5,94.9 33.7,95.4 34,95.7 L44,105.7 C44.7,106.4 46,106.4 46.6,105.7 L51.8,100.5 L51.8,100.5 Z M70.1,89.1 C59.3,89.1 50.6,80.3 50.6,69.6 C50.6,58.8 59.4,50.1 70.1,50.1 C80.8,50.1 89.6,58.9 89.6,69.6 C89.6,80.4 80.9,89.1 70.1,89.1 L70.1,89.1 Z M70.1,51.7 C60.2,51.7 52.1,59.8 52.1,69.7 C52.1,79.6 60.2,87.7 70.1,87.7 C80,87.7 88.1,79.6 88.1,69.7 C88.1,59.7 80,51.7 70.1,51.7 L70.1,51.7 Z" id="Shape" fill="#00AEEF" sketch:type="MSShapeGroup"></path>
            <path d="M112.3,7.1 C112.3,7.1 112.4,6.9 112.5,6.9 C112.7,6.7 113,6.8 113.1,6.9 C113.2,7 113.3,7.1 113.3,7.3 L115.4,14.1 L115.4,14.1 C115.4,14.4 115.4,14.6 115.3,14.7 C115.1,14.9 114.9,15 114.8,15 C112.1,15.1 107.8,15.4 107.8,15.4 C107.5,15.4 107.3,15.4 107.2,15.3 L107.2,15.3 C107,15.2 107,15 107,14.8 C107,14.7 107,14.7 107.1,14.6 L112.3,7.1 L112.3,7.1 Z" id="Shape" fill="#00AEEF" sketch:type="MSShapeGroup"></path>
            <path d="M130.6,25.6 C130.6,25.6 130.7,25.7 130.8,25.8 C130.9,26 130.8,26.3 130.7,26.4 C130.6,26.5 130.5,26.5 130.3,26.5 L123.2,26.8 L123.2,26.8 C122.9,26.8 122.8,26.7 122.7,26.5 C122.5,26.3 122.5,26 122.6,26 C123.1,23.4 124,19.1 124,19.1 C124.1,18.9 124.1,18.7 124.2,18.5 L124.2,18.5 C124.4,18.4 124.6,18.3 124.7,18.4 C124.8,18.4 124.8,18.5 124.9,18.5 L130.6,25.6 L130.6,25.6 Z" id="Shape" fill="#00AEEF" sketch:type="MSShapeGroup"></path>
            <path d="M95.4,135.9 L87.3,138.1 L79.5,139.3 L71.9,139.7 L63.9,139.3 L56.2,138 L48.3,135.9 L41,132.9 L34.1,129.2 L27.6,124.7 L21.6,119.5 L16.1,113.6 L11.5,107.4 L7.5,100.3 L4.3,93 L2.1,85.4 L0.8,77.7 L0.3,69.6 L0.8,61.4 L2,54.1 L4.4,46.2 L7.5,39 L11.4,32.1 L16,25.8 L21.4,19.9 L27.4,14.7 L34,10.1 L41,6.3 L48.4,3.4 L55.9,1.3 L63.6,0 L71.9,-0.5 L79.8,-0.1 L87.4,1.2 L95,3.2 L102.4,6.2 L110,10.3" id="Shape" stroke="#000000" sketch:type="MSShapeGroup"></path>
            <path d="M102.8,137.1 L106.8,141.9 L110.9,146.6 L115.7,150.8 L120.2,154.6 L125.5,158.2 L130.9,161.2 L136.5,163.9 L142.2,166.1 L148.4,167.8 L154.4,168.9 L160.4,169.5 L166.9,170 L172.9,170 L178.9,168.9 L185.2,167.8 L191,166.1 L197.1,163.8 L202.4,161.4 L208,158.1 L213.1,154.8 L218.1,150.9 L222.2,146.8 L227,142.2 L231,137.1 L234.1,132.1 L237.1,126.8 L239.8,121 L242,115.2 L243.6,109.4 L244.9,103.1 L245.6,97.2 L245.6,91 L245.6,85.4 L244.9,79.1 L243.6,73.1 L242,67.1 L239.8,61.2 L237.4,55.9 L234.5,50.1 L230.9,45 L227.1,40 L223,35.2 L218.4,31.2 L213.4,27.5 L208.2,24 L203,20.9 L197.6,18.6 L191.6,16.2 L185.5,14.5 L179.4,13.2 L173.4,12.4 L167.5,12.4 L161.1,12.4 L154.8,13 L148.9,14.2 L142.6,15.9 L137,18 L127.679688,22.2207035" id="Shape" stroke="#000000" sketch:type="MSShapeGroup"></path>
        </g>
    </g>
</svg>