<?xml version="1.0" encoding="UTF-8" standalone="no"?>
<svg id="rocket-svg" width="450px" height="240px" viewBox="0 0 450 240" version="1.1" xmlns="http://www.w3.org/2000/svg" xmlns:xlink="http://www.w3.org/1999/xlink">
    <g id="rocket-rocket"  fill="#FFFFFF">
        <path id="rocket-viewport" d="M183.049,66.28 C173.331,71.933 170.024,84.438 175.677,94.156 C181.33,103.875 193.835,107.182 203.553,101.529 C213.271,95.876 216.578,83.37 210.925,73.652 C205.272,63.934 192.766,60.627 183.049,66.28 L183.049,66.28 Z M199.277,94.178 C193.613,97.473 186.323,95.546 183.027,89.88 C179.732,84.216 181.66,76.926 187.325,73.63 C192.989,70.335 200.279,72.263 203.575,77.928 C206.87,83.593 204.942,90.883 199.277,94.178 L199.277,94.178 Z" ></path>
        <path id="rocket-body" d="M262.681,74.111 L236.24,70.159 C227.836,58.783 218.236,48.747 208.475,41.135 C194.23,30.026 180.467,24.666 169.705,26.035 L167.521,22.28 C166.981,21.352 165.786,21.036 164.857,21.576 L163.546,22.338 L154.459,17.132 L154.493,27.605 L153.181,28.368 C152.253,28.908 151.937,30.103 152.477,31.031 L154.661,34.786 C148.151,43.464 146.007,58.078 148.622,75.952 C150.469,88.58 154.636,102.299 160.671,115.632 L153.128,144.196 C152.885,145.113 153.076,146.526 153.553,147.346 L171.522,178.237 C171.957,178.984 172.571,179.075 172.985,178.834 C173.229,178.692 173.431,178.43 173.568,178.075 L183.42,152.573 C188.086,158.289 192.995,163.464 198.012,167.956 L198.223,168.144 L204.579,164.447 C204.682,164.582 204.808,164.701 204.954,164.803 L214.487,171.418 C215.306,171.985 216.673,172.039 217.533,171.539 L257.501,148.289 C258.362,147.788 258.99,146.573 258.901,145.581 L257.864,134.025 C257.848,133.847 257.806,133.679 257.74,133.522 L264.096,129.826 L264.035,129.549 C262.348,121.746 259.78,113.683 256.402,105.577 L284.908,113.125 C285.327,113.237 285.669,113.218 285.926,113.069 C286.17,112.927 286.306,112.686 286.31,112.389 C286.314,112.152 286.232,111.888 286.067,111.604 L265.285,75.879 C264.793,75.033 263.649,74.257 262.681,74.111 L262.681,74.111 Z M155.242,18.479 L162.768,22.791 L155.27,27.152 L155.242,18.479 L155.242,18.479 Z M153.15,30.639 C152.826,30.082 153.016,29.365 153.573,29.041 L165.249,22.249 C165.806,21.925 166.523,22.115 166.847,22.672 L168.966,26.314 L155.27,34.282 L153.15,30.639 L153.15,30.639 Z M172.841,177.793 C172.77,177.977 172.68,178.11 172.594,178.16 C172.468,178.234 172.284,177.996 172.196,177.845 L154.227,146.954 C153.846,146.299 153.687,145.127 153.881,144.396 L161.181,116.751 C163.501,121.782 166.051,126.692 168.761,131.352 C172.989,138.619 177.73,145.524 182.854,151.878 L172.841,177.793 L172.841,177.793 Z M257.091,134.051 L258.125,145.651 C258.188,146.358 257.723,147.258 257.109,147.615 L217.141,170.865 C216.527,171.222 215.515,171.182 214.931,170.777 L205.399,164.162 C205.348,164.127 205.302,164.09 205.261,164.05 L257.137,133.874 L257.091,134.051 L257.091,134.051 Z M255.169,104.661 L255.292,104.946 C255.339,105.053 255.385,105.16 255.43,105.267 C258.871,113.429 261.49,121.56 263.214,129.437 L198.32,167.186 C193.288,162.659 188.368,157.442 183.696,151.678 L183.319,151.215 C178.277,144.945 173.606,138.13 169.435,130.96 C166.573,126.039 163.895,120.845 161.477,115.521 L161.354,115.253 C161.281,115.094 161.208,114.934 161.137,114.774 C155.266,101.686 151.205,88.223 149.393,75.839 C146.792,58.065 148.923,43.603 155.394,35.111 L169.626,26.833 C180.205,25.406 193.831,30.702 207.995,41.749 C217.591,49.233 227.045,59.087 235.337,70.248 C235.425,70.366 235.512,70.485 235.599,70.604 L235.771,70.838 C239.463,75.853 242.906,81.096 246.003,86.42 C249.446,92.339 252.53,98.476 255.169,104.661 L255.169,104.661 Z M285.394,111.996 C285.524,112.22 285.532,112.344 285.535,112.395 C285.534,112.396 285.424,112.456 285.107,112.372 L256.021,104.67 C253.345,98.359 250.201,92.087 246.677,86.028 C243.714,80.936 240.42,75.896 236.882,71.043 L262.566,74.883 C263.301,74.992 264.238,75.628 264.612,76.27 L285.394,111.996 L285.394,111.996 Z" ></path>
        <g id="rocket-flames">
            <path id="rocket-flame-1" d="M230.348,171.067 L230.36,171.36 C230.811,182.293 235.692,191.448 245.72,200.17 L245.874,200.305 L245.93,200.108 C246.084,199.566 246.1,199.076 246.095,198.669 C246.044,194.203 244.772,189.769 242.208,185.114 C239.371,179.963 235.565,175.429 230.573,171.255 L230.348,171.067"  ></path>
            <path id="rocket-flame-2" d="M239.888,162.48 L239.9,162.773 C240.249,171.252 242.436,178.942 246.586,186.283 C250.27,192.799 255.438,198.905 262.386,204.948 L262.54,205.083 L262.596,204.886 C262.82,204.1 262.843,203.387 262.836,202.794 C262.76,196.259 260.9,189.772 257.148,182.959 C252.994,175.418 247.422,168.781 240.114,162.669 L239.888,162.48" ></path>
            <path id="rocket-flame-3" d="M251.019,157.527 L251.031,157.82 C251.481,168.754 256.362,177.908 266.39,186.631 L266.544,186.765 L266.6,186.568 C266.754,186.025 266.77,185.536 266.765,185.129 C266.714,180.662 265.442,176.228 262.879,171.574 C260.041,166.422 256.235,161.889 251.244,157.716 L251.019,157.527" ></path>
        </g>
    </g>
    <g id="rocket-clouds">
        <path id="rocket-cloud-1" fill="#ffffff" d="M47.858,173.986 C35.757,173.986 25.272,165.035 23.367,153.125 C10.182,152.431 -0.11,141.6 -0.11,128.359 C-0.11,114.681 11.018,103.554 24.695,103.554 C29.351,103.554 33.884,104.855 37.823,107.317 C41.303,103.273 46.336,100.959 51.673,100.959 C57.377,100.959 62.806,103.667 66.251,108.218 C68.621,107.014 71.274,106.379 73.941,106.379 C74.242,106.379 74.555,106.389 74.915,106.411 C79.882,95.814 90.614,88.978 102.316,88.978 C118.996,88.978 132.567,102.549 132.567,119.229 C132.567,135.91 118.996,149.481 102.316,149.481 C102.044,149.481 101.774,149.473 101.505,149.464 C101.34,159.423 93.209,167.452 83.237,167.452 C77.975,167.452 73.003,165.199 69.528,161.255 C65.14,169.12 56.877,173.986 47.858,173.986 L47.858,173.986 Z M24.695,104.153 C11.348,104.153 0.489,115.012 0.489,128.359 C0.489,141.36 10.658,151.981 23.638,152.539 L23.885,152.55 L23.921,152.794 C25.678,164.534 35.969,173.387 47.858,173.387 C56.801,173.387 64.982,168.484 69.209,160.59 L69.418,160.2 L69.702,160.539 C73.073,164.552 78.007,166.853 83.237,166.853 C92.982,166.853 100.909,158.926 100.909,149.181 L100.909,148.871 L101.219,148.854 L101.303,148.857 C101.64,148.869 101.976,148.882 102.316,148.882 C118.666,148.882 131.968,135.579 131.968,119.229 C131.968,102.879 118.666,89.577 102.316,89.577 C90.778,89.577 80.202,96.357 75.372,106.848 L75.286,107.036 L75.08,107.022 C74.704,106.996 74.324,106.978 73.941,106.978 C71.285,106.978 68.644,107.631 66.302,108.866 L66.074,108.986 L65.921,108.778 C62.599,104.257 57.272,101.558 51.673,101.558 C46.426,101.558 41.484,103.87 38.112,107.901 L37.943,108.104 L37.721,107.962 C33.828,105.47 29.324,104.153 24.695,104.153 L24.695,104.153 Z"></path>
        <path id="rocket-cloud-2" fill="#ffffff" d="M346.85,85.285 C339.625,85.285 332.788,82.147 328.064,76.67 C326.057,77.183 323.987,77.443 321.909,77.443 C308.231,77.443 297.103,66.316 297.103,52.638 C297.103,38.96 308.231,27.833 321.909,27.833 C325.575,27.833 329.102,28.615 332.398,30.157 C332.597,20.254 340.715,12.258 350.665,12.258 C356.369,12.258 361.798,14.967 365.242,19.517 C367.614,18.313 370.266,17.678 372.933,17.678 C373.229,17.678 373.543,17.688 373.907,17.71 C378.874,7.113 389.606,0.277 401.308,0.277 C414.612,0.277 426.177,8.765 430.163,21.426 C430.567,21.4 430.921,21.388 431.26,21.388 C441.334,21.388 449.531,29.584 449.531,39.658 C449.531,49.733 441.334,57.929 431.26,57.929 L431.244,57.929 C431.451,58.767 431.56,59.624 431.56,60.48 C431.56,66.151 426.946,70.763 421.276,70.763 C418.122,70.763 415.116,69.285 413.172,66.793 C411.721,67.975 409.912,68.622 408.043,68.622 C404.451,68.622 401.395,66.283 400.317,63.05 C399.055,71.923 391.425,78.751 382.23,78.751 C376.966,78.751 371.995,76.498 368.52,72.554 C364.132,80.419 355.869,85.285 346.85,85.285 L346.85,85.285 Z M328.276,75.996 L328.398,76.139 C333.012,81.571 339.738,84.686 346.85,84.686 C355.794,84.686 363.974,79.783 368.201,71.889 L368.41,71.499 L368.694,71.838 C372.065,75.85 376.998,78.152 382.23,78.152 C391.974,78.152 399.901,70.225 399.901,60.48 L399.901,60.181 L400.5,60.153 L400.501,60.452 C400.5,64.639 403.884,68.023 408.043,68.023 C409.873,68.023 411.641,67.352 413.022,66.135 L413.268,65.918 L413.461,66.183 C415.284,68.676 418.206,70.164 421.276,70.164 C426.616,70.164 430.961,65.82 430.961,60.48 C430.961,59.547 430.823,58.612 430.552,57.705 L430.434,57.309 L430.989,57.324 C431.079,57.327 431.169,57.33 431.26,57.33 C441.004,57.33 448.932,49.403 448.932,39.658 C448.932,29.914 441.004,21.987 431.26,21.987 C430.871,21.987 430.461,22.003 429.969,22.039 L429.731,22.056 L429.661,21.828 C425.819,9.296 414.425,0.876 401.308,0.876 C389.77,0.876 379.194,7.655 374.365,18.147 L374.278,18.335 L374.072,18.321 C373.696,18.295 373.317,18.277 372.933,18.277 C370.278,18.277 367.636,18.93 365.294,20.165 L365.066,20.285 L364.913,20.077 C361.591,15.556 356.264,12.857 350.665,12.857 C340.921,12.857 332.994,20.784 332.994,30.528 L332.996,31.113 L332.564,30.902 C329.227,29.262 325.643,28.432 321.909,28.432 C308.561,28.432 297.703,39.29 297.703,52.638 C297.703,65.985 308.561,76.844 321.909,76.844 C323.999,76.844 326.079,76.575 328.093,76.043 L328.276,75.996 L328.276,75.996 Z" ></path>
        <path id="rocket-cloud-4" fill="#ffffff" d="M421.333,228.969 C421.285,228.969 421.237,228.958 421.192,228.934 C421.046,228.856 420.991,228.674 421.07,228.528 C423.359,224.255 424.569,219.42 424.569,214.547 C424.569,198.197 411.267,184.895 394.917,184.895 C383.38,184.895 372.804,191.674 367.974,202.166 L367.888,202.354 L367.682,202.34 C367.305,202.314 366.925,202.296 366.542,202.296 C363.886,202.296 361.245,202.949 358.903,204.184 L358.675,204.305 L358.522,204.096 C355.2,199.575 349.874,196.876 344.275,196.876 C339.028,196.876 334.085,199.188 330.714,203.219 L330.545,203.422 L330.323,203.28 C326.429,200.788 321.925,199.471 317.297,199.471 C305.633,199.471 295.627,207.786 293.503,219.241 L293.44,219.582 L293.112,219.47 C292.087,219.119 291.032,218.94 289.977,218.94 C285.414,218.94 281.427,222.179 280.497,226.64 L280.43,226.964 L280.114,226.864 C279.382,226.634 278.621,226.518 277.851,226.518 C275.768,226.518 273.825,227.355 272.383,228.876 C272.269,228.996 272.079,229 271.96,228.887 C271.839,228.773 271.834,228.584 271.948,228.464 C273.505,226.823 275.601,225.919 277.851,225.919 C278.573,225.919 279.288,226.014 279.982,226.202 C281.087,221.627 285.239,218.341 289.977,218.341 C290.986,218.341 291.995,218.494 292.979,218.797 C295.286,207.231 305.458,198.872 317.297,198.872 C321.953,198.872 326.485,200.173 330.425,202.635 C333.905,198.591 338.937,196.277 344.275,196.277 C349.979,196.277 355.408,198.986 358.852,203.536 C361.222,202.332 363.875,201.697 366.542,201.697 C366.843,201.697 367.156,201.707 367.517,201.729 C372.484,191.132 383.216,184.296 394.917,184.296 C411.598,184.296 425.169,197.867 425.169,214.547 C425.169,219.519 423.934,224.451 421.597,228.811 C421.543,228.912 421.44,228.969 421.333,228.969" ></path>
        <path id="rocket-cloud-3" fill="#ffffff" d="M238.71,237.793 C238.594,237.793 238.485,237.726 238.435,237.614 C234.568,228.824 225.869,223.144 216.274,223.144 C212.538,223.144 208.953,223.974 205.617,225.614 L205.186,225.826 L205.187,225.28 C205.189,215.496 197.261,207.568 187.517,207.568 C181.917,207.568 176.591,210.267 173.269,214.789 L173.116,214.997 L172.888,214.877 C170.547,213.642 167.905,212.989 165.249,212.989 C164.866,212.989 164.486,213.007 164.109,213.033 L163.903,213.047 L163.817,212.859 C158.988,202.367 148.412,195.587 136.874,195.587 C123.756,195.587 112.362,204.007 108.521,216.54 L108.451,216.768 L108.214,216.751 C107.718,216.715 107.308,216.699 106.922,216.699 C97.178,216.699 89.25,224.626 89.25,234.371 C89.25,235.383 89.342,236.416 89.522,237.441 C89.551,237.604 89.442,237.759 89.279,237.788 C89.116,237.819 88.96,237.708 88.932,237.545 C88.745,236.486 88.651,235.418 88.651,234.371 C88.651,224.296 96.848,216.1 106.922,216.1 C107.259,216.1 107.612,216.112 108.019,216.137 C112.005,203.477 123.571,194.988 136.874,194.988 C148.576,194.988 159.308,201.825 164.274,212.422 C164.635,212.4 164.948,212.39 165.249,212.39 C167.916,212.39 170.57,213.025 172.939,214.229 C176.383,209.678 181.812,206.969 187.517,206.969 C197.468,206.969 205.586,214.965 205.784,224.869 C209.079,223.326 212.606,222.545 216.274,222.545 C226.107,222.545 235.021,228.365 238.984,237.373 C239.05,237.524 238.981,237.701 238.83,237.768 C238.791,237.785 238.75,237.793 238.71,237.793" ></path>
    </g>
</svg>