<?xml version="1.0" encoding="utf-8"?>
<!-- Generator: Adobe Illustrator 18.1.1, SVG Export Plug-In . SVG Version: 6.00 Build 0)  -->
<svg version="1.1" id="Layer_1" xmlns="http://www.w3.org/2000/svg" xmlns:xlink="http://www.w3.org/1999/xlink" x="0px" y="0px"
	 viewBox="0 0 612 792" enable-background="new 0 0 612 792" xml:space="preserve">
<g>
	<g>
		<path fill="#00AEEF" d="M383.4,298.3c-1.9,0-3.6-1.4-3.9-3.3l-1.2-7.5c-1.4-0.2-2.8-0.4-4.2-0.7l-1.4-0.3
			c-1.4-0.4-2.7-0.8-4.1-1.3l-4.5,6.1c-1.2,1.6-3.8,2.1-5.5,0.9l-13.7-10c-0.8-0.6-1.4-1.5-1.6-2.6c-0.2-1,0.1-2.1,0.7-2.9l4.5-6.1
			c-0.9-1.1-1.7-2.3-2.5-3.5l-0.6-1c-0.8-1.4-1.5-2.7-2.1-4l-7.5,1.2c-2.2,0.3-4.2-1.2-4.5-3.3l-2.6-16.8c-0.2-1,0.1-2.1,0.7-2.9
			c0.6-0.8,1.5-1.4,2.6-1.6l7.5-1.2c0.2-1.4,0.4-2.8,0.7-4.2l0.3-1.1c0.4-1.6,0.9-3,1.4-4.4l-6.1-4.5c-0.8-0.6-1.4-1.5-1.6-2.6
			s0.1-2.1,0.7-2.9l10-13.7c1.2-1.6,3.8-2.1,5.5-0.9l6.1,4.5c1.1-0.9,2.3-1.7,3.5-2.5l1.2-0.8c1.2-0.7,2.5-1.4,3.8-2l-1.2-7.5
			c-0.2-1,0.1-2.1,0.7-2.9c0.6-0.8,1.5-1.4,2.6-1.6l16.8-2.6c2.1-0.3,4.2,1.2,4.5,3.3l1.2,7.5c1.4,0.2,2.8,0.4,4.2,0.7l1.1,0.3
			c1.6,0.4,3,0.8,4.4,1.3l4.5-6.1c1.2-1.6,3.8-2.1,5.5-0.9l13.7,10c0.8,0.6,1.4,1.5,1.6,2.6c0.2,1-0.1,2.1-0.7,2.9l-4.5,6.1
			c0.9,1.1,1.7,2.3,2.5,3.5l0.7,1.1c0.8,1.3,1.5,2.7,2.1,4l7.5-1.2c2.2-0.3,4.2,1.2,4.5,3.3l2.6,16.8c0.3,2.1-1.1,4.1-3.3,4.5
			l-7.5,1.2c-0.2,1.4-0.4,2.8-0.7,4.2l-0.3,1.2c-0.4,1.5-0.8,3-1.3,4.3l6.1,4.5c0.8,0.6,1.4,1.5,1.6,2.6c0.2,1-0.1,2.1-0.7,2.9
			l-10,13.7c-0.7,1-1.9,1.6-3.2,1.6l0,0c-0.8,0-1.6-0.2-2.3-0.7l-6.1-4.5c-1.1,0.9-2.3,1.7-3.5,2.5l-1.1,0.7c-1.4,0.8-2.7,1.5-4,2.1
			l1.2,7.5c0.2,1-0.1,2.1-0.7,2.9c-0.6,0.8-1.5,1.4-2.6,1.6l-16.8,2.6C383.8,298.3,383.6,298.3,383.4,298.3z M368,283.3l0.6,0.2
			c1.5,0.6,3,1,4.5,1.4l1.4,0.3c1.5,0.3,3.1,0.6,4.6,0.8l0.6,0.1l1.4,8.7c0.2,1.3,1.4,2.2,2.7,2l16.8-2.6c0.6-0.1,1.2-0.4,1.6-0.9
			c0.4-0.5,0.5-1.1,0.4-1.8l-1.4-8.7l0.5-0.2c1.4-0.7,2.9-1.4,4.4-2.3l1.1-0.6c1.3-0.8,2.6-1.8,3.8-2.7l0.5-0.4l7.1,5.2
			c0.4,0.3,0.9,0.4,1.4,0.4l0,0c0.8,0,1.5-0.4,2-0.9l10-13.7c0.4-0.5,0.5-1.1,0.4-1.8c-0.1-0.6-0.4-1.2-0.9-1.6l-7.1-5.2l0.2-0.6
			c0.6-1.5,1.1-3,1.5-4.7l0.3-1.2c0.3-1.5,0.6-3.1,0.8-4.6l0.1-0.6l8.7-1.4c1.3-0.2,2.2-1.4,2-2.7l-2.6-16.8c-0.2-1.3-1.4-2.2-2.7-2
			l-8.7,1.4l-0.2-0.5c-0.7-1.5-1.4-2.9-2.3-4.4l-0.6-1.1c-0.8-1.3-1.8-2.6-2.7-3.8l-0.4-0.5l5.2-7.1c0.4-0.5,0.5-1.1,0.4-1.8
			s-0.4-1.2-0.9-1.6l-13.7-10c-1-0.7-2.6-0.5-3.3,0.5l-5.2,7.1l-0.6-0.2c-1.5-0.6-3-1.1-4.8-1.5l-1.1-0.3c-1.5-0.3-3.1-0.6-4.6-0.8
			l-0.6-0.1l-1.4-8.7c-0.2-1.3-1.4-2.2-2.7-2l-16.8,2.6c-0.6,0.1-1.2,0.4-1.6,0.9c-0.4,0.5-0.5,1.1-0.4,1.8l1.4,8.7l-0.5,0.2
			c-1.4,0.7-2.9,1.4-4.2,2.2l-1.2,0.7c-1.3,0.8-2.6,1.7-3.8,2.7l-0.5,0.4l-7.1-5.2c-1-0.7-2.6-0.5-3.3,0.5l-10,13.7
			c-0.4,0.5-0.5,1.1-0.4,1.8c0.1,0.6,0.4,1.2,0.9,1.6l7.1,5.2l-0.2,0.6c-0.6,1.5-1.1,3.1-1.5,4.8l-0.3,1.1c-0.3,1.5-0.6,3.1-0.8,4.6
			l-0.1,0.6l-8.7,1.4c-0.6,0.1-1.2,0.4-1.6,0.9c-0.4,0.5-0.5,1.1-0.4,1.8l2.6,16.8c0.2,1.3,1.4,2.2,2.7,2l8.7-1.4l0.2,0.5
			c0.7,1.5,1.4,2.9,2.3,4.4l0.6,1c0.8,1.3,1.8,2.6,2.7,3.8l0.4,0.5l-5.2,7.1c-0.4,0.5-0.5,1.1-0.4,1.8c0.1,0.6,0.4,1.2,0.9,1.6
			l13.7,10c1,0.7,2.6,0.5,3.3-0.5L368,283.3z M383.9,266.3c-11.4,0-21.2-8.5-23-19.7c-2-12.7,6.7-24.6,19.4-26.6
			c1.2-0.2,2.4-0.3,3.6-0.3c11.4,0,21.2,8.5,23,19.7c2,12.7-6.7,24.6-19.4,26.6C386.3,266.2,385.1,266.3,383.9,266.3z M383.9,221.3
			c-1.1,0-2.3,0.1-3.4,0.3c-11.8,1.9-20,13-18.1,24.8c1.6,10.5,10.9,18.4,21.5,18.4c1.1,0,2.3-0.1,3.4-0.3c11.8-1.9,20-13,18.1-24.8
			C403.8,229.2,394.5,221.3,383.9,221.3z"/>
	</g>
</g>
<g>
	<g>
		<path fill="#00AEEF" d="M294.2,265.2H280c-1.9,0-3.4-1.5-3.4-3.4v-6.2c-1.1-0.3-2.2-0.7-3.3-1.1l-1.1-0.5c-1.1-0.5-2.1-1-3.1-1.5
			l-4.4,4.4c-1.2,1.2-3.6,1.2-4.8,0l-10-10c-0.6-0.6-1-1.5-1-2.4s0.4-1.8,1-2.4l4.4-4.4c-0.6-1-1.1-2.1-1.5-3.1l-0.4-0.9
			c-0.5-1.2-0.9-2.3-1.2-3.5h-6.2c-1.9,0-3.4-1.5-3.4-3.4v-14.1c0-1.9,1.5-3.4,3.4-3.4h6.2c0.3-1.1,0.7-2.2,1.1-3.3l0.4-0.9
			c0.5-1.2,1.1-2.3,1.6-3.4l-4.4-4.4c-0.6-0.6-1-1.5-1-2.4c0-0.9,0.4-1.8,1-2.4l10-10c1.2-1.2,3.6-1.2,4.8,0l4.4,4.4
			c1-0.6,2.1-1.1,3.1-1.5l1.1-0.5c1.1-0.4,2.2-0.8,3.3-1.1v-6.2c0-1.9,1.5-3.4,3.4-3.4h14.1c1.9,0,3.4,1.5,3.4,3.4v6.2
			c1.1,0.3,2.2,0.7,3.3,1.1l0.9,0.4c1.2,0.5,2.3,1.1,3.4,1.6l4.4-4.4c1.2-1.2,3.6-1.2,4.8,0l10,10c0.6,0.6,1,1.5,1,2.4
			c0,0.9-0.4,1.8-1,2.4l-4.4,4.4c0.6,1,1.1,2.1,1.5,3.1l0.4,1c0.5,1.2,0.9,2.3,1.2,3.5h6.2c1.9,0,3.4,1.5,3.4,3.4v14.1
			c0,1.9-1.5,3.4-3.4,3.4H323c-0.3,1.1-0.7,2.2-1.1,3.3l-0.4,1c-0.5,1.2-1,2.3-1.6,3.3l4.4,4.4c0.6,0.6,1,1.5,1,2.4s-0.4,1.8-1,2.4
			l-10,10c-1.2,1.2-3.6,1.2-4.8,0l-4.4-4.4c-1,0.6-2.1,1.1-3.1,1.5l-1,0.4c-1.2,0.5-2.3,0.9-3.5,1.2v6.2
			C297.6,263.7,296,265.2,294.2,265.2z M268.8,250.5l0.5,0.3c1.1,0.6,2.3,1.2,3.5,1.7l1.1,0.5c1.2,0.5,2.5,0.9,3.7,1.2l0.6,0.2v7.4
			c0,1,0.8,1.8,1.8,1.8h14.1c1,0,1.8-0.8,1.8-1.8v-7.4l0.6-0.2c1.3-0.3,2.5-0.8,3.9-1.3l1-0.4c1.2-0.5,2.4-1.1,3.5-1.7l0.5-0.3
			l5.2,5.2c0.7,0.7,2,0.7,2.6,0l10-10c0.3-0.3,0.5-0.8,0.5-1.3c0-0.5-0.2-1-0.5-1.3l-5.2-5.2l0.3-0.5c0.7-1.2,1.3-2.4,1.8-3.7
			l0.4-0.9c0.5-1.2,0.9-2.5,1.2-3.7l0.2-0.6h7.4c1,0,1.8-0.8,1.8-1.8v-14.1c0-1-0.8-1.8-1.8-1.8h-7.4l-0.2-0.6
			c-0.3-1.3-0.8-2.5-1.3-3.9l-0.4-0.9c-0.5-1.2-1.1-2.4-1.7-3.5l-0.3-0.5l5.2-5.2c0.3-0.3,0.5-0.8,0.5-1.3c0-0.5-0.2-1-0.5-1.3
			l-10-10c-0.7-0.7-2-0.7-2.6,0l-5.2,5.2l-0.5-0.3c-1.1-0.7-2.4-1.3-3.7-1.8l-0.9-0.4c-1.2-0.5-2.4-0.9-3.7-1.2l-0.6-0.2v-7.4
			c0-1-0.8-1.8-1.8-1.8H280c-1,0-1.8,0.8-1.8,1.8v7.4l-0.6,0.2c-1.3,0.3-2.5,0.8-3.7,1.2l-1.1,0.5c-1.2,0.5-2.4,1.1-3.5,1.7
			l-0.5,0.3l-5.2-5.2c-0.7-0.7-2-0.7-2.6,0l-10,10c-0.3,0.3-0.5,0.8-0.5,1.3c0,0.5,0.2,1,0.5,1.3l5.2,5.2l-0.3,0.5
			c-0.7,1.2-1.3,2.4-1.9,3.8l-0.3,0.8c-0.5,1.2-0.9,2.5-1.2,3.7l-0.2,0.6h-7.4c-1,0-1.8,0.8-1.8,1.8v14.1c0,1,0.8,1.8,1.8,1.8h7.4
			l0.2,0.6c0.4,1.3,0.8,2.6,1.3,3.9l0.4,0.9c0.5,1.2,1.1,2.4,1.7,3.5l0.3,0.5l-5.2,5.2c-0.3,0.3-0.5,0.8-0.5,1.3
			c0,0.5,0.2,1,0.5,1.3l10,10c0.7,0.7,2,0.7,2.6,0L268.8,250.5z M287.1,239.1c-10.8,0-19.5-8.8-19.5-19.5c0-10.8,8.8-19.5,19.5-19.5
			s19.5,8.8,19.5,19.5C306.6,230.4,297.9,239.1,287.1,239.1z M287.1,201.7c-9.9,0-18,8.1-18,18c0,9.9,8.1,18,18,18s18-8.1,18-18
			C305.1,209.7,297,201.7,287.1,201.7z"/>
	</g>
</g>
<g>
	<g>
		<path fill="#00AEEF" d="M383.8,321L383.8,321L383.8,321c-0.6,0-1.2-0.5-1.2-1.2l0,0c0-0.6,0.5-1.2,1.2-1.2l0,0
			c0.7,0,1.2,0.5,1.2,1.2l0,0C384.9,320.5,384.4,321,383.8,321L383.8,321L383.8,321z M388.8,319.7c0-0.6,0.4-1.2,1.1-1.2l0,0
			c0.6-0.1,1.2,0.4,1.3,1.1l0,0c0,0.6-0.4,1.2-1.1,1.2l0,0c0,0,0,0-0.1,0l0,0C389.4,320.8,388.8,320.3,388.8,319.7z M377.5,320.7
			L377.5,320.7L377.5,320.7c-0.6-0.1-1.1-0.6-1.1-1.3l0,0c0-0.6,0.6-1.1,1.3-1.1l0,0c0.6,0,1.1,0.6,1.1,1.3l0,0
			C378.7,320.3,378.2,320.7,377.5,320.7L377.5,320.7C377.5,320.7,377.5,320.7,377.5,320.7z M395,319.1c-0.1-0.6,0.3-1.2,1-1.3l0,0
			c0.6-0.1,1.2,0.3,1.3,1l0,0c0.1,0.6-0.3,1.2-1,1.3l0,0c-0.1,0-0.1,0-0.2,0l0,0C395.5,320.1,395.1,319.6,395,319.1z M371.2,320
			L371.2,320L371.2,320c-0.6-0.1-1.1-0.7-1-1.3l0,0c0.1-0.6,0.7-1.1,1.3-1l0,0c0.6,0.1,1.1,0.7,1,1.3l0,0c-0.1,0.6-0.6,1-1.1,1l0,0
			C371.4,320,371.3,320,371.2,320z M401.1,318c-0.1-0.6,0.2-1.3,0.9-1.4l0,0c0.6-0.2,1.2,0.2,1.4,0.9l0,0c0.2,0.6-0.2,1.2-0.9,1.4
			l0,0c-0.1,0-0.2,0-0.3,0l0,0C401.7,318.9,401.2,318.5,401.1,318z M365.1,318.8L365.1,318.8L365.1,318.8c-0.6-0.2-1-0.8-0.9-1.4
			l0,0c0.2-0.6,0.8-1,1.4-0.9l0,0c0.6,0.2,1,0.8,0.9,1.4l0,0c-0.1,0.5-0.6,0.9-1.1,0.9l0,0C365.2,318.8,365.2,318.8,365.1,318.8z
			 M407.1,316.4c-0.2-0.6,0.1-1.3,0.7-1.5l0,0c0.6-0.2,1.3,0.1,1.5,0.7l0,0c0.2,0.6-0.1,1.3-0.7,1.5l0,0c-0.1,0-0.2,0-0.4,0l0,0
			C407.7,317.2,407.2,316.9,407.1,316.4z M359,317L359,317L359,317c-0.6-0.2-0.9-0.9-0.7-1.5l0,0c0.2-0.6,0.9-0.9,1.5-0.7l0,0
			c0.6,0.2,0.9,0.9,0.7,1.5l0,0c-0.2,0.5-0.6,0.8-1.1,0.8l0,0C359.3,317.1,359.1,317.1,359,317z M412.9,314.3
			c-0.2-0.6,0-1.3,0.6-1.5l0,0c0.6-0.2,1.3,0,1.5,0.6l0,0c0.2,0.6,0,1.3-0.6,1.5l0,0c-0.1,0.1-0.3,0.1-0.4,0.1l0,0
			C413.5,315.1,413.1,314.8,412.9,314.3z M353.1,314.9c-0.6-0.3-0.9-0.9-0.6-1.5l0,0c0.2-0.6,0.9-0.9,1.5-0.6l0,0
			c0.6,0.2,0.9,0.9,0.6,1.5l0,0c-0.2,0.4-0.6,0.7-1.1,0.7l0,0C353.4,314.9,353.3,314.9,353.1,314.9z M418.6,311.8
			c-0.3-0.6-0.1-1.3,0.5-1.6l0,0c0.6-0.3,1.3-0.1,1.6,0.5l0,0c0.3,0.6,0.1,1.3-0.5,1.6l0,0c-0.2,0.1-0.3,0.1-0.5,0.1l0,0
			C419.2,312.5,418.8,312.3,418.6,311.8z M347.4,312.2c-0.6-0.3-0.8-1-0.5-1.6l0,0c0.3-0.6,1-0.8,1.6-0.5l0,0c0.6,0.3,0.8,1,0.5,1.6
			l0,0c-0.2,0.4-0.6,0.6-1,0.6l0,0C347.8,312.3,347.6,312.3,347.4,312.2z M424,308.9c-0.3-0.6-0.2-1.3,0.4-1.6l0,0
			c0.5-0.3,1.3-0.2,1.6,0.4l0,0c0.3,0.6,0.2,1.3-0.4,1.6l0,0c-0.2,0.1-0.4,0.2-0.6,0.2l0,0C424.6,309.4,424.2,309.3,424,308.9z
			 M341.9,309.1c-0.5-0.3-0.7-1.1-0.4-1.6l0,0c0.3-0.5,1.1-0.7,1.6-0.4l0,0c0.5,0.3,0.7,1.1,0.4,1.6l0,0c-0.2,0.4-0.6,0.6-1,0.6l0,0
			C342.3,309.3,342.1,309.2,341.9,309.1z M429.2,305.5c-0.4-0.5-0.3-1.3,0.3-1.6l0,0c0.5-0.4,1.2-0.3,1.6,0.3l0,0
			c0.4,0.5,0.3,1.2-0.2,1.6l0,0c-0.2,0.2-0.4,0.2-0.7,0.2l0,0C429.8,306,429.5,305.8,429.2,305.5z M336.7,305.6L336.7,305.6
			L336.7,305.6c-0.5-0.4-0.6-1.1-0.2-1.6l0,0c0.4-0.5,1.1-0.6,1.6-0.2l0,0c0.5,0.4,0.6,1.1,0.2,1.6l0,0c-0.2,0.3-0.6,0.5-0.9,0.5
			l0,0C337.1,305.8,336.9,305.7,336.7,305.6z M434.2,301.8c-0.4-0.5-0.4-1.2,0.1-1.6l0,0c0.5-0.4,1.2-0.4,1.6,0.1l0,0
			c0.4,0.5,0.4,1.2-0.1,1.6l0,0c-0.2,0.2-0.5,0.3-0.7,0.3l0,0C434.7,302.2,434.4,302,434.2,301.8z M331.8,301.7
			C331.8,301.7,331.8,301.7,331.8,301.7L331.8,301.7c-0.5-0.4-0.5-1.2-0.1-1.6l0,0c0.4-0.5,1.1-0.5,1.6-0.1l0,0
			c0.5,0.4,0.5,1.1,0.1,1.6l0,0c-0.2,0.3-0.6,0.4-0.9,0.4l0,0C332.3,302,332,301.9,331.8,301.7z M438.8,297.6
			c-0.4-0.4-0.4-1.2,0-1.6h0c0.5-0.4,1.2-0.4,1.7,0l0,0c0.4,0.5,0.4,1.2,0,1.6l0,0c0,0,0,0,0,0l0,0c-0.2,0.2-0.5,0.3-0.8,0.3l0,0
			C439.3,298,439,297.9,438.8,297.6z M327.2,297.4c-0.4-0.4-0.4-1.2,0-1.6l0,0c0.4-0.4,1.2-0.4,1.6,0l0,0c0.4,0.5,0.4,1.2,0,1.6l0,0
			c-0.2,0.2-0.5,0.3-0.8,0.3l0,0C327.7,297.7,327.4,297.6,327.2,297.4z M327.2,297.4L327.2,297.4L327.2,297.4L327.2,297.4
			L327.2,297.4L327.2,297.4z M443.1,293.1c-0.5-0.4-0.5-1.1-0.1-1.6l0,0c0.4-0.5,1.1-0.5,1.6-0.1l0,0c0.5,0.4,0.5,1.1,0.1,1.6l0,0
			c-0.2,0.3-0.6,0.4-0.9,0.4l0,0C443.5,293.4,443.3,293.3,443.1,293.1z M322.9,292.7c-0.4-0.5-0.4-1.2,0.1-1.6l0,0
			c0.5-0.4,1.2-0.4,1.6,0.1l0,0c0.4,0.5,0.4,1.2-0.1,1.6l0,0c-0.2,0.2-0.5,0.3-0.8,0.3l0,0C323.5,293.2,323.1,293,322.9,292.7z
			 M447,288.3c-0.5-0.4-0.6-1.1-0.2-1.6l0,0c0.4-0.5,1.1-0.6,1.6-0.2l0,0c0.5,0.4,0.6,1.1,0.3,1.6l0,0c-0.2,0.3-0.6,0.5-0.9,0.5l0,0
			C447.4,288.6,447.2,288.5,447,288.3z M319,287.8c-0.4-0.5-0.3-1.2,0.3-1.6l0,0c0.5-0.4,1.2-0.2,1.6,0.3l0,0
			c0.4,0.5,0.2,1.3-0.3,1.6l0,0c-0.2,0.1-0.4,0.2-0.7,0.2l0,0C319.6,288.3,319.3,288.1,319,287.8z M450.5,283.2
			c-0.5-0.3-0.7-1.1-0.4-1.6l0,0c0.3-0.5,1.1-0.7,1.6-0.4l0,0c0.5,0.3,0.7,1,0.4,1.6l0,0l0,0l0,0c-0.2,0.4-0.6,0.5-1,0.5l0,0
			C450.9,283.4,450.7,283.4,450.5,283.2z M453.6,277.9c-0.6-0.3-0.8-1-0.5-1.6l0,0c0.3-0.6,1-0.8,1.6-0.5l0,0c0.6,0.3,0.8,1,0.5,1.6
			l0,0c-0.2,0.4-0.6,0.6-1,0.6l0,0C454,278,453.8,278,453.6,277.9z M456.3,272.3c-0.6-0.2-0.9-0.9-0.6-1.5l0,0
			c0.2-0.6,0.9-0.9,1.5-0.6l0,0c0.6,0.2,0.9,0.9,0.6,1.5l0,0l0,0l0,0c-0.2,0.4-0.6,0.7-1.1,0.7l0,0
			C456.6,272.4,456.5,272.4,456.3,272.3z M458.6,266.5c-0.6-0.2-0.9-0.9-0.7-1.5l0,0c0.2-0.6,0.9-0.9,1.5-0.7l0,0
			c0.6,0.2,0.9,0.9,0.7,1.5l0,0c-0.2,0.5-0.6,0.8-1.1,0.8l0,0C458.8,266.6,458.7,266.5,458.6,266.5z M460.3,260.6
			c-0.6-0.1-1-0.8-0.9-1.4l0,0c0.2-0.6,0.8-1,1.4-0.9l0,0c0.6,0.2,1,0.8,0.9,1.4l0,0c-0.1,0.5-0.6,0.9-1.1,0.9l0,0
			C460.5,260.6,460.4,260.6,460.3,260.6z M461.6,254.5c-0.6-0.1-1.1-0.7-1-1.3l0,0c0.1-0.6,0.7-1.1,1.3-1l0,0c0.6,0.1,1.1,0.7,1,1.3
			l0,0l0,0l0,0c-0.1,0.6-0.6,1-1.1,1l0,0C461.7,254.5,461.7,254.5,461.6,254.5z M462.4,248.4c-0.7,0-1.1-0.6-1.1-1.3l0,0
			c0-0.6,0.6-1.1,1.2-1.1l0,0c0.7,0.1,1.1,0.6,1.1,1.3l0,0c0,0,0,0,0,0l0,0C463.6,247.9,463.1,248.4,462.4,248.4L462.4,248.4
			C462.5,248.4,462.5,248.4,462.4,248.4z M461.6,241c0-0.7,0.5-1.2,1.2-1.2l0,0c0.6,0,1.2,0.5,1.2,1.2l0,0c0,0.6-0.5,1.2-1.2,1.2
			l0,0C462.1,242.2,461.6,241.6,461.6,241z M461.4,235.5c0-0.6,0.4-1.2,1.1-1.2l0,0c0.7-0.1,1.2,0.4,1.2,1.1l0,0l0,0l0,0
			c0,0.6-0.4,1.2-1.1,1.2l0,0c0,0-0.1,0-0.1,0l0,0C462,236.6,461.5,236.2,461.4,235.5z M460.7,229.5c-0.1-0.6,0.3-1.2,1-1.3l0,0
			c0.6-0.1,1.2,0.3,1.3,1l0,0c0.1,0.6-0.4,1.2-1,1.3l0,0c0,0-0.1,0-0.2,0l0,0C461.3,230.5,460.8,230,460.7,229.5z M459.6,223.5
			c-0.1-0.6,0.2-1.3,0.9-1.4l0,0c0.6-0.1,1.3,0.2,1.4,0.9l0,0c0,0,0,0,0,0l0,0c0.1,0.6-0.2,1.2-0.9,1.4l0,0c-0.1,0-0.2,0-0.3,0l0,0
			C460.2,224.4,459.7,224,459.6,223.5z M458,217.6L458,217.6c-0.2-0.6,0.2-1.3,0.8-1.5l0,0c0.6-0.2,1.3,0.1,1.5,0.8l0,0l0,0l0,0
			c0.2,0.6-0.1,1.3-0.8,1.5l0,0c-0.1,0-0.2,0-0.3,0l0,0C458.6,218.4,458.2,218.1,458,217.6z M455.9,211.8L455.9,211.8
			c-0.2-0.6,0-1.3,0.6-1.5l0,0c0.6-0.2,1.3,0,1.5,0.6l0,0l0,0l0,0c0.2,0.6,0,1.3-0.7,1.5l0,0c-0.1,0-0.3,0.1-0.4,0.1l0,0
			C456.6,212.6,456.1,212.3,455.9,211.8z M453.4,206.3L453.4,206.3c-0.3-0.6-0.1-1.3,0.5-1.6l0,0c0.6-0.3,1.3,0,1.6,0.5l0,0l0,0l0,0
			c0.3,0.6,0,1.3-0.5,1.6l0,0c-0.2,0.1-0.3,0.1-0.5,0.1l0,0C454,206.9,453.6,206.7,453.4,206.3z M450.5,200.9
			c-0.3-0.5-0.2-1.3,0.4-1.6l0,0c0.5-0.3,1.3-0.2,1.6,0.4l0,0c0.3,0.5,0.2,1.3-0.4,1.6l0,0c-0.2,0.1-0.4,0.2-0.6,0.2l0,0
			C451.1,201.5,450.7,201.3,450.5,200.9z M447.1,195.8L447.1,195.8c-0.4-0.5-0.3-1.2,0.3-1.6l0,0c0.5-0.4,1.3-0.3,1.6,0.3l0,0l0,0
			l0,0c0.4,0.5,0.2,1.3-0.3,1.6l0,0c-0.2,0.1-0.4,0.2-0.7,0.2l0,0C447.7,196.3,447.3,196.1,447.1,195.8z M443.4,191L443.4,191
			c-0.4-0.5-0.3-1.2,0.1-1.6l0,0c0.5-0.4,1.2-0.4,1.6,0.1l0,0c0.4,0.5,0.4,1.2-0.1,1.6l0,0c-0.2,0.2-0.5,0.3-0.7,0.3l0,0
			C443.9,191.4,443.6,191.3,443.4,191z M439.3,186.5L439.3,186.5c-0.4-0.5-0.4-1.2,0-1.6l0,0c0.4-0.4,1.2-0.4,1.6,0l0,0
			c0.4,0.4,0.4,1.2,0,1.6l0,0c-0.2,0.2-0.5,0.3-0.8,0.3l0,0C439.8,186.8,439.5,186.7,439.3,186.5z M434.8,182.3L434.8,182.3
			c-0.5-0.4-0.5-1.2-0.1-1.6l0,0c0.4-0.5,1.2-0.5,1.6-0.1l0,0l0,0l0,0c0.5,0.4,0.5,1.2,0.1,1.6l0,0c-0.2,0.3-0.6,0.4-0.9,0.4l0,0
			C435.3,182.6,435,182.5,434.8,182.3z M430,178.5c-0.5-0.4-0.6-1.1-0.2-1.6l0,0c0.4-0.5,1.1-0.6,1.6-0.2l0,0c0,0,0,0,0,0l0,0
			c0.5,0.4,0.6,1.1,0.2,1.6l0,0c-0.2,0.3-0.6,0.5-0.9,0.5l0,0C430.5,178.7,430.2,178.6,430,178.5z M425,175.1L425,175.1
			c-0.5-0.3-0.7-1.1-0.4-1.6l0,0c0.3-0.5,1.1-0.7,1.6-0.4l0,0c0.5,0.3,0.7,1.1,0.4,1.6l0,0c-0.2,0.3-0.6,0.5-1,0.5l0,0
			C425.4,175.2,425.2,175.2,425,175.1z M342.1,174.1c-0.3-0.5-0.2-1.3,0.4-1.6l0,0c0.5-0.3,1.3-0.2,1.6,0.4l0,0
			c0.3,0.6,0.2,1.3-0.4,1.6l0,0c-0.2,0.1-0.4,0.2-0.6,0.2l0,0C342.7,174.7,342.3,174.5,342.1,174.1z M419.7,172L419.7,172
			c-0.6-0.3-0.8-1-0.5-1.6l0,0c0.3-0.6,1-0.8,1.6-0.5l0,0c0.6,0.3,0.8,1,0.5,1.6l0,0c-0.2,0.4-0.6,0.6-1,0.6l0,0
			C420,172.2,419.8,172.1,419.7,172z M347.5,171.1c-0.3-0.6-0.1-1.3,0.5-1.6l0,0c0.6-0.3,1.3-0.1,1.6,0.5l0,0
			c0.3,0.6,0.1,1.3-0.5,1.6l0,0c-0.2,0.1-0.4,0.1-0.5,0.1l0,0C348.1,171.7,347.7,171.5,347.5,171.1z M414.1,169.4
			c-0.6-0.3-0.9-0.9-0.6-1.5l0,0c0.2-0.6,0.9-0.9,1.5-0.6l0,0c0,0,0,0,0,0l0,0c0.6,0.3,0.9,0.9,0.6,1.5l0,0
			c-0.2,0.4-0.6,0.7-1.1,0.7l0,0C414.4,169.5,414.3,169.5,414.1,169.4z M353.1,168.4c-0.2-0.6,0-1.3,0.6-1.5l0,0
			c0.6-0.2,1.3,0,1.5,0.6l0,0c0.2,0.6,0,1.3-0.6,1.5l0,0c-0.1,0-0.3,0.1-0.4,0.1l0,0C353.7,169.1,353.3,168.9,353.1,168.4z
			 M408.4,167.3c-0.6-0.2-0.9-0.9-0.7-1.5l0,0c0.2-0.6,0.9-0.9,1.5-0.7l0,0c0.6,0.2,0.9,0.9,0.7,1.5l0,0c-0.2,0.5-0.6,0.8-1.1,0.8
			l0,0C408.7,167.3,408.5,167.3,408.4,167.3z M358.9,166.2c-0.2-0.6,0.1-1.3,0.8-1.5l0,0c0.6-0.2,1.3,0.1,1.5,0.7l0,0
			c0.2,0.6-0.1,1.3-0.8,1.5l0,0c-0.1,0-0.2,0.1-0.4,0.1l0,0C359.5,167,359,166.7,358.9,166.2z M402.6,165.6c-0.6-0.1-1-0.8-0.9-1.4
			l0,0c0.2-0.6,0.8-1,1.4-0.9l0,0l0,0l0,0c0.6,0.2,1,0.8,0.9,1.4l0,0c-0.1,0.5-0.6,0.9-1.1,0.9l0,0
			C402.7,165.6,402.6,165.6,402.6,165.6z M364.8,164.5c-0.2-0.6,0.2-1.3,0.9-1.4l0,0c0.6-0.1,1.3,0.2,1.4,0.9l0,0
			c0.1,0.6-0.2,1.3-0.9,1.4l0,0c-0.1,0-0.2,0-0.3,0l0,0C365.4,165.4,365,165,364.8,164.5z M396.6,164.4c-0.6-0.1-1.1-0.7-1-1.3l0,0
			c0.1-0.6,0.7-1.1,1.3-0.9l0,0c0.6,0.1,1.1,0.7,1,1.3l0,0c-0.1,0.6-0.6,1-1.1,1l0,0C396.7,164.4,396.6,164.4,396.6,164.4z
			 M370.9,163.2c-0.1-0.6,0.3-1.2,1-1.3l0,0c0.6-0.1,1.2,0.3,1.3,1l0,0c0.1,0.6-0.3,1.2-1,1.3l0,0c-0.1,0-0.1,0-0.2,0l0,0
			C371.5,164.2,371,163.8,370.9,163.2z M390.5,163.6c-0.6,0-1.1-0.6-1.1-1.3l0,0c0-0.6,0.6-1.1,1.3-1.1l0,0c0.6,0,1.1,0.6,1.1,1.3
			l0,0c0,0.6-0.6,1.1-1.1,1.1l0,0C390.6,163.6,390.5,163.6,390.5,163.6z M377.1,162.5c0-0.6,0.4-1.2,1.1-1.2l0,0
			c0.7,0,1.2,0.4,1.3,1.1l0,0c0,0.7-0.4,1.2-1.1,1.2l0,0c0,0,0,0-0.1,0l0,0C377.6,163.5,377.1,163.1,377.1,162.5z M384.4,163.3
			c-0.7,0-1.2-0.5-1.2-1.2l0,0c0-0.6,0.5-1.2,1.2-1.1l0,0c0.6,0,1.2,0.5,1.1,1.2l0,0C385.6,162.8,385,163.3,384.4,163.3L384.4,163.3
			L384.4,163.3z"/>
	</g>
</g>
<g>
	<path fill="#00AEEF" d="M329.3,157.1c0,0,0.1-0.2,0.2-0.2c0.2-0.2,0.5-0.1,0.6,0c0.1,0.1,0.2,0.2,0.2,0.4l2.1,6.8c0,0,0,0,0,0
		c0,0.3,0,0.5-0.1,0.6c-0.2,0.2-0.4,0.3-0.5,0.3c-2.7,0.1-7,0.4-7,0.4c-0.3,0-0.5,0-0.6-0.1l0,0l0,0c-0.2-0.1-0.2-0.3-0.2-0.5
		c0-0.1,0-0.1,0.1-0.2L329.3,157.1z"/>
</g>
<g>
	<path fill="#00AEEF" d="M347.6,175.6c0,0,0.1,0.1,0.2,0.2c0.1,0.2,0,0.5-0.1,0.6c-0.1,0.1-0.2,0.1-0.4,0.1l-7.1,0.3c0,0,0,0,0,0
		c-0.3,0-0.4-0.1-0.5-0.3c-0.2-0.2-0.2-0.5-0.1-0.5c0.5-2.6,1.4-6.9,1.4-6.9c0.1-0.2,0.1-0.4,0.2-0.6l0,0l0,0
		c0.2-0.1,0.4-0.2,0.5-0.1c0.1,0,0.1,0.1,0.2,0.1L347.6,175.6z"/>
</g>
<polyline fill="none" stroke="#000000" stroke-miterlimit="10" points="312.4,285.9 304.3,288.1 296.5,289.3 288.9,289.7 
	280.9,289.3 273.2,288 265.3,285.9 258,282.9 251.1,279.2 244.6,274.7 238.6,269.5 233.1,263.6 228.5,257.4 224.5,250.3 221.3,243 
	219.1,235.4 217.8,227.7 217.3,219.6 217.8,211.4 219,204.1 221.4,196.2 224.5,189 228.4,182.1 233,175.8 238.4,169.9 244.4,164.7 
	251,160.1 258,156.3 265.4,153.4 272.9,151.3 280.6,150 288.9,149.5 296.8,149.9 304.4,151.2 312,153.2 319.4,156.2 327,160.3 "/>
<polyline fill="none" stroke="#000000" stroke-miterlimit="10" points="319.8,287.1 323.8,291.9 327.9,296.6 332.7,300.8 
	337.2,304.6 342.5,308.2 347.9,311.2 353.5,313.9 359.2,316.1 365.4,317.8 371.4,318.9 377.4,319.5 383.9,320 389.9,320 
	395.9,318.9 402.2,317.8 408,316.1 414.1,313.8 419.4,311.4 425,308.1 430.1,304.8 435.1,300.9 439.2,296.8 444,292.2 448,287.1 
	451.1,282.1 454.1,276.8 456.8,271 459,265.2 460.6,259.4 461.9,253.1 462.6,247.2 462.6,241 462.6,235.4 461.9,229.1 460.6,223.1 
	459,217.1 456.8,211.2 454.4,205.9 451.5,200.1 447.9,195 444.1,190 440,185.2 435.4,181.2 430.4,177.5 425.2,174 420,170.9 
	414.6,168.6 408.6,166.2 402.5,164.5 396.4,163.2 390.4,162.4 384.5,162.4 378.1,162.4 371.8,163 365.9,164.2 359.6,165.9 354,168 
	348.6,170.6 342.8,173.5 "/>
</svg>
